<svg xmlns="http://www.w3.org/2000/svg" viewBox="0 0 36.73 11.59"><g id="Layer_2" data-name="Layer 2"><g id="Layer_1-2" data-name="Layer 1"><path d="M13,11.59H9.13l-.49-1.46H4.34l-.49,1.46H0L4.13,0H8.86ZM6.46,3.77,5.34,7.11h2.3L6.53,3.77Z"/><path d="M22.69,7.34l1.95,4.25h-4L19.27,8.31H16.84v3.28h-3.6V0h7.39a3.72,3.72,0,0,1,2.95,1,4.43,4.43,0,0,1,.86,3A4.18,4.18,0,0,1,24,6.12a2.43,2.43,0,0,1-1.31,1.06ZM19.52,5.47a.94.94,0,0,0,.71-.23,1.11,1.11,0,0,0,.21-.74,1.18,1.18,0,0,0-.21-.77.88.88,0,0,0-.71-.24H16.84v2Z"/><path d="M36.14,0,32.59,4.14l4.14,7.45H32.41L30.06,7.11l-1.4,1.62v2.86h-3.6V0h3.6V4.11L32.05,0Z"/></g></g></svg>