<svg xmlns="http://www.w3.org/2000/svg" viewBox="0 0 969.76 443.65"><defs><style>.cls-1{fill:#fff;}.cls-2{fill:#101626;}.cls-3{fill:#ffe600;stroke:#101626;stroke-miterlimit:10;stroke-width:0.25px;}</style></defs><g id="Layer_2" data-name="Layer 2"><g id="Layer_1-2" data-name="Layer 1"><rect class="cls-1" width="969.76" height="443.65"/><path class="cls-2" d="M401.2,161.51V138.45L237.88,96.24,74.56,138.45v23.06H96.13l8.48,12.08L99.83,302.93h-3.7v10.34H74.56v24.47H401.2V313.27H377.72V302.93H374l-4.78-129.34,8.48-12.08ZM136.63,313.27V302.93h-3.7l-4.78-129.34,8.48-12.08h20.74l8.48,12.08-4.78,129.34h-3.7v10.34Zm61.24,0V302.93h-3.7l-4.78-129.34,8.48-12.08h19.76l8.48,12.08-4.78,129.34h-3.7v10.34Zm60.26,0V302.93h-3.7l-4.78-129.34,8.48-12.08h19l8.48,12.08-4.78,129.34h-3.7v10.34Zm59.54,0V302.93H314l-4.78-129.34,8.48-12.08h19.55l8.48,12.08-4.78,129.34h-3.7v10.34Z"/><polygon class="cls-3" points="164.27 27.39 169.65 38.3 181.69 40.05 172.98 48.54 175.04 60.53 164.27 54.87 153.5 60.53 155.55 48.54 146.84 40.05 158.88 38.3 164.27 27.39"/><polygon class="cls-3" points="421.37 80.46 423.93 85.65 429.67 86.48 425.52 90.53 426.5 96.24 421.37 93.54 416.24 96.24 417.22 90.53 413.07 86.48 418.81 85.65 421.37 80.46"/><polygon class="cls-3" points="134.15 353.73 139.53 364.64 151.57 366.39 142.86 374.88 144.92 386.87 134.15 381.21 123.38 386.87 125.44 374.88 116.72 366.39 128.76 364.64 134.15 353.73"/><polygon class="cls-3" points="664.64 43.96 667.2 49.15 672.93 49.99 668.79 54.03 669.76 59.74 664.64 57.04 659.51 59.74 660.49 54.03 656.34 49.99 662.07 49.15 664.64 43.96"/><polygon class="cls-3" points="809.61 340.32 813.96 349.15 823.7 350.56 816.65 357.43 818.32 367.14 809.61 362.56 800.89 367.14 802.56 357.43 795.51 350.56 805.25 349.15 809.61 340.32"/><polygon class="cls-3" points="579.89 370.3 585.28 381.21 597.32 382.96 588.6 391.45 590.66 403.45 579.89 397.78 569.12 403.45 571.18 391.45 562.47 382.96 574.51 381.21 579.89 370.3"/><polygon class="cls-3" points="864.58 43.96 869.96 54.87 882 56.62 873.29 65.11 875.35 77.1 864.58 71.44 853.81 77.1 855.87 65.11 847.15 56.62 859.19 54.87 864.58 43.96"/><polygon class="cls-3" points="360 353.73 362.56 358.92 368.3 359.76 364.15 363.8 365.13 369.51 360 366.81 354.87 369.51 355.85 363.8 351.7 359.76 357.44 358.92 360 353.73"/><polygon class="cls-3" points="424.63 205.25 430.01 216.16 442.05 217.91 433.34 226.41 435.4 238.4 424.63 232.74 413.86 238.4 415.92 226.41 407.2 217.91 419.24 216.16 424.63 205.25"/><polygon class="cls-3" points="565.79 67.05 570.15 75.88 579.89 77.29 572.84 84.16 574.51 93.86 565.79 89.28 557.08 93.86 558.75 84.16 551.7 77.29 561.44 75.88 565.79 67.05"/><polygon class="cls-3" points="717.47 370.3 720.04 375.5 725.77 376.33 721.62 380.37 722.6 386.08 717.47 383.39 712.35 386.08 713.32 380.37 709.18 376.33 714.91 375.5 717.47 370.3"/><polygon class="cls-3" points="40.83 116.66 43.52 122.11 49.54 122.98 45.19 127.23 46.22 133.23 40.83 130.4 35.45 133.23 36.48 127.23 32.12 122.98 38.14 122.11 40.83 116.66"/><polygon class="cls-3" points="49.54 262.44 53.9 271.26 63.64 272.68 56.59 279.55 58.26 289.25 49.54 284.67 40.83 289.25 42.5 279.55 35.45 272.68 45.19 271.26 49.54 262.44"/><polygon class="cls-3" points="932.58 183.66 935.14 188.85 940.87 189.68 936.72 193.73 937.7 199.44 932.58 196.74 927.45 199.44 928.43 193.73 924.28 189.68 930.01 188.85 932.58 183.66"/><polygon class="cls-3" points="910.87 369.51 916.25 380.42 928.29 382.17 919.58 390.66 921.64 402.65 910.87 396.99 900.1 402.65 902.15 390.66 893.44 382.17 905.48 380.42 910.87 369.51"/><path class="cls-2" d="M519.94,202.44H505V162.22c0-2.16,0-4.44.14-6.85s.23-4.92.42-7.54h-.38q-.6,3.09-1.1,5.32a25.81,25.81,0,0,1-1,3.58l-15.75,45.71H474.94l-16-45.24c-.19-.62-.47-1.72-.85-3.28s-.79-3.59-1.26-6.09h-.42q.31,5,.47,9.32t.14,8.11v37.18H443.35V135.22h22.17l13.73,39.84a37.32,37.32,0,0,1,1.38,4.41c.36,1.47.7,2.95,1,4.45h.28q.66-2.53,1.32-4.78c.43-1.5.89-2.89,1.36-4.17l13.73-39.75h21.61Z"/><path class="cls-2" d="M590,173.33Q590,188.46,583,196t-21.16,7.57q-13.69,0-20.53-7.39t-6.85-22.33V135.22h15.19v39q0,8.15,3.19,12.23t9.56,4.08q6.28,0,9.4-3.94t3.12-11.81V135.22H590Z"/><path class="cls-2" d="M599.16,198l6.28-11.76a38.17,38.17,0,0,0,8.79,4.05,28.79,28.79,0,0,0,7.85,1.06c3.62,0,6.3-.7,8-2.09a7,7,0,0,0,2.57-5.7,6.77,6.77,0,0,0-2.06-5.32c-1.37-1.23-3.91-2.27-7.59-3.11q-11.25-2.58-16.36-7.32t-5.11-13.21a18.83,18.83,0,0,1,6.61-14.51q6.6-6,18.51-6a42.33,42.33,0,0,1,9.75,1.13,41.49,41.49,0,0,1,9.1,3.28l-5.67,11.95a32.75,32.75,0,0,0-7.32-3.14,24.38,24.38,0,0,0-6.37-.94,12.23,12.23,0,0,0-7.08,1.78,5.86,5.86,0,0,0-2.53,5.11,5.38,5.38,0,0,0,2.32,4.69c1.55,1.1,4.32,2.09,8.32,3q10.92,2.49,15.8,7.41t4.87,13.87a19.58,19.58,0,0,1-6.73,15.47q-6.72,5.91-19.52,5.91a49.24,49.24,0,0,1-11.67-1.48A41.16,41.16,0,0,1,599.16,198Z"/><path class="cls-2" d="M698.77,202.44H658.45V135.22h38.77v12.32H673.6v15h22v12.28h-22v15.37h25.17Z"/><path class="cls-2" d="M764.35,173.33q0,15.13-7.06,22.71t-21.16,7.57q-13.7,0-20.53-7.39t-6.85-22.33V135.22h15.19v39q0,8.15,3.19,12.23t9.56,4.08q6.28,0,9.4-3.94t3.11-11.81V135.22h15.15Z"/><path class="cls-2" d="M855.56,202.44H840.61V162.22q0-3.24.14-6.85c.1-2.4.24-4.92.42-7.54h-.37q-.62,3.09-1.1,5.32a27.29,27.29,0,0,1-1,3.58l-15.75,45.71H810.56l-16-45.24c-.18-.62-.47-1.72-.84-3.28s-.8-3.59-1.27-6.09H792q.33,5,.47,9.32t.14,8.11v37.18H779V135.22h22.17l13.74,39.84a37.32,37.32,0,0,1,1.38,4.41c.36,1.47.69,2.95,1,4.45h.28c.44-1.69.87-3.28,1.31-4.78s.89-2.89,1.36-4.17L834,135.22h21.61Z"/><path class="cls-2" d="M865.36,198l6.28-11.76a38.55,38.55,0,0,0,8.79,4.05,28.84,28.84,0,0,0,7.85,1.06q5.44,0,8-2.09a6.93,6.93,0,0,0,2.58-5.7,6.78,6.78,0,0,0-2.07-5.32q-2.05-1.84-7.59-3.11-11.25-2.58-16.36-7.32t-5.11-13.21a18.83,18.83,0,0,1,6.61-14.51q6.61-6,18.52-6a42.46,42.46,0,0,1,9.75,1.13,41.41,41.41,0,0,1,9.09,3.28l-5.67,11.95a32.69,32.69,0,0,0-7.31-3.14,24.51,24.51,0,0,0-6.38-.94,12.23,12.23,0,0,0-7.08,1.78,5.89,5.89,0,0,0-2.53,5.11,5.38,5.38,0,0,0,2.32,4.69c1.55,1.1,4.32,2.09,8.32,3q10.92,2.49,15.8,7.41t4.87,13.87a19.61,19.61,0,0,1-6.72,15.47q-6.74,5.91-19.53,5.91a49.3,49.3,0,0,1-11.67-1.48A41.3,41.3,0,0,1,865.36,198Z"/><path class="cls-2" d="M525.68,317.64H508.57l-8.95-16.55a24,24,0,0,0-4.34-6.09,8.31,8.31,0,0,0-5-2.35h-4.08v25H471.07V250.42h24q12.24,0,18.35,4.75t6.12,14.28A17.72,17.72,0,0,1,515.6,281a22.77,22.77,0,0,1-10.78,7.15v.19a12.37,12.37,0,0,1,5.6,3.94,37.8,37.8,0,0,1,4.43,6.23Zm-39.47-55.88v19.45h6.56a10.64,10.64,0,0,0,7.88-2.95,9.93,9.93,0,0,0,3-7.31q0-4.59-2.62-6.89t-7.92-2.3Z"/><path class="cls-2" d="M588.07,317.64H547.76V250.42h38.76v12.33H562.9V277.7h22V290h-22v15.37h25.17Z"/><path class="cls-2" d="M668.84,250.42l-23.16,67.22H628.52l-22.87-67.22H622l14,46.78c.37,1.28.67,2.48.89,3.58s.37,2.15.47,3.12h.28c.12-1,.3-2.12.54-3.28s.54-2.36.91-3.61L653,250.42Z"/><path class="cls-2" d="M706.06,317.64H690.92V250.42h15.14Z"/><path class="cls-2" d="M775.67,317.64H735.35V250.42h38.77v12.33H750.49V277.7h22V290h-22v15.37h25.18Z"/><path class="cls-2" d="M888.4,250.42l-17.76,67.22H853.85L842.7,274.51c-.28-1.12-.52-2.32-.71-3.59s-.31-2.58-.37-4h-.19c-.12,1.54-.29,2.93-.49,4.18a30.18,30.18,0,0,1-.73,3.37l-11.43,43.13H811.29l-17.67-67.22h16.55l9.47,44.76a33.4,33.4,0,0,1,.53,3.35c.14,1.27.26,2.72.36,4.34h.28a31,31,0,0,1,.44-3.8c.24-1.31.54-2.67.92-4.07l12.18-44.58h16.22l11,45.14c.19.81.37,1.83.56,3s.36,2.61.52,4.18h.18c.07-1.25.18-2.5.36-3.73s.38-2.49.63-3.77l9.28-44.86Z"/></g></g></svg>