<svg xmlns="http://www.w3.org/2000/svg" viewBox="0 0 804.34 279.83"><defs><style>.cls-1{fill:#101626;}.cls-2{fill:#ffe600;stroke:#101626;stroke-miterlimit:10;stroke-width:0.25px;}</style></defs><g id="Layer_2" data-name="Layer 2"><g id="Layer_1-2" data-name="Layer 1"><path class="cls-1" d="M326.65,103.6V80.54L163.32,38.33,0,80.54V103.6H21.57l8.49,12.07L25.27,245h-3.7v10.34H0v24.47H326.65V255.36H303.17V245h-3.7l-4.79-129.35,8.49-12.07ZM62.08,255.36V245h-3.7L53.59,115.67l8.49-12.07H82.81l8.49,12.07L86.51,245h-3.7v10.34Zm61.23,0V245h-3.69l-4.79-129.35,8.48-12.07h19.76l8.49,12.07L146.77,245h-3.7v10.34Zm60.27,0V245h-3.7l-4.79-129.35,8.49-12.07h19l8.49,12.07L206.31,245h-3.7v10.34Zm59.53,0V245h-3.69l-4.79-129.35,8.48-12.07h19.55l8.49,12.07L266.36,245h-3.7v10.34Z"/><polygon class="cls-2" points="163.32 0.28 168.71 11.19 180.75 12.94 172.04 21.44 174.09 33.43 163.32 27.77 152.55 33.43 154.61 21.44 145.9 12.94 157.94 11.19 163.32 0.28"/><path class="cls-1" d="M432.63,159.38h-14.1V121.45q0-3,.13-6.45c.09-2.27.22-4.65.4-7.12h-.36c-.38,1.94-.73,3.62-1,5a24.58,24.58,0,0,1-1,3.38l-14.85,43.1H390.19l-15.12-42.66c-.18-.59-.44-1.62-.8-3.09s-.75-3.39-1.19-5.75h-.4c.21,3.12.36,6.06.44,8.8s.14,5.29.14,7.64v35.06H360.39V96H381.3l13,37.57a35,35,0,0,1,1.3,4.16c.34,1.39.66,2.79.95,4.2h.27c.41-1.59.82-3.09,1.23-4.51s.84-2.73,1.29-3.93L412.25,96h20.38Z"/><path class="cls-1" d="M498.72,131.93q0,14.28-6.65,21.42t-20,7.14q-12.92,0-19.37-7t-6.45-21.06V96h14.32v36.78q0,7.69,3,11.54t9,3.84q5.92,0,8.86-3.71t2.94-11.14V96h14.28Z"/><path class="cls-1" d="M507.34,155.18l5.93-11.09a36.41,36.41,0,0,0,8.28,3.82,27.28,27.28,0,0,0,7.41,1q5.13,0,7.56-2a6.53,6.53,0,0,0,2.43-5.37,6.41,6.41,0,0,0-1.94-5q-1.95-1.76-7.17-2.94-10.61-2.43-15.43-6.9t-4.81-12.46a17.77,17.77,0,0,1,6.23-13.69q6.24-5.64,17.46-5.63a39.89,39.89,0,0,1,9.2,1.06,39.11,39.11,0,0,1,8.57,3.09l-5.35,11.27a30.67,30.67,0,0,0-6.89-3,22.81,22.81,0,0,0-6-.88,11.47,11.47,0,0,0-6.68,1.68,5.53,5.53,0,0,0-2.39,4.82,5.09,5.09,0,0,0,2.19,4.42q2.19,1.54,7.85,2.83,10.31,2.34,14.9,7t4.59,13.09a18.49,18.49,0,0,1-6.34,14.59q-6.34,5.57-18.41,5.57a46.67,46.67,0,0,1-11-1.4A38.74,38.74,0,0,1,507.34,155.18Z"/><path class="cls-1" d="M601.28,159.38h-38V96h36.56v11.62H577.54v14.11h20.74V133.3H577.54v14.5h23.74Z"/><path class="cls-1" d="M663.13,131.93q0,14.28-6.65,21.42t-20,7.14q-12.91,0-19.36-7t-6.46-21.06V96H625v36.78q0,7.69,3,11.54t9,3.84q5.93,0,8.86-3.71t2.94-11.14V96h14.28Z"/><path class="cls-1" d="M749.16,159.38h-14.1V121.45q0-3,.13-6.45c.09-2.27.22-4.65.4-7.12h-.35c-.39,1.94-.73,3.62-1,5a26.09,26.09,0,0,1-1,3.38l-14.86,43.1H706.72L691.6,116.72c-.17-.59-.44-1.62-.79-3.09s-.75-3.39-1.2-5.75h-.39c.2,3.12.35,6.06.44,8.8s.13,5.29.13,7.64v35.06H676.93V96h20.91l12.95,37.57a35,35,0,0,1,1.3,4.16c.34,1.39.66,2.79.95,4.2h.27c.41-1.59.82-3.09,1.24-4.51s.84-2.73,1.28-3.93L728.78,96h20.38Z"/><path class="cls-1" d="M758.4,155.18l5.93-11.09a36.26,36.26,0,0,0,8.29,3.82,27.15,27.15,0,0,0,7.4,1q5.13,0,7.56-2a6.53,6.53,0,0,0,2.43-5.37,6.41,6.41,0,0,0-1.94-5q-2-1.76-7.17-2.94-10.6-2.43-15.42-6.9t-4.82-12.46a17.77,17.77,0,0,1,6.23-13.69q6.24-5.64,17.46-5.63a39.89,39.89,0,0,1,9.2,1.06,39.11,39.11,0,0,1,8.57,3.09l-5.34,11.27a30.93,30.93,0,0,0-6.9-3,22.81,22.81,0,0,0-6-.88,11.47,11.47,0,0,0-6.68,1.68A5.53,5.53,0,0,0,774.8,113a5.09,5.09,0,0,0,2.19,4.42q2.19,1.54,7.85,2.83,10.3,2.34,14.9,7t4.6,13.09A18.5,18.5,0,0,1,798,154.92q-6.35,5.57-18.41,5.57a46.67,46.67,0,0,1-11-1.4A38.74,38.74,0,0,1,758.4,155.18Z"/><path class="cls-1" d="M438,268H421.91l-8.45-15.61a22.39,22.39,0,0,0-4.09-5.74,7.79,7.79,0,0,0-4.7-2.21h-3.85V268H386.54v-63.4h22.63q11.55,0,17.31,4.49t5.77,13.46a16.78,16.78,0,0,1-3.71,10.9,21.55,21.55,0,0,1-10.17,6.74v.18a11.7,11.7,0,0,1,5.28,3.71,36.19,36.19,0,0,1,4.18,5.88Zm-37.22-52.7v18.35H407a10,10,0,0,0,7.43-2.79,9.36,9.36,0,0,0,2.78-6.89q0-4.33-2.47-6.5c-1.66-1.44-4.15-2.17-7.48-2.17Z"/><path class="cls-1" d="M496.89,268h-38v-63.4h36.56v11.63H473.15v14.1h20.73V242H473.15v14.5h23.74Z"/><path class="cls-1" d="M573.06,204.63,551.22,268H535l-21.58-63.4h15.39l13.22,44.12q.52,1.81.84,3.39c.2,1,.35,2,.44,2.94h.26c.12-1,.29-2,.51-3.1s.51-2.22.87-3.4l13.13-44Z"/><path class="cls-1" d="M608.16,268H593.88v-63.4h14.28Z"/><path class="cls-1" d="M673.81,268h-38v-63.4h36.56v11.63H650.07v14.1H670.8V242H650.07v14.5h23.74Z"/><path class="cls-1" d="M780.13,204.63,763.38,268H747.55L737,227.36a32.13,32.13,0,0,1-.66-3.38,36.48,36.48,0,0,1-.36-3.74h-.18c-.11,1.44-.27,2.76-.46,3.93a30.41,30.41,0,0,1-.68,3.19L723.9,268H707.41l-16.67-63.4h15.61l8.93,42.22c.2.92.37,2,.51,3.16s.24,2.56.33,4.09h.26a29.19,29.19,0,0,1,.42-3.58c.22-1.23.51-2.52.87-3.84l11.49-42.05h15.3l10.38,42.58c.18.76.36,1.72.54,2.87s.33,2.46.48,3.94H756c.06-1.18.17-2.35.33-3.52s.36-2.35.6-3.56l8.75-42.31Z"/></g></g></svg>