<svg xmlns="http://www.w3.org/2000/svg" viewBox="0 0 969.76 443.65"><defs><style>.cls-1{fill:#fff;}.cls-2{fill:#1e2a38;}.cls-3{fill:#ffe600;}</style></defs><g id="Layer_2" data-name="Layer 2"><g id="Layer_1-2" data-name="Layer 1"><rect class="cls-1" width="969.76" height="443.65"/><path class="cls-2" d="M407.2,161.51V138.45L243.88,96.24,80.56,138.45v23.06h21.57l8.48,12.08-4.78,129.34h-3.7v10.34H80.56v24.47H407.2V313.27H383.72V302.93H380l-4.78-129.34,8.48-12.08ZM142.63,313.27V302.93h-3.7l-4.78-129.34,8.48-12.08h20.74l8.48,12.08-4.78,129.34h-3.7v10.34Zm61.24,0V302.93h-3.7l-4.78-129.34,8.48-12.08h19.76l8.48,12.08-4.78,129.34h-3.7v10.34Zm60.26,0V302.93h-3.7l-4.78-129.34,8.48-12.08h19l8.48,12.08-4.78,129.34h-3.7v10.34Zm59.54,0V302.93H320l-4.78-129.34,8.48-12.08h19.55l8.48,12.08-4.78,129.34h-3.7v10.34Z"/><path d="M548.08,199.44h-14V160.2c0-2.09.06-4.3.16-6.63s.25-4.75.43-7.26h-.41q-.59,2.94-1,5a27.08,27.08,0,0,1-1,3.45l-15.76,44.64H505L489.1,155.21c-.21-.61-.49-1.65-.84-3.14s-.75-3.4-1.21-5.76h-.4c.24,3.05.4,6,.47,8.74s.11,5.38.11,7.83v36.56h-12.8V134.32h20.66l13.76,39.05a34.34,34.34,0,0,1,1.41,4.31c.36,1.43.69,2.84,1,4.23h.27c.42-1.67.85-3.22,1.29-4.66s.87-2.76,1.3-4l13.76-39h20.2Z"/><path d="M616.7,171.33q0,14.61-6.79,21.93t-20.37,7.31q-13.17,0-19.75-7.11T563.21,172V134.32h14.21v37.87q0,8,3.18,12.06t9.49,4q6.23,0,9.33-3.88t3.11-11.65V134.32H616.7Z"/><path d="M626.83,195,632.68,184a37.35,37.35,0,0,0,8.59,4A27.58,27.58,0,0,0,649,189q5.22,0,7.83-2.07a6.91,6.91,0,0,0,2.61-5.74,6.76,6.76,0,0,0-2.09-5.29q-2.08-1.89-7.58-3.21-10.82-2.53-15.71-7.1t-4.91-12.69a18.15,18.15,0,0,1,6.34-14q6.33-5.75,17.77-5.74a40.42,40.42,0,0,1,9.38,1.09,39.57,39.57,0,0,1,8.83,3.22l-5.4,11.17a32.47,32.47,0,0,0-7.06-3,23.37,23.37,0,0,0-6.24-.93,11.91,11.91,0,0,0-7,1.8,5.93,5.93,0,0,0-2.52,5.15,5.39,5.39,0,0,0,2.29,4.68q2.29,1.63,8.24,3.08,10.5,2.46,15.17,7.2T673.6,180a18.9,18.9,0,0,1-6.45,14.87q-6.45,5.7-18.66,5.7a46.21,46.21,0,0,1-11.29-1.45A40.29,40.29,0,0,1,626.83,195Z"/><path d="M723.78,199.44H685V134.32h37.24V145.9H699.21v15h21.48v11.58H699.21V187.9h24.57Z"/><path d="M788,171.33q0,14.61-6.79,21.93t-20.37,7.31q-13.17,0-19.75-7.11T734.49,172V134.32h14.22v37.87q0,8,3.18,12.06t9.49,4q6.21,0,9.33-3.88t3.11-11.65V134.32H788Z"/><path d="M876.85,199.44h-14V160.2q0-3.13.16-6.63t.43-7.26H863q-.59,2.94-1,5a27.08,27.08,0,0,1-1,3.45l-15.76,44.64H833.81l-15.94-44.23a30.3,30.3,0,0,1-.84-3.14q-.53-2.22-1.21-5.76h-.41c.25,3.05.4,6,.48,8.74s.11,5.38.11,7.83v36.56H803.2V134.32h20.66l13.76,39.05a38,38,0,0,1,1.41,4.31c.36,1.43.69,2.84,1,4.23h.27c.42-1.67.85-3.22,1.29-4.66s.87-2.76,1.3-4l13.76-39h20.2Z"/><path d="M535.39,311H519.27l-8.81-16.22a23.14,23.14,0,0,0-4.27-5.94,7.9,7.9,0,0,0-4.9-2.23h-4.18V311H482.94V245.92h22.94q11.67,0,17.57,4.58t5.9,13.81a17.24,17.24,0,0,1-3.79,11.19,22.24,22.24,0,0,1-10.37,7v.18a12.19,12.19,0,0,1,5.29,3.71,33.06,33.06,0,0,1,4.2,5.92Zm-38.28-54.41v19.21h6.63a10.53,10.53,0,0,0,7.74-2.9,9.75,9.75,0,0,0,2.93-7.22q0-4.5-2.59-6.79t-7.81-2.3Z"/><path d="M582.76,311H544V245.92h37.24V257.5H558.19v15h21.48v11.58H558.19V299.5h24.57Z"/><path d="M648.06,245.92,625.49,311H609.41l-22.25-65.12h15.3l13.9,45.77c.33,1.18.6,2.31.82,3.38s.38,2.1.5,3.07h.22c.12-1,.31-2.1.55-3.2s.54-2.25.91-3.43l13.85-45.59Z"/><path d="M671.08,311H656.91V245.92h14.17Z"/><path d="M725.71,311H687V245.92h37.24V257.5H701.14v15h21.48v11.58H701.14V299.5h24.57Z"/><path d="M821.84,245.92,804.49,311H788.74l-11-42.14c-.27-1.09-.5-2.25-.68-3.48a38.23,38.23,0,0,1-.36-3.84h-.18c-.13,1.49-.28,2.83-.48,4a31.48,31.48,0,0,1-.7,3.25L764.17,311H747.73l-17.25-65.12H746l9.49,43.82A31.53,31.53,0,0,1,756,293c.13,1.23.25,2.6.34,4.11h.27a30.21,30.21,0,0,1,.43-3.61c.23-1.25.52-2.56.89-3.92l12-43.64h15.12L796,290.1c.18.79.36,1.77.54,2.93s.35,2.49.5,4h.18c.06-1.15.18-2.32.34-3.52s.37-2.41.62-3.65l9.31-43.91Z"/><path d="M826,306.63l5.86-11.08a37.5,37.5,0,0,0,8.58,4,27.58,27.58,0,0,0,7.72,1.07q5.22,0,7.83-2.07a6.91,6.91,0,0,0,2.61-5.74,6.73,6.73,0,0,0-2.09-5.29q-2.09-1.89-7.58-3.21-10.82-2.54-15.71-7.1t-4.91-12.69a18.18,18.18,0,0,1,6.34-14q6.33-5.74,17.78-5.74a40.34,40.34,0,0,1,9.37,1.09,39.65,39.65,0,0,1,8.84,3.22l-5.41,11.17a32.27,32.27,0,0,0-7.06-3,23.32,23.32,0,0,0-6.24-.93,11.91,11.91,0,0,0-7,1.8,5.93,5.93,0,0,0-2.52,5.15A5.42,5.42,0,0,0,844.7,268q2.29,1.63,8.25,3.08,10.49,2.46,15.16,7.2t4.68,13.33a18.9,18.9,0,0,1-6.45,14.87q-6.45,5.7-18.66,5.7a46.27,46.27,0,0,1-11.29-1.45A40.43,40.43,0,0,1,826,306.63Z"/><polygon class="cls-3" points="164.27 27.39 169.65 38.3 181.69 40.05 172.98 48.54 175.04 60.53 164.27 54.87 153.5 60.53 155.55 48.54 146.84 40.05 158.88 38.3 164.27 27.39"/><polygon class="cls-3" points="421.37 80.46 423.93 85.65 429.67 86.48 425.52 90.53 426.5 96.24 421.37 93.54 416.24 96.24 417.22 90.53 413.07 86.48 418.81 85.65 421.37 80.46"/><polygon class="cls-3" points="134.15 353.73 139.53 364.64 151.57 366.39 142.86 374.88 144.92 386.87 134.15 381.21 123.38 386.87 125.44 374.88 116.72 366.39 128.76 364.64 134.15 353.73"/><polygon class="cls-3" points="664.64 43.96 667.2 49.15 672.93 49.99 668.79 54.03 669.76 59.74 664.64 57.04 659.51 59.74 660.49 54.03 656.34 49.99 662.07 49.15 664.64 43.96"/><polygon class="cls-3" points="811.12 324.34 815.48 333.16 825.22 334.58 818.17 341.45 819.83 351.15 811.12 346.57 802.41 351.15 804.07 341.45 797.02 334.58 806.76 333.16 811.12 324.34"/><polygon class="cls-3" points="579.89 370.3 585.28 381.21 597.32 382.96 588.6 391.45 590.66 403.45 579.89 397.78 569.12 403.45 571.18 391.45 562.47 382.96 574.51 381.21 579.89 370.3"/><polygon class="cls-3" points="864.58 43.96 869.96 54.87 882 56.62 873.29 65.11 875.35 77.1 864.58 71.44 853.81 77.1 855.87 65.11 847.15 56.62 859.19 54.87 864.58 43.96"/><polygon class="cls-3" points="360 353.73 362.56 358.92 368.3 359.76 364.15 363.8 365.13 369.51 360 366.81 354.87 369.51 355.85 363.8 351.7 359.76 357.44 358.92 360 353.73"/><polygon class="cls-3" points="424.63 205.25 430.01 216.16 442.05 217.91 433.34 226.41 435.4 238.4 424.63 232.74 413.86 238.4 415.92 226.41 407.2 217.91 419.24 216.16 424.63 205.25"/><polygon class="cls-3" points="565.79 67.05 570.15 75.88 579.89 77.29 572.84 84.16 574.51 93.86 565.79 89.28 557.08 93.86 558.75 84.16 551.7 77.29 561.44 75.88 565.79 67.05"/><polygon class="cls-3" points="717.47 370.3 720.04 375.5 725.77 376.33 721.62 380.37 722.6 386.08 717.47 383.39 712.35 386.08 713.32 380.37 709.18 376.33 714.91 375.5 717.47 370.3"/></g></g></svg>