<?xml version="1.0" encoding="utf-8"?>
<!-- Generator: Adobe Illustrator 24.2.1, SVG Export Plug-In . SVG Version: 6.00 Build 0)  -->
<svg version="1.1" id="Layer_1" xmlns="http://www.w3.org/2000/svg" xmlns:xlink="http://www.w3.org/1999/xlink" x="0px" y="0px"
	 viewBox="0 0 560.2 223.4" style="enable-background:new 0 0 560.2 223.4;" xml:space="preserve">
<style type="text/css">
	.st0{fill:#31445B;stroke:#FFFFFF;stroke-width:0.25;stroke-miterlimit:10;}
	.st1{opacity:0.8;}
	.st2{opacity:0.83;}
	.st3{fill:none;stroke:#FFFFFF;stroke-width:0.25;stroke-miterlimit:10;}
	.st4{opacity:0.9;}
	.st5{enable-background:new    ;}
	.st6{fill:#31445B;}
	.st7{fill:none;stroke:#FFFFFF;stroke-width:2;stroke-miterlimit:10;}
</style>
<g>
	<rect x="0.1" y="0.1" class="st0" width="560" height="223.2"/>
	<g class="st1">
		<g class="st2">
			<line class="st3" x1="0.1" y1="37" x2="112.1" y2="37"/>
			<line class="st3" x1="0.1" y1="74.4" x2="112.1" y2="74.4"/>
			<line class="st3" x1="37.5" y1="0.1" x2="37.5" y2="111.7"/>
			<line class="st3" x1="74.8" y1="0.1" x2="74.8" y2="111.7"/>
			<polyline class="st3" points="112.1,0.1 0.1,0.1 0.1,111.7 			"/>
		</g>
		<g class="st2">
			<line class="st3" x1="0.1" y1="148.6" x2="112.1" y2="148.6"/>
			<line class="st3" x1="0.1" y1="186" x2="112.1" y2="186"/>
			<line class="st3" x1="37.5" y1="111.7" x2="37.5" y2="223.3"/>
			<line class="st3" x1="74.8" y1="111.7" x2="74.8" y2="223.3"/>
			<polyline class="st3" points="112.1,111.7 0.1,111.7 0.1,223.3 			"/>
		</g>
		<g class="st2">
			<line class="st3" x1="112.1" y1="37" x2="224.1" y2="37"/>
			<line class="st3" x1="112.1" y1="74.4" x2="224.1" y2="74.4"/>
			<line class="st3" x1="149.4" y1="0.1" x2="149.4" y2="111.7"/>
			<line class="st3" x1="186.8" y1="0.1" x2="186.8" y2="111.7"/>
			<polyline class="st3" points="224.1,0.1 112.1,0.1 112.1,111.7 			"/>
		</g>
		<g class="st2">
			<line class="st3" x1="112.1" y1="148.6" x2="224.1" y2="148.6"/>
			<line class="st3" x1="112.1" y1="186" x2="224.1" y2="186"/>
			<line class="st3" x1="149.4" y1="111.7" x2="149.4" y2="223.3"/>
			<line class="st3" x1="186.8" y1="111.7" x2="186.8" y2="223.3"/>
			<polyline class="st3" points="224.1,111.7 112.1,111.7 112.1,223.3 			"/>
		</g>
		<g class="st2">
			<line class="st3" x1="224.1" y1="37" x2="336.1" y2="37"/>
			<line class="st3" x1="224.1" y1="74.4" x2="336.1" y2="74.4"/>
			<line class="st3" x1="261.4" y1="0.1" x2="261.4" y2="111.7"/>
			<line class="st3" x1="298.8" y1="0.1" x2="298.8" y2="111.7"/>
			<polyline class="st3" points="336.1,0.1 224.1,0.1 224.1,111.7 			"/>
		</g>
		<g class="st2">
			<line class="st3" x1="224.1" y1="148.6" x2="336.1" y2="148.6"/>
			<line class="st3" x1="224.1" y1="186" x2="336.1" y2="186"/>
			<line class="st3" x1="261.4" y1="111.7" x2="261.4" y2="223.3"/>
			<line class="st3" x1="298.8" y1="111.7" x2="298.8" y2="223.3"/>
			<polyline class="st3" points="336.1,111.7 224.1,111.7 224.1,223.3 			"/>
		</g>
		<g class="st2">
			<line class="st3" x1="336.1" y1="37" x2="448.1" y2="37"/>
			<line class="st3" x1="336.1" y1="74.4" x2="448.1" y2="74.4"/>
			<line class="st3" x1="373.4" y1="0.1" x2="373.4" y2="111.7"/>
			<line class="st3" x1="410.8" y1="0.1" x2="410.8" y2="111.7"/>
			<polyline class="st3" points="448.1,0.1 336.1,0.1 336.1,111.7 			"/>
		</g>
		<g class="st2">
			<line class="st3" x1="336.1" y1="148.6" x2="448.1" y2="148.6"/>
			<line class="st3" x1="336.1" y1="186" x2="448.1" y2="186"/>
			<line class="st3" x1="373.4" y1="111.7" x2="373.4" y2="223.3"/>
			<line class="st3" x1="410.8" y1="111.7" x2="410.8" y2="223.3"/>
			<polyline class="st3" points="448.1,111.7 336.1,111.7 336.1,223.3 			"/>
		</g>
		<g class="st2">
			<line class="st3" x1="448.1" y1="37" x2="560.1" y2="37"/>
			<line class="st3" x1="448.1" y1="74.4" x2="560.1" y2="74.4"/>
			<line class="st3" x1="485.4" y1="0.1" x2="485.4" y2="111.7"/>
			<line class="st3" x1="522.8" y1="0.1" x2="522.8" y2="111.7"/>
			<polyline class="st3" points="560.1,0.1 448.1,0.1 448.1,111.7 			"/>
		</g>
		<g class="st2">
			<line class="st3" x1="448.1" y1="148.6" x2="560.1" y2="148.6"/>
			<line class="st3" x1="448.1" y1="186" x2="560.1" y2="186"/>
			<line class="st3" x1="485.4" y1="111.7" x2="485.4" y2="223.3"/>
			<line class="st3" x1="522.8" y1="111.7" x2="522.8" y2="223.3"/>
			<polyline class="st3" points="560.1,111.7 448.1,111.7 448.1,223.3 			"/>
		</g>
	</g>
	<g class="st1">
		<rect x="313.6" y="174.3" class="st3" width="5.2" height="7.4"/>
		<rect x="322" y="174.3" class="st3" width="5.2" height="7.4"/>
		<rect x="304.9" y="174.3" class="st3" width="5.2" height="7.4"/>
		<path class="st3" d="M410,190.3l-75.2,3.3l1.6,3.3"/>
		<polyline class="st3" points="334.6,190.2 334.6,169.1 268.5,169.1 268.5,189.7 		"/>
		<path class="st3" d="M182.4,195.5l1.1-2.8l13.6,3.5h-1.4v2.3c0,0,5.8,0.8,6.9,0.8v-3.6L118.8,174v1.8l44.6,11.6l-0.6,1.7"/>
		<polyline class="st3" points="164,189.6 164.7,187.8 182.1,192.3 181,195.1 		"/>
		<path class="st3" d="M143.2,182.1c10.9,6.9,46,29.9,46,29.9h229.7l9.9-11.4l1.5-0.1l2.4-21.2l7.4-1.5l-0.7-9.1l-34.9,3.7l-7.6,5
			l-62.3,3 M334.8,193.6h-4.4l-74-0.1l-44.1-0.1h-9.8v2.3l0,0v3.6l0,0c-0.3,0-0.6,0-0.9-0.1c-1.9-0.1-3.9-0.4-6-0.8h-0.1
			c-4.4-0.8-8.8-1.8-13.2-3.1l0,0l-0.3-0.1l-0.8-0.2l-0.3-0.1l0,0c-5.7-1.6-11.6-3.6-17-5.5h-0.1l-0.7-0.3l-0.4-0.2l0,0
			c-6.1-2.2-11.6-4.3-15.7-6 M427.9,193.6l-14.5,0.9l-1.4-11.1l17.6-2.4L427.9,193.6z"/>
		<polyline class="st3" points="386.5,162.1 415.3,162.2 415.8,161.1 386.4,160.9 		"/>
		<path class="st3" d="M372,101.7c23.1-8,43.4-14,43.4-14l-0.3-0.9c-15,4-29.9,8.9-43,13.6"/>
		<path class="st3" d="M371.1,100.7c-25.7,9.2-44.6,17.7-44.6,17.7c-0.8,0.6,0.3,1.2,0.3,1.2c12.4-5.9,28.8-12.1,44.2-17.5"/>
		<path class="st3" d="M372,102.2l-2,49.3l45.9-20c0,0-8.8-14.2-2.8-43C413,88.4,391.4,95.5,372,102.2z"/>
		<path class="st3" d="M371,102.5c-12.9,4.4-24.6,8.5-28.4,10.1c-9.6,4-14.8,6.4-14.8,6.4s11.8,6.1,14.4,14.8s12.1,24.4,12.1,24.4
			l13.7-6L371,102.5z"/>
		<path class="st3" d="M369.9,152.1c13.6-6.1,32.3-14.4,47.1-20.2l0.4-0.9c-0.4,0.1-1,0.3-1.7,0.6l0,0"/>
		<path class="st3" d="M368,152.9c-9.5,4.3-16,7.3-16,7.3l-0.1-0.9l2.4-1.1"/>
		<line class="st3" x1="384.2" y1="160.9" x2="369.5" y2="160.7"/>
		<line class="st3" x1="369.5" y1="162.1" x2="384.3" y2="162.1"/>
		<polyline class="st3" points="269.3,67.3 267.7,73.2 267.7,73.2 235.1,189.4 237.1,189.4 269,73.2 		"/>
		<line class="st3" x1="332.3" y1="162.1" x2="332.3" y2="163.6"/>
		<line class="st3" x1="336.7" y1="163.6" x2="336.7" y2="162.1"/>
		<polyline class="st3" points="267.2,165.6 336.6,164.7 336.6,163.6 332.3,163.6 267.3,164.3 		"/>
		<path class="st3" d="M439.7,172.3l-31.2,4.7l2.9,25.7l17.4-2 M427.9,193.7l-14.5,0.9l-1.4-11.2l17.6-2.4L427.9,193.7z"/>
		<path class="st3" d="M410.5,195.2L410.5,195.2c-99.6,4.7-208-1.8-208-1.8l0.5,3c0,0,108.4,6.5,207.9,1.8"/>
		<polyline class="st3" points="420.3,194.1 420.3,194.1 420.3,192 417.2,192 417.2,182.7 		"/>
		<line class="st3" x1="420.3" y1="182.2" x2="420.3" y2="194.1"/>
		<line class="st3" x1="422.2" y1="193.9" x2="422.2" y2="182"/>
		<polyline class="st3" points="420.3,170.6 420.3,165.3 425.2,165.3 425.2,170.1 		"/>
		<polyline class="st3" points="438.1,168.7 438.1,164.3 419.4,164.3 419.4,170.7 		"/>
		<polyline class="st3" points="432.4,169.3 432.4,165.3 437.3,165.3 437.3,168.8 		"/>
		<polyline class="st3" points="426.3,170 426.3,165.3 431.3,165.3 431.3,169.5 		"/>
		<path class="st3" d="M191,86.9c0,0,7.8,76.5,34.1,96.6"/>
		<polyline class="st3" points="203.1,187.6 201.6,187.6 200.2,185 230.7,185.8 231.1,186.6 		"/>
		<path class="st3" d="M207.1,185.2c0,0,54.8-117.2,62.8-133.5"/>
		<polyline class="st3" points="272.6,49.6 273.2,50.3 349,149.2 349.5,149.8 		"/>
		<line class="st3" x1="356.2" y1="158.3" x2="358" y2="160.6"/>
		<line class="st3" x1="359.2" y1="162.2" x2="366" y2="170.9"/>
		<line class="st3" x1="360.3" y1="179.1" x2="348.6" y2="162.2"/>
		<polyline class="st3" points="347.5,160.5 314.6,112.7 272,50.8 271.9,50.5 		"/>
		<line class="st3" x1="285.6" y1="137.5" x2="308.8" y2="145.2"/>
		<line class="st3" x1="305.3" y1="122.5" x2="309.7" y2="144.1"/>
		<line class="st3" x1="307.3" y1="141.9" x2="309.2" y2="144.2"/>
		<line class="st3" x1="296.7" y1="129.1" x2="306.5" y2="140.8"/>
		<line class="st3" x1="310.3" y1="145.6" x2="330.2" y2="160.3"/>
		<line class="st3" x1="355.7" y1="179.3" x2="336.2" y2="164.7"/>
		<circle class="st3" cx="307" cy="141.3" r="0.7"/>
		<circle class="st3" cx="309.6" cy="144.9" r="0.9"/>
		<polyline class="st3" points="364.7,103 331.3,28.2 331,27.5 		"/>
		<polyline class="st3" points="385.3,158.2 372.1,99.1 371.2,99.1 371.2,99.4 372.1,99.5 372.1,99.9 371.1,99.8 		"/>
		<line class="st3" x1="399.1" y1="175.8" x2="392.7" y2="162.2"/>
		<line class="st3" x1="392.2" y1="160.9" x2="385" y2="145.6"/>
		<line class="st3" x1="377.5" y1="148.7" x2="398.8" y2="159.4"/>
		<polyline class="st3" points="403.5,137.4 400.6,157.6 400.6,157.8 		"/>
		<path class="st3" d="M401.2,159c0,0.7-0.5,1.3-1.2,1.3c-0.5,0-1-0.3-1.2-0.8c-0.1-0.2-0.1-0.3-0.1-0.5c-0.1-0.7,0.4-1.3,1.1-1.4
			c0,0,0,0,0,0c0.7-0.1,1.3,0.5,1.4,1.1c0,0,0,0,0,0V159z"/>
		<polyline class="st3" points="406.7,172 401.8,162.2 401.8,161 401.5,161 401.5,162.2 401.3,162.2 401.3,161 401.2,160.9 
			400.6,160 		"/>
		<line class="st3" x1="409.4" y1="134.9" x2="426.1" y2="164.3"/>
		<line class="st3" x1="426.6" y1="165.3" x2="429.2" y2="169.7"/>
		<polyline class="st3" points="267.8,165.6 266.4,189.6 266.4,189.7 		"/>
		<polyline class="st3" points="265,165.6 264.1,165.6 263,189.6 263,189.6 		"/>
		<polyline class="st3" points="269.3,67.3 269.3,67.3 270.5,67.3 269,73.2 264.9,166.4 267.2,166.4 267.9,149.4 		"/>
		<polyline class="st3" points="271.9,50.5 272,45.5 270.2,45.5 270,50.7 		"/>
		<polyline class="st3" points="267.8,151 350.6,88 349.6,86.8 345.6,89.9 		"/>
		<line class="st3" x1="242.4" y1="170.4" x2="265.5" y2="152.8"/>
		<polyline class="st3" points="225.1,182.2 224.8,181.8 224.1,182.3 225.1,183.5 239.9,172.2 		"/>
		<line class="st3" x1="253.3" y1="162" x2="265.1" y2="162.1"/>
		<line class="st3" x1="265.2" y1="159.7" x2="256.5" y2="159.6"/>
		<line class="st3" x1="367.5" y1="160.7" x2="267.5" y2="159.8"/>
		<line class="st3" x1="267.4" y1="162.1" x2="367.5" y2="162.1"/>
		<polyline class="st3" points="242.8,168.6 265.6,151.2 269,73.2 		"/>
		<path class="st3" d="M269.3,67.3l0.8-16.6c-42.5,17.5-78.4,34.7-78.4,34.7c10.4,4.6,17.2,33.2,18.5,39.8s15,57,15,57l15.4-11.8"/>
		<path class="st3" d="M357.5,19.4c-25.4,6.8-56.9,18.7-85.7,30.5l-1.3,32.2l-2.7,67.3L343,91.9l2.6-2
			C319.6,67.1,357.5,19.4,357.5,19.4z"/>
		<path class="st3" d="M270,49.5c-24.5,9.8-52,21.6-81.4,35.6l1.1,2.4c0,0,1-0.5,3-1.5c-0.4-0.2-0.8-0.5-1.2-0.6
			c0,0,36-17.2,78.5-34.8"/>
		<path class="st3" d="M357.5,19.4c8.3-2.7,16.7-5.2,25.1-7.6l-0.5-1.1c0,0-43.9,11.6-110.2,38.1"/>
		<polyline class="st3" points="406,190.5 406,181.8 343.3,185.4 343.3,193.2 		"/>
		<polyline class="st3" points="334.8,193.6 334.6,190.2 258.5,189.6 233.1,189.4 231.1,186.6 203.1,186.6 203.1,187.6 203.1,192 
			203.1,193.4 		"/>
		<polyline class="st3" points="387.4,177.8 386.2,158.2 384,158.2 385.4,177.9 		"/>
		<polygon class="st3" points="368.8,178.7 372.1,98.6 371.2,98.6 366.5,178.8 		"/>
		<polyline class="st3" points="366.4,162.1 365.6,178.8 369.5,178.6 370.1,162.1 		"/>
	</g>
	<g class="st4">
		<g class="st5">
			<path class="st6" d="M143.6,98.9c-0.3,1.4-0.5,2.8-0.7,4.2c-0.1,0.4-0.3,0.7-0.6,0.8s-0.7,0.1-1.4,0c-0.7-0.2-1.4-0.4-2-0.5
				c-0.7-0.2-1.2-0.4-1.8-0.7s-0.9-0.6-1.2-1.1c-0.3-0.4-0.3-1-0.1-1.7c0.2-0.6,0.5-1.7,0.7-3.3c0.2-1.5,0.4-3.3,0.5-5.2
				s0.3-4,0.5-6.1c0.2-2.1,0.3-4,0.5-5.8s0.3-3.3,0.5-4.5c0.2-1.2,0.4-1.9,0.7-2c1-0.5,2.2-1.1,3.4-1.7c1.2-0.6,2.5-1.1,3.8-1.6
				c1.3-0.5,2.6-0.9,4-1.2c1.3-0.3,2.6-0.5,3.9-0.5c1.2,0,2.4,0.1,3.5,0.4c1.1,0.3,2,0.8,2.8,1.6c0.9,1,1.8,2.1,2.5,3.3
				c0.8,1.2,1.4,2.6,1.8,4.3c0.2,0.8,0.2,1.6,0.1,2.3c-0.1,0.7-0.3,1.4-0.6,2.1c-0.3,0.6-0.7,1.3-1.2,1.9c-0.5,0.6-1,1.2-1.6,1.7
				c-0.9,0.9-2,1.8-3.3,2.7c-1.3,0.9-2.7,1.7-4.2,2.4c-1.5,0.8-3.1,1.4-4.8,2c-1.7,0.6-3.3,1.1-4.9,1.6
				C144.2,96,143.9,97.5,143.6,98.9z M151.3,84.7c1.4-0.9,2.6-1.8,3.5-2.7c0.9-0.9,1.6-1.8,1.9-2.7c0.4-0.9,0.5-1.6,0.2-2.2
				c-0.1-0.3-0.4-0.6-0.9-0.7c-0.5-0.2-1.1-0.2-1.9-0.2c-0.8,0-1.6,0.1-2.6,0.4c-1,0.2-1.9,0.5-2.9,1c-0.4,1.5-0.8,3-1.2,4.5
				c-0.4,1.6-0.8,3.2-1.2,4.9C148.2,86.3,149.9,85.5,151.3,84.7z"/>
			<path class="st6" d="M171.2,70c1.4-0.3,2.9-0.6,4.4-0.9s3.1-0.5,4.8-0.7c1.6-0.2,3.3-0.3,4.9-0.4c1.5,0,2.5,0.6,3,1.8
				c0.4,0.6,0.6,1.2,0.7,1.8c0.1,0.5,0.3,1.1,0.4,1.7c0.1,0.7,0.1,1.2-0.2,1.4c-0.2,0.2-0.7,0.4-1.5,0.5c-1.6,0.2-3.3,0.4-5,0.6
				c-1.7,0.2-3.5,0.4-5.5,0.7c-0.4,1.2-0.8,2.5-1.1,3.8c-0.4,1.3-0.7,2.7-1.2,4.1c0.8-0.1,1.6-0.2,2.4-0.2c0.8-0.1,1.7-0.1,2.6-0.1
				c0.8,0,1.3,0,1.8,0.2c0.4,0.2,0.8,0.5,1.1,1.1c0.3,0.5,0.6,1.1,0.7,1.6c0.2,0.5,0.3,1.1,0.5,1.6c0.2,0.6,0.2,1,0.1,1.3
				c-0.2,0.2-0.6,0.4-1.4,0.6c-1.6,0.3-3.3,0.6-5,0.8c-1.7,0.3-3.3,0.6-4.9,0.9c-0.2,0.9-0.4,1.7-0.6,2.4c-0.2,0.8-0.4,1.5-0.6,2.3
				c1.3-0.2,2.5-0.4,3.6-0.5c1.1-0.1,2.4-0.2,3.7-0.3c0.8-0.1,1.3,0,1.8,0.2c0.4,0.2,0.8,0.5,1.1,1c0.3,0.5,0.6,1,0.7,1.5
				c0.2,0.5,0.4,1,0.6,1.4c0.1,0.5,0.1,0.9,0,1.1c-0.1,0.2-0.6,0.4-1.3,0.5c-1.7,0.3-3.5,0.7-5.3,1c-1.8,0.4-3.5,0.7-5.1,1
				c-1.1,0.3-1.9,0.3-2.4,0.2c-0.6-0.1-1-0.4-1.4-0.6c-0.5-0.3-0.9-0.6-1.3-0.9c-0.4-0.3-0.9-0.7-1.5-1.2c-0.5-0.4-0.8-0.8-1.1-1.3
				c-0.3-0.5-0.4-1.1-0.3-1.9l3.8-26.9C168.5,70.6,169.8,70.3,171.2,70z"/>
			<path class="st6" d="M195.3,98.4c-0.3,1.5-0.6,3-0.9,4.4c-0.1,0.4-0.3,0.7-0.5,0.8c-0.2,0.1-0.7,0.1-1.3,0
				c-0.7-0.2-1.4-0.3-1.9-0.4c-0.6-0.1-1.1-0.3-1.6-0.6c-0.5-0.3-0.9-0.7-1.1-1.1c-0.2-0.4-0.3-1-0.2-1.7c0.1-0.6,0.1-1.4,0.2-2.5
				c0.1-1.1,0.2-2.3,0.3-3.7c0.1-1.4,0.3-2.8,0.5-4.4c0.2-1.6,0.4-3.1,0.6-4.7c0.2-1.6,0.4-3.1,0.7-4.5c0.2-1.5,0.5-2.8,0.8-4
				c0.3-1.2,0.6-2.1,0.9-2.9c0.3-0.8,0.7-1.2,1-1.4c1.7-0.8,3.4-1.5,5.2-2.2s3.6-1.2,5.4-1.6c1.8-0.3,3.4-0.3,5-0.1
				c1.6,0.3,3,1,4.1,2.1c0.9,1,1.8,2.1,2.6,3.3c0.8,1.2,1.4,2.6,1.8,4.3c0.4,1.8,0.2,3.3-0.4,4.4c-0.9,1.9-2.5,3.6-4.7,5.1
				c-2.2,1.6-4.8,3-7.8,4.4c0.6,0.7,1.3,1.4,2,2.2c0.7,0.8,1.5,1.6,2.3,2.3c0.8,0.8,1.6,1.5,2.3,2.3c0.8,0.7,1.5,1.4,2.2,1.9
				c0.5,0.5,0.8,0.8,0.7,1.1c-0.1,0.3-0.3,0.6-0.7,0.8c-0.5,0.4-0.9,0.6-1.2,0.7c-0.3,0.1-0.7,0.1-1.2,0.2c-0.6,0.2-1.2,0.2-2,0.1
				c-0.7-0.1-1.5-0.4-2.5-1c-0.6-0.4-1.3-1-2.1-1.6c-0.8-0.6-1.6-1.4-2.5-2.1c-0.9-0.8-1.7-1.6-2.6-2.4c-0.9-0.8-1.6-1.7-2.3-2.6
				C196,95.3,195.6,96.9,195.3,98.4z M199.4,81.7c-0.4,1.6-0.9,3.2-1.4,5c1.9-0.6,3.5-1.4,5-2.3c1.4-0.9,2.6-1.8,3.6-2.8
				c1-0.9,1.7-1.8,2.1-2.6c0.4-0.8,0.6-1.5,0.4-1.9c-0.3-0.8-1.3-1.1-2.9-1.1c-0.8,0-1.6,0.1-2.6,0.3c-0.9,0.2-1.9,0.5-3,1.1
				C200.3,78.7,199.8,80.1,199.4,81.7z"/>
			<path class="st6" d="M229.3,96.3c-2,0.3-3.8,0.6-5.3,1c-0.5,1.1-1,2-1.4,2.9s-0.8,1.8-1.2,2.6c-0.2,0.5-0.5,0.7-0.8,0.8
				c-0.3,0.1-0.8,0-1.4-0.2c-0.4-0.1-0.7-0.3-1.2-0.5c-0.4-0.2-0.8-0.4-1.3-0.6c-0.3-0.2-0.6-0.4-0.8-0.5c-0.2-0.1-0.4-0.3-0.6-0.5
				c-0.1-0.2-0.2-0.5-0.2-0.8c0-0.3,0.1-0.8,0.2-1.4c0.6-1.9,1.5-4,2.5-6.6c1-2.5,2.2-5.1,3.4-7.8c1.2-2.7,2.4-5.3,3.7-7.9
				c1.3-2.6,2.4-4.9,3.6-6.9c0.4-0.7,0.9-1.3,1.6-1.8c0.6-0.5,1.6-0.6,2.9-0.5c1.1,0.1,2.1,0.1,3,0.3c0.9,0.1,1.7,0.3,2.4,0.4
				c0.7,0.2,1.4,0.3,2,0.5c0.6,0.2,1.2,0.4,1.8,0.5c0.8,0.3,1.4,0.7,1.6,1.2c0.2,0.5,0.3,1.1,0.2,1.9c-0.2,1.9-0.3,4.1-0.4,6.6
				c-0.1,2.5-0.2,5.1-0.2,7.8c-0.1,2.7-0.1,5.4-0.1,8.1c0,2.7,0,5.2,0,7.5c0,0.5-0.1,0.8-0.3,1c-0.2,0.2-0.7,0.3-1.4,0.3
				c-0.7,0-1.3,0-1.9-0.1c-0.6,0-1.2-0.2-1.8-0.4c-0.6-0.2-1.1-0.4-1.4-0.7c-0.3-0.3-0.4-0.8-0.5-1.6c-0.1-0.8-0.2-1.6-0.3-2.6
				c-0.1-0.9-0.2-1.9-0.2-3.1C233.3,95.8,231.3,96.1,229.3,96.3z M231.2,89.4c1.2-0.1,2.5-0.2,3.7-0.3c-0.1-2.2-0.1-4.4-0.1-6.6
				c0-2.2,0-4.4,0-6.5c-1.1,2-2.2,4.1-3.5,6.5c-1.3,2.4-2.5,4.9-3.8,7.4C228.8,89.7,230,89.5,231.2,89.4z"/>
			<path class="st6" d="M273.1,80.1c-0.8,2.5-1.5,5.1-2.2,7.7c-0.7,2.6-1.5,5.3-2.1,7.9c-0.7,2.6-1.3,5-1.8,7.3
				c0,0.4-0.1,0.6-0.3,0.7s-0.5,0.2-0.8,0.2c-0.4,0-0.8-0.1-1.2-0.2c-0.5-0.1-1-0.3-1.5-0.4c-1.1-0.3-2-0.7-2.6-1.2
				c-0.6-0.5-0.8-1.2-0.6-2.2c0.1-1,0.3-2.1,0.5-3.4c0.2-1.3,0.5-2.7,0.8-4.2c-1.1,0.2-2.2,0.3-3.3,0.5c-1.1,0.1-2.2,0.3-3.3,0.5
				c-0.4,1.9-0.8,3.6-1.1,5.2c-0.3,1.6-0.5,3.1-0.7,4.4c-0.1,0.5-0.3,0.8-0.5,0.9c-0.2,0.1-0.7,0.1-1.4,0c-0.7-0.2-1.4-0.4-2.1-0.6
				c-0.7-0.2-1.3-0.4-1.8-0.7c-0.6-0.3-1.1-0.6-1.3-1c-0.3-0.4-0.3-0.9-0.2-1.6c0.4-1.9,0.8-4,1.1-6.5c0.4-2.5,0.7-5.1,1-7.8
				c0.3-2.7,0.6-5.4,1-8.1c0.3-2.7,0.6-5.2,1-7.4c0.2-0.9,0.5-1.4,0.9-1.5c0.4-0.2,1-0.1,1.8,0.2c0.9,0.2,1.8,0.6,2.8,1
				c1,0.4,1.8,0.9,2.6,1.4c0.4,0.2,0.7,0.5,1,0.7c0.2,0.2,0.4,0.4,0.5,0.6c0.1,0.2,0.1,0.5,0.1,0.7c0,0.3-0.1,0.6-0.2,0.9
				c-0.4,1.5-0.9,3.3-1.4,5.4c-0.5,2.1-1,4.3-1.5,6.7c1.1-0.1,2.2-0.2,3.3-0.3s2.1-0.2,3.2-0.2c0.7-2.9,1.3-5.7,2-8.5
				c0.6-2.8,1.3-5.4,1.9-7.7c0.2-0.9,0.6-1.4,1-1.5c0.4-0.1,1.1-0.1,1.9,0.2c0.8,0.2,1.6,0.5,2.4,0.9c0.8,0.4,1.6,0.8,2.4,1.3
				c0.7,0.5,1.1,1,1.3,1.3c0.1,0.4,0.1,0.9-0.1,1.6C274.6,75.3,273.9,77.6,273.1,80.1z"/>
			<path class="st6" d="M273.5,95.7c-0.3-1.3-0.4-2.7-0.4-4.3c0-1.6,0.1-3.2,0.3-5s0.5-3.5,0.8-5.3c0.4-1.8,0.7-3.6,1.2-5.4
				c0.4-1.8,0.9-3.6,1.4-5.3c0.2-0.8,0.5-1.3,1-1.4c0.4-0.2,1.1-0.1,1.9,0.2c0.8,0.2,1.6,0.6,2.3,0.9c0.7,0.4,1.5,0.8,2.2,1.3
				c1.5,1.1,2,2.4,1.5,4c-0.4,1.4-0.9,2.9-1.4,4.5c-0.5,1.6-0.9,3.3-1.3,5c-0.4,1.7-0.7,3.3-1,4.9c-0.3,1.6-0.5,3-0.5,4.3
				s0,2.3,0.2,3.2c0.2,0.8,0.6,1.3,1.2,1.5c0.7,0.2,1.4-0.2,2.1-1.1c0.7-0.9,1.4-2.1,2-3.7c0.6-1.6,1.2-3.4,1.8-5.5s1.1-4.2,1.6-6.4
				c0.5-2.2,1-4.4,1.4-6.5s0.8-4,1.1-5.7c0.1-0.8,0.3-1.3,0.9-1.5c0.5-0.2,1.2-0.1,2,0.1c0.8,0.2,1.6,0.5,2.5,1
				c0.9,0.4,1.7,0.9,2.4,1.3c0.4,0.2,0.7,0.5,0.9,0.7s0.3,0.4,0.4,0.6c0.1,0.2,0.1,0.5,0.1,0.7c0,0.3-0.1,0.6-0.2,0.9
				c-0.8,3.9-1.6,7.4-2.4,10.6s-1.7,6.1-2.6,8.6c-0.9,2.5-1.9,4.6-3,6.2c-1.1,1.7-2.3,2.9-3.6,3.6c-0.9,0.5-1.9,0.8-2.8,1
				c-0.9,0.2-2,0.2-3.2,0.1c-2.4-0.2-4.4-0.7-6-1.5c-0.7-0.4-1.3-0.8-1.9-1.3c-0.6-0.5-1.1-1.1-1.5-1.9
				C274.1,98.1,273.7,97,273.5,95.7z"/>
			<path class="st6" d="M332,93.6c0.6,0.9,1.3,1.8,1.9,2.7c0.6,0.9,1.2,1.7,1.8,2.4c0.6,0.7,1.1,1.3,1.5,1.8
				c0.5,0.5,0.6,0.8,0.5,1.1c-0.1,0.3-0.4,0.6-1,0.8c-0.4,0.2-0.8,0.4-1.2,0.5c-0.5,0.1-0.9,0.2-1.4,0.3c-0.7,0.2-1.4,0.2-2.1,0.1
				c-0.7-0.1-1.5-0.6-2.2-1.3c-0.3-0.3-0.7-0.8-1.2-1.3c-0.5-0.6-1.1-1.2-1.7-1.9c-0.6-0.7-1.2-1.5-1.9-2.3
				c-0.7-0.8-1.3-1.6-1.8-2.4c-0.4,1.8-0.7,3.4-0.9,4.9c-0.3,1.5-0.5,2.8-0.7,4c0,0.4-0.1,0.7-0.3,0.8s-0.5,0.2-0.8,0.2
				c-0.4,0-0.8-0.1-1.3-0.2c-0.5-0.1-1-0.3-1.6-0.5c-1.2-0.3-2.1-0.7-2.6-1.2c-0.5-0.5-0.8-1.2-0.7-2.2c0-0.9,0.1-2.2,0.2-3.7
				s0.3-3.2,0.5-5c0.2-1.8,0.5-3.8,0.7-5.8c0.3-2,0.6-4,0.8-5.9c0.3-1.9,0.6-3.8,0.9-5.5c0.3-1.7,0.6-3.2,0.8-4.5
				c0.2-0.8,0.5-1.2,1-1.4c0.4-0.2,1-0.1,1.8,0.1c0.9,0.2,1.8,0.5,2.8,1c1,0.4,1.8,0.9,2.6,1.4c0.4,0.3,0.7,0.5,1,0.7
				c0.2,0.2,0.4,0.4,0.5,0.6c0.1,0.2,0.1,0.5,0.1,0.7c0,0.3-0.1,0.6-0.2,0.9c-0.4,1.4-0.8,2.9-1.2,4.7s-0.8,3.7-1.3,5.8
				c1.1-1.2,2.4-2.6,3.7-4c1.3-1.4,2.6-2.8,3.9-4.2c1.3-1.4,2.4-2.7,3.5-3.9c1.1-1.2,2-2.3,2.7-3.2c0.5-0.6,0.9-0.9,1.3-0.9
				c0.5,0,1,0.2,1.5,0.7c0.6,0.5,1.1,1.1,1.5,1.7s0.8,1.3,1.1,2c0.2,0.6,0.3,1.2,0.2,1.7c-0.1,0.6-0.4,1.3-0.9,2.1
				c-0.6,1-1.4,2.2-2.5,3.4c-1,1.3-2.2,2.5-3.4,3.8c-1.2,1.3-2.5,2.6-3.8,3.9c-1.3,1.3-2.6,2.5-3.8,3.6
				C330.8,91.8,331.4,92.7,332,93.6z"/>
			<path class="st6" d="M369.4,80.1c-0.8,2.5-1.5,5.1-2.2,7.7c-0.7,2.6-1.5,5.3-2.1,7.9c-0.7,2.6-1.3,5-1.8,7.3
				c0,0.4-0.1,0.6-0.3,0.7s-0.5,0.2-0.8,0.2c-0.4,0-0.8-0.1-1.2-0.2c-0.5-0.1-1-0.3-1.5-0.4c-1.1-0.3-2-0.7-2.6-1.2
				s-0.8-1.2-0.6-2.2c0.1-1,0.3-2.1,0.5-3.4c0.2-1.3,0.5-2.7,0.8-4.2c-1.1,0.2-2.2,0.3-3.3,0.5c-1.1,0.1-2.2,0.3-3.3,0.5
				c-0.4,1.9-0.8,3.6-1.1,5.2c-0.3,1.6-0.5,3.1-0.7,4.4c-0.1,0.5-0.3,0.8-0.5,0.9c-0.2,0.1-0.7,0.1-1.4,0c-0.7-0.2-1.4-0.4-2.1-0.6
				c-0.7-0.2-1.3-0.4-1.8-0.7c-0.6-0.3-1.1-0.6-1.3-1c-0.3-0.4-0.3-0.9-0.2-1.6c0.4-1.9,0.8-4,1.1-6.5c0.4-2.5,0.7-5.1,1-7.8
				c0.3-2.7,0.6-5.4,1-8.1c0.3-2.7,0.6-5.2,1-7.4c0.2-0.9,0.5-1.4,0.9-1.5c0.4-0.2,1-0.1,1.8,0.2c0.9,0.2,1.8,0.6,2.8,1
				s1.8,0.9,2.6,1.4c0.4,0.2,0.7,0.5,1,0.7c0.2,0.2,0.4,0.4,0.5,0.6c0.1,0.2,0.1,0.5,0.1,0.7c0,0.3-0.1,0.6-0.2,0.9
				c-0.4,1.5-0.9,3.3-1.4,5.4c-0.5,2.1-1,4.3-1.5,6.7c1.1-0.1,2.2-0.2,3.3-0.3s2.1-0.2,3.2-0.2c0.7-2.9,1.3-5.7,2-8.5
				c0.6-2.8,1.3-5.4,1.9-7.7c0.2-0.9,0.6-1.4,1-1.5c0.4-0.1,1.1-0.1,1.9,0.2c0.8,0.2,1.6,0.5,2.4,0.9s1.6,0.8,2.4,1.3
				c0.7,0.5,1.1,1,1.3,1.3c0.1,0.4,0.1,0.9-0.1,1.6C370.8,75.3,370.1,77.6,369.4,80.1z"/>
			<path class="st6" d="M381.9,96.3c-2,0.3-3.8,0.6-5.3,1c-0.5,1.1-1,2-1.4,2.9s-0.8,1.8-1.2,2.6c-0.2,0.5-0.5,0.7-0.8,0.8
				c-0.3,0.1-0.8,0-1.4-0.2c-0.4-0.1-0.7-0.3-1.2-0.5s-0.8-0.4-1.3-0.6c-0.3-0.2-0.6-0.4-0.8-0.5c-0.2-0.1-0.4-0.3-0.6-0.5
				c-0.1-0.2-0.2-0.5-0.2-0.8c0-0.3,0.1-0.8,0.2-1.4c0.6-1.9,1.5-4,2.5-6.6c1-2.5,2.2-5.1,3.4-7.8s2.4-5.3,3.7-7.9
				c1.3-2.6,2.4-4.9,3.6-6.9c0.4-0.7,0.9-1.3,1.6-1.8c0.6-0.5,1.6-0.6,2.9-0.5c1.1,0.1,2.1,0.1,3,0.3c0.9,0.1,1.7,0.3,2.4,0.4
				c0.7,0.2,1.4,0.3,2,0.5c0.6,0.2,1.2,0.4,1.8,0.5c0.8,0.3,1.4,0.7,1.6,1.2c0.2,0.5,0.3,1.1,0.2,1.9c-0.2,1.9-0.3,4.1-0.4,6.6
				c-0.1,2.5-0.2,5.1-0.2,7.8c-0.1,2.7-0.1,5.4-0.1,8.1c0,2.7,0,5.2,0,7.5c0,0.5-0.1,0.8-0.3,1c-0.2,0.2-0.7,0.3-1.4,0.3
				c-0.7,0-1.3,0-1.9-0.1c-0.6,0-1.2-0.2-1.8-0.4c-0.6-0.2-1.1-0.4-1.4-0.7c-0.3-0.3-0.4-0.8-0.5-1.6c-0.1-0.8-0.2-1.6-0.3-2.6
				c-0.1-0.9-0.2-1.9-0.2-3.1C385.9,95.8,383.9,96.1,381.9,96.3z M383.9,89.4c1.2-0.1,2.5-0.2,3.7-0.3c-0.1-2.2-0.1-4.4-0.1-6.6
				c0-2.2,0-4.4,0-6.5c-1.1,2-2.2,4.1-3.5,6.5c-1.3,2.4-2.5,4.9-3.8,7.4C381.4,89.7,382.7,89.5,383.9,89.4z"/>
			<path class="st6" d="M398.3,94.5c0.5-0.1,1.1-0.1,1.6-0.1c0.5,0,1.1,0.1,1.6,0.3s1,0.4,1.4,0.6c2.3,1.4,4.3,2.3,6,2.8
				s2.9,0.3,3.7-0.3c0.3-0.2,0.4-0.5,0.2-0.8c-0.2-0.3-0.5-0.7-1-1.1c-0.5-0.4-1.1-0.8-1.9-1.3c-0.7-0.5-1.5-1-2.4-1.5
				c-0.8-0.5-1.7-1-2.5-1.6c-0.8-0.6-1.6-1.1-2.3-1.7c-0.8-0.6-1.4-1.3-2-2s-1-1.6-1.4-2.5s-0.5-1.8-0.5-2.8c0-1,0.1-2,0.5-3.2
				c0.2-1,0.7-2,1.2-3.1c0.6-1.1,1.3-2.1,2.1-3.1c0.8-1,1.7-2,2.6-2.8s1.9-1.6,2.9-2.2c0.3-0.2,0.7-0.5,1.3-0.7
				c0.5-0.2,1.1-0.4,1.7-0.5c0.6-0.1,1.3-0.1,2.1-0.1c0.8,0,1.5,0.2,2.3,0.4c1.2,0.4,2.4,1,3.7,1.6c1.2,0.6,2.3,1.3,3.1,2.1
				c0.5,0.5,1,1,1.3,1.5c0.3,0.5,0.5,1,0.6,1.5s0.2,1,0.2,1.4s0,0.9,0,1.3c-0.1,0.7-0.3,1.5-0.4,2.4s-0.4,1.8-0.7,2.7
				c-0.3,0.9-0.5,1.8-0.8,2.6c-0.3,0.8-0.6,1.5-0.9,2.1c-0.3,0.5-0.7,0.9-1,1c-0.3,0.1-0.8,0.1-1.5-0.2c-3.7-1.2-5.4-3-5.1-5.3
				c0.1-0.5,0.2-1,0.3-1.7c0.1-0.6,0.3-1.2,0.4-1.9c0.1-0.6,0.3-1.2,0.4-1.8c0.1-0.6,0.1-1,0.1-1.4c0-0.3-0.2-0.5-0.4-0.6
				s-0.6,0.1-1.1,0.5c-0.5,0.2-1,0.6-1.5,1.1c-0.6,0.5-1.1,1.1-1.6,1.7c-0.5,0.6-0.9,1.3-1.3,2c-0.4,0.7-0.6,1.5-0.8,2.2
				c-0.1,0.7-0.1,1.5,0,2.2c0.2,0.7,0.6,1.4,1.2,1.9c0.8,0.8,1.7,1.5,2.6,2.1c1,0.7,1.9,1.3,2.9,1.9c1,0.6,1.9,1.2,2.7,1.8
				c0.8,0.6,1.6,1.2,2.1,1.9c0.6,0.6,0.9,1.3,1.1,2c0.1,0.7,0,1.5-0.4,2.3c-0.3,0.6-0.6,1.2-1.1,1.8c-0.5,0.7-1.1,1.3-1.9,1.8
				c-0.8,0.6-1.8,1-3,1.4s-2.5,0.6-4.2,0.6c-2.2,0.1-4.3-0.3-6.4-1.2c-2.1-0.8-4.2-2.3-6.4-4.3c-1.2-1-1.8-1.8-1.9-2.3
				c-0.1-0.5,0.2-0.9,0.8-1.2C397.3,94.8,397.8,94.6,398.3,94.5z"/>
		</g>
		<g class="st5">
			<path class="st7" d="M143.6,98.9c-0.3,1.4-0.5,2.8-0.7,4.2c-0.1,0.4-0.3,0.7-0.6,0.8s-0.7,0.1-1.4,0c-0.7-0.2-1.4-0.4-2-0.5
				c-0.7-0.2-1.2-0.4-1.8-0.7s-0.9-0.6-1.2-1.1c-0.3-0.4-0.3-1-0.1-1.7c0.2-0.6,0.5-1.7,0.7-3.3c0.2-1.5,0.4-3.3,0.5-5.2
				s0.3-4,0.5-6.1c0.2-2.1,0.3-4,0.5-5.8s0.3-3.3,0.5-4.5c0.2-1.2,0.4-1.9,0.7-2c1-0.5,2.2-1.1,3.4-1.7c1.2-0.6,2.5-1.1,3.8-1.6
				c1.3-0.5,2.6-0.9,4-1.2c1.3-0.3,2.6-0.5,3.9-0.5c1.2,0,2.4,0.1,3.5,0.4c1.1,0.3,2,0.8,2.8,1.6c0.9,1,1.8,2.1,2.5,3.3
				c0.8,1.2,1.4,2.6,1.8,4.3c0.2,0.8,0.2,1.6,0.1,2.3c-0.1,0.7-0.3,1.4-0.6,2.1c-0.3,0.6-0.7,1.3-1.2,1.9c-0.5,0.6-1,1.2-1.6,1.7
				c-0.9,0.9-2,1.8-3.3,2.7c-1.3,0.9-2.7,1.7-4.2,2.4c-1.5,0.8-3.1,1.4-4.8,2c-1.7,0.6-3.3,1.1-4.9,1.6
				C144.2,96,143.9,97.5,143.6,98.9z M151.3,84.7c1.4-0.9,2.6-1.8,3.5-2.7c0.9-0.9,1.6-1.8,1.9-2.7c0.4-0.9,0.5-1.6,0.2-2.2
				c-0.1-0.3-0.4-0.6-0.9-0.7c-0.5-0.2-1.1-0.2-1.9-0.2c-0.8,0-1.6,0.1-2.6,0.4c-1,0.2-1.9,0.5-2.9,1c-0.4,1.5-0.8,3-1.2,4.5
				c-0.4,1.6-0.8,3.2-1.2,4.9C148.2,86.3,149.9,85.5,151.3,84.7z"/>
			<path class="st7" d="M171.2,70c1.4-0.3,2.9-0.6,4.4-0.9s3.1-0.5,4.8-0.7c1.6-0.2,3.3-0.3,4.9-0.4c1.5,0,2.5,0.6,3,1.8
				c0.4,0.6,0.6,1.2,0.7,1.8c0.1,0.5,0.3,1.1,0.4,1.7c0.1,0.7,0.1,1.2-0.2,1.4c-0.2,0.2-0.7,0.4-1.5,0.5c-1.6,0.2-3.3,0.4-5,0.6
				c-1.7,0.2-3.5,0.4-5.5,0.7c-0.4,1.2-0.8,2.5-1.1,3.8c-0.4,1.3-0.7,2.7-1.2,4.1c0.8-0.1,1.6-0.2,2.4-0.2c0.8-0.1,1.7-0.1,2.6-0.1
				c0.8,0,1.3,0,1.8,0.2c0.4,0.2,0.8,0.5,1.1,1.1c0.3,0.5,0.6,1.1,0.7,1.6c0.2,0.5,0.3,1.1,0.5,1.6c0.2,0.6,0.2,1,0.1,1.3
				c-0.2,0.2-0.6,0.4-1.4,0.6c-1.6,0.3-3.3,0.6-5,0.8c-1.7,0.3-3.3,0.6-4.9,0.9c-0.2,0.9-0.4,1.7-0.6,2.4c-0.2,0.8-0.4,1.5-0.6,2.3
				c1.3-0.2,2.5-0.4,3.6-0.5c1.1-0.1,2.4-0.2,3.7-0.3c0.8-0.1,1.3,0,1.8,0.2c0.4,0.2,0.8,0.5,1.1,1c0.3,0.5,0.6,1,0.7,1.5
				c0.2,0.5,0.4,1,0.6,1.4c0.1,0.5,0.1,0.9,0,1.1c-0.1,0.2-0.6,0.4-1.3,0.5c-1.7,0.3-3.5,0.7-5.3,1c-1.8,0.4-3.5,0.7-5.1,1
				c-1.1,0.3-1.9,0.3-2.4,0.2c-0.6-0.1-1-0.4-1.4-0.6c-0.5-0.3-0.9-0.6-1.3-0.9c-0.4-0.3-0.9-0.7-1.5-1.2c-0.5-0.4-0.8-0.8-1.1-1.3
				c-0.3-0.5-0.4-1.1-0.3-1.9l3.8-26.9C168.5,70.6,169.8,70.3,171.2,70z"/>
			<path class="st7" d="M195.3,98.4c-0.3,1.5-0.6,3-0.9,4.4c-0.1,0.4-0.3,0.7-0.5,0.8c-0.2,0.1-0.7,0.1-1.3,0
				c-0.7-0.2-1.4-0.3-1.9-0.4c-0.6-0.1-1.1-0.3-1.6-0.6c-0.5-0.3-0.9-0.7-1.1-1.1c-0.2-0.4-0.3-1-0.2-1.7c0.1-0.6,0.1-1.4,0.2-2.5
				c0.1-1.1,0.2-2.3,0.3-3.7c0.1-1.4,0.3-2.8,0.5-4.4c0.2-1.6,0.4-3.1,0.6-4.7c0.2-1.6,0.4-3.1,0.7-4.5c0.2-1.5,0.5-2.8,0.8-4
				c0.3-1.2,0.6-2.1,0.9-2.9c0.3-0.8,0.7-1.2,1-1.4c1.7-0.8,3.4-1.5,5.2-2.2s3.6-1.2,5.4-1.6c1.8-0.3,3.4-0.3,5-0.1
				c1.6,0.3,3,1,4.1,2.1c0.9,1,1.8,2.1,2.6,3.3c0.8,1.2,1.4,2.6,1.8,4.3c0.4,1.8,0.2,3.3-0.4,4.4c-0.9,1.9-2.5,3.6-4.7,5.1
				c-2.2,1.6-4.8,3-7.8,4.4c0.6,0.7,1.3,1.4,2,2.2c0.7,0.8,1.5,1.6,2.3,2.3c0.8,0.8,1.6,1.5,2.3,2.3c0.8,0.7,1.5,1.4,2.2,1.9
				c0.5,0.5,0.8,0.8,0.7,1.1c-0.1,0.3-0.3,0.6-0.7,0.8c-0.5,0.4-0.9,0.6-1.2,0.7c-0.3,0.1-0.7,0.1-1.2,0.2c-0.6,0.2-1.2,0.2-2,0.1
				c-0.7-0.1-1.5-0.4-2.5-1c-0.6-0.4-1.3-1-2.1-1.6c-0.8-0.6-1.6-1.4-2.5-2.1c-0.9-0.8-1.7-1.6-2.6-2.4c-0.9-0.8-1.6-1.7-2.3-2.6
				C196,95.3,195.6,96.9,195.3,98.4z M199.4,81.7c-0.4,1.6-0.9,3.2-1.4,5c1.9-0.6,3.5-1.4,5-2.3c1.4-0.9,2.6-1.8,3.6-2.8
				c1-0.9,1.7-1.8,2.1-2.6c0.4-0.8,0.6-1.5,0.4-1.9c-0.3-0.8-1.3-1.1-2.9-1.1c-0.8,0-1.6,0.1-2.6,0.3c-0.9,0.2-1.9,0.5-3,1.1
				C200.3,78.7,199.8,80.1,199.4,81.7z"/>
			<path class="st7" d="M229.3,96.3c-2,0.3-3.8,0.6-5.3,1c-0.5,1.1-1,2-1.4,2.9s-0.8,1.8-1.2,2.6c-0.2,0.5-0.5,0.7-0.8,0.8
				c-0.3,0.1-0.8,0-1.4-0.2c-0.4-0.1-0.7-0.3-1.2-0.5c-0.4-0.2-0.8-0.4-1.3-0.6c-0.3-0.2-0.6-0.4-0.8-0.5c-0.2-0.1-0.4-0.3-0.6-0.5
				c-0.1-0.2-0.2-0.5-0.2-0.8c0-0.3,0.1-0.8,0.2-1.4c0.6-1.9,1.5-4,2.5-6.6c1-2.5,2.2-5.1,3.4-7.8c1.2-2.7,2.4-5.3,3.7-7.9
				c1.3-2.6,2.4-4.9,3.6-6.9c0.4-0.7,0.9-1.3,1.6-1.8c0.6-0.5,1.6-0.6,2.9-0.5c1.1,0.1,2.1,0.1,3,0.3c0.9,0.1,1.7,0.3,2.4,0.4
				c0.7,0.2,1.4,0.3,2,0.5c0.6,0.2,1.2,0.4,1.8,0.5c0.8,0.3,1.4,0.7,1.6,1.2c0.2,0.5,0.3,1.1,0.2,1.9c-0.2,1.9-0.3,4.1-0.4,6.6
				c-0.1,2.5-0.2,5.1-0.2,7.8c-0.1,2.7-0.1,5.4-0.1,8.1c0,2.7,0,5.2,0,7.5c0,0.5-0.1,0.8-0.3,1c-0.2,0.2-0.7,0.3-1.4,0.3
				c-0.7,0-1.3,0-1.9-0.1c-0.6,0-1.2-0.2-1.8-0.4c-0.6-0.2-1.1-0.4-1.4-0.7c-0.3-0.3-0.4-0.8-0.5-1.6c-0.1-0.8-0.2-1.6-0.3-2.6
				c-0.1-0.9-0.2-1.9-0.2-3.1C233.3,95.8,231.3,96.1,229.3,96.3z M231.2,89.4c1.2-0.1,2.5-0.2,3.7-0.3c-0.1-2.2-0.1-4.4-0.1-6.6
				c0-2.2,0-4.4,0-6.5c-1.1,2-2.2,4.1-3.5,6.5c-1.3,2.4-2.5,4.9-3.8,7.4C228.8,89.7,230,89.5,231.2,89.4z"/>
			<path class="st7" d="M273.1,80.1c-0.8,2.5-1.5,5.1-2.2,7.7c-0.7,2.6-1.5,5.3-2.1,7.9c-0.7,2.6-1.3,5-1.8,7.3
				c0,0.4-0.1,0.6-0.3,0.7s-0.5,0.2-0.8,0.2c-0.4,0-0.8-0.1-1.2-0.2c-0.5-0.1-1-0.3-1.5-0.4c-1.1-0.3-2-0.7-2.6-1.2
				c-0.6-0.5-0.8-1.2-0.6-2.2c0.1-1,0.3-2.1,0.5-3.4c0.2-1.3,0.5-2.7,0.8-4.2c-1.1,0.2-2.2,0.3-3.3,0.5c-1.1,0.1-2.2,0.3-3.3,0.5
				c-0.4,1.9-0.8,3.6-1.1,5.2c-0.3,1.6-0.5,3.1-0.7,4.4c-0.1,0.5-0.3,0.8-0.5,0.9c-0.2,0.1-0.7,0.1-1.4,0c-0.7-0.2-1.4-0.4-2.1-0.6
				c-0.7-0.2-1.3-0.4-1.8-0.7c-0.6-0.3-1.1-0.6-1.3-1c-0.3-0.4-0.3-0.9-0.2-1.6c0.4-1.9,0.8-4,1.1-6.5c0.4-2.5,0.7-5.1,1-7.8
				c0.3-2.7,0.6-5.4,1-8.1c0.3-2.7,0.6-5.2,1-7.4c0.2-0.9,0.5-1.4,0.9-1.5c0.4-0.2,1-0.1,1.8,0.2c0.9,0.2,1.8,0.6,2.8,1
				c1,0.4,1.8,0.9,2.6,1.4c0.4,0.2,0.7,0.5,1,0.7c0.2,0.2,0.4,0.4,0.5,0.6c0.1,0.2,0.1,0.5,0.1,0.7c0,0.3-0.1,0.6-0.2,0.9
				c-0.4,1.5-0.9,3.3-1.4,5.4c-0.5,2.1-1,4.3-1.5,6.7c1.1-0.1,2.2-0.2,3.3-0.3s2.1-0.2,3.2-0.2c0.7-2.9,1.3-5.7,2-8.5
				c0.6-2.8,1.3-5.4,1.9-7.7c0.2-0.9,0.6-1.4,1-1.5c0.4-0.1,1.1-0.1,1.9,0.2c0.8,0.2,1.6,0.5,2.4,0.9c0.8,0.4,1.6,0.8,2.4,1.3
				c0.7,0.5,1.1,1,1.3,1.3c0.1,0.4,0.1,0.9-0.1,1.6C274.6,75.3,273.9,77.6,273.1,80.1z"/>
			<path class="st7" d="M273.5,95.7c-0.3-1.3-0.4-2.7-0.4-4.3c0-1.6,0.1-3.2,0.3-5s0.5-3.5,0.8-5.3c0.4-1.8,0.7-3.6,1.2-5.4
				c0.4-1.8,0.9-3.6,1.4-5.3c0.2-0.8,0.5-1.3,1-1.4c0.4-0.2,1.1-0.1,1.9,0.2c0.8,0.2,1.6,0.6,2.3,0.9c0.7,0.4,1.5,0.8,2.2,1.3
				c1.5,1.1,2,2.4,1.5,4c-0.4,1.4-0.9,2.9-1.4,4.5c-0.5,1.6-0.9,3.3-1.3,5c-0.4,1.7-0.7,3.3-1,4.9c-0.3,1.6-0.5,3-0.5,4.3
				s0,2.3,0.2,3.2c0.2,0.8,0.6,1.3,1.2,1.5c0.7,0.2,1.4-0.2,2.1-1.1c0.7-0.9,1.4-2.1,2-3.7c0.6-1.6,1.2-3.4,1.8-5.5s1.1-4.2,1.6-6.4
				c0.5-2.2,1-4.4,1.4-6.5s0.8-4,1.1-5.7c0.1-0.8,0.3-1.3,0.9-1.5c0.5-0.2,1.2-0.1,2,0.1c0.8,0.2,1.6,0.5,2.5,1
				c0.9,0.4,1.7,0.9,2.4,1.3c0.4,0.2,0.7,0.5,0.9,0.7s0.3,0.4,0.4,0.6c0.1,0.2,0.1,0.5,0.1,0.7c0,0.3-0.1,0.6-0.2,0.9
				c-0.8,3.9-1.6,7.4-2.4,10.6s-1.7,6.1-2.6,8.6c-0.9,2.5-1.9,4.6-3,6.2c-1.1,1.7-2.3,2.9-3.6,3.6c-0.9,0.5-1.9,0.8-2.8,1
				c-0.9,0.2-2,0.2-3.2,0.1c-2.4-0.2-4.4-0.7-6-1.5c-0.7-0.4-1.3-0.8-1.9-1.3c-0.6-0.5-1.1-1.1-1.5-1.9
				C274.1,98.1,273.7,97,273.5,95.7z"/>
			<path class="st7" d="M332,93.6c0.6,0.9,1.3,1.8,1.9,2.7c0.6,0.9,1.2,1.7,1.8,2.4c0.6,0.7,1.1,1.3,1.5,1.8
				c0.5,0.5,0.6,0.8,0.5,1.1c-0.1,0.3-0.4,0.6-1,0.8c-0.4,0.2-0.8,0.4-1.2,0.5c-0.5,0.1-0.9,0.2-1.4,0.3c-0.7,0.2-1.4,0.2-2.1,0.1
				c-0.7-0.1-1.5-0.6-2.2-1.3c-0.3-0.3-0.7-0.8-1.2-1.3c-0.5-0.6-1.1-1.2-1.7-1.9c-0.6-0.7-1.2-1.5-1.9-2.3
				c-0.7-0.8-1.3-1.6-1.8-2.4c-0.4,1.8-0.7,3.4-0.9,4.9c-0.3,1.5-0.5,2.8-0.7,4c0,0.4-0.1,0.7-0.3,0.8s-0.5,0.2-0.8,0.2
				c-0.4,0-0.8-0.1-1.3-0.2c-0.5-0.1-1-0.3-1.6-0.5c-1.2-0.3-2.1-0.7-2.6-1.2c-0.5-0.5-0.8-1.2-0.7-2.2c0-0.9,0.1-2.2,0.2-3.7
				s0.3-3.2,0.5-5c0.2-1.8,0.5-3.8,0.7-5.8c0.3-2,0.6-4,0.8-5.9c0.3-1.9,0.6-3.8,0.9-5.5c0.3-1.7,0.6-3.2,0.8-4.5
				c0.2-0.8,0.5-1.2,1-1.4c0.4-0.2,1-0.1,1.8,0.1c0.9,0.2,1.8,0.5,2.8,1c1,0.4,1.8,0.9,2.6,1.4c0.4,0.3,0.7,0.5,1,0.7
				c0.2,0.2,0.4,0.4,0.5,0.6c0.1,0.2,0.1,0.5,0.1,0.7c0,0.3-0.1,0.6-0.2,0.9c-0.4,1.4-0.8,2.9-1.2,4.7s-0.8,3.7-1.3,5.8
				c1.1-1.2,2.4-2.6,3.7-4c1.3-1.4,2.6-2.8,3.9-4.2c1.3-1.4,2.4-2.7,3.5-3.9c1.1-1.2,2-2.3,2.7-3.2c0.5-0.6,0.9-0.9,1.3-0.9
				c0.5,0,1,0.2,1.5,0.7c0.6,0.5,1.1,1.1,1.5,1.7s0.8,1.3,1.1,2c0.2,0.6,0.3,1.2,0.2,1.7c-0.1,0.6-0.4,1.3-0.9,2.1
				c-0.6,1-1.4,2.2-2.5,3.4c-1,1.3-2.2,2.5-3.4,3.8c-1.2,1.3-2.5,2.6-3.8,3.9c-1.3,1.3-2.6,2.5-3.8,3.6
				C330.8,91.8,331.4,92.7,332,93.6z"/>
			<path class="st7" d="M369.4,80.1c-0.8,2.5-1.5,5.1-2.2,7.7c-0.7,2.6-1.5,5.3-2.1,7.9c-0.7,2.6-1.3,5-1.8,7.3
				c0,0.4-0.1,0.6-0.3,0.7s-0.5,0.2-0.8,0.2c-0.4,0-0.8-0.1-1.2-0.2c-0.5-0.1-1-0.3-1.5-0.4c-1.1-0.3-2-0.7-2.6-1.2
				s-0.8-1.2-0.6-2.2c0.1-1,0.3-2.1,0.5-3.4c0.2-1.3,0.5-2.7,0.8-4.2c-1.1,0.2-2.2,0.3-3.3,0.5c-1.1,0.1-2.2,0.3-3.3,0.5
				c-0.4,1.9-0.8,3.6-1.1,5.2c-0.3,1.6-0.5,3.1-0.7,4.4c-0.1,0.5-0.3,0.8-0.5,0.9c-0.2,0.1-0.7,0.1-1.4,0c-0.7-0.2-1.4-0.4-2.1-0.6
				c-0.7-0.2-1.3-0.4-1.8-0.7c-0.6-0.3-1.1-0.6-1.3-1c-0.3-0.4-0.3-0.9-0.2-1.6c0.4-1.9,0.8-4,1.1-6.5c0.4-2.5,0.7-5.1,1-7.8
				c0.3-2.7,0.6-5.4,1-8.1c0.3-2.7,0.6-5.2,1-7.4c0.2-0.9,0.5-1.4,0.9-1.5c0.4-0.2,1-0.1,1.8,0.2c0.9,0.2,1.8,0.6,2.8,1
				s1.8,0.9,2.6,1.4c0.4,0.2,0.7,0.5,1,0.7c0.2,0.2,0.4,0.4,0.5,0.6c0.1,0.2,0.1,0.5,0.1,0.7c0,0.3-0.1,0.6-0.2,0.9
				c-0.4,1.5-0.9,3.3-1.4,5.4c-0.5,2.1-1,4.3-1.5,6.7c1.1-0.1,2.2-0.2,3.3-0.3s2.1-0.2,3.2-0.2c0.7-2.9,1.3-5.7,2-8.5
				c0.6-2.8,1.3-5.4,1.9-7.7c0.2-0.9,0.6-1.4,1-1.5c0.4-0.1,1.1-0.1,1.9,0.2c0.8,0.2,1.6,0.5,2.4,0.9s1.6,0.8,2.4,1.3
				c0.7,0.5,1.1,1,1.3,1.3c0.1,0.4,0.1,0.9-0.1,1.6C370.8,75.3,370.1,77.6,369.4,80.1z"/>
			<path class="st7" d="M381.9,96.3c-2,0.3-3.8,0.6-5.3,1c-0.5,1.1-1,2-1.4,2.9s-0.8,1.8-1.2,2.6c-0.2,0.5-0.5,0.7-0.8,0.8
				c-0.3,0.1-0.8,0-1.4-0.2c-0.4-0.1-0.7-0.3-1.2-0.5s-0.8-0.4-1.3-0.6c-0.3-0.2-0.6-0.4-0.8-0.5c-0.2-0.1-0.4-0.3-0.6-0.5
				c-0.1-0.2-0.2-0.5-0.2-0.8c0-0.3,0.1-0.8,0.2-1.4c0.6-1.9,1.5-4,2.5-6.6c1-2.5,2.2-5.1,3.4-7.8s2.4-5.3,3.7-7.9
				c1.3-2.6,2.4-4.9,3.6-6.9c0.4-0.7,0.9-1.3,1.6-1.8c0.6-0.5,1.6-0.6,2.9-0.5c1.1,0.1,2.1,0.1,3,0.3c0.9,0.1,1.7,0.3,2.4,0.4
				c0.7,0.2,1.4,0.3,2,0.5c0.6,0.2,1.2,0.4,1.8,0.5c0.8,0.3,1.4,0.7,1.6,1.2c0.2,0.5,0.3,1.1,0.2,1.9c-0.2,1.9-0.3,4.1-0.4,6.6
				c-0.1,2.5-0.2,5.1-0.2,7.8c-0.1,2.7-0.1,5.4-0.1,8.1c0,2.7,0,5.2,0,7.5c0,0.5-0.1,0.8-0.3,1c-0.2,0.2-0.7,0.3-1.4,0.3
				c-0.7,0-1.3,0-1.9-0.1c-0.6,0-1.2-0.2-1.8-0.4c-0.6-0.2-1.1-0.4-1.4-0.7c-0.3-0.3-0.4-0.8-0.5-1.6c-0.1-0.8-0.2-1.6-0.3-2.6
				c-0.1-0.9-0.2-1.9-0.2-3.1C385.9,95.8,383.9,96.1,381.9,96.3z M383.9,89.4c1.2-0.1,2.5-0.2,3.7-0.3c-0.1-2.2-0.1-4.4-0.1-6.6
				c0-2.2,0-4.4,0-6.5c-1.1,2-2.2,4.1-3.5,6.5c-1.3,2.4-2.5,4.9-3.8,7.4C381.4,89.7,382.7,89.5,383.9,89.4z"/>
			<path class="st7" d="M398.3,94.5c0.5-0.1,1.1-0.1,1.6-0.1c0.5,0,1.1,0.1,1.6,0.3s1,0.4,1.4,0.6c2.3,1.4,4.3,2.3,6,2.8
				s2.9,0.3,3.7-0.3c0.3-0.2,0.4-0.5,0.2-0.8c-0.2-0.3-0.5-0.7-1-1.1c-0.5-0.4-1.1-0.8-1.9-1.3c-0.7-0.5-1.5-1-2.4-1.5
				c-0.8-0.5-1.7-1-2.5-1.6c-0.8-0.6-1.6-1.1-2.3-1.7c-0.8-0.6-1.4-1.3-2-2s-1-1.6-1.4-2.5s-0.5-1.8-0.5-2.8c0-1,0.1-2,0.5-3.2
				c0.2-1,0.7-2,1.2-3.1c0.6-1.1,1.3-2.1,2.1-3.1c0.8-1,1.7-2,2.6-2.8s1.9-1.6,2.9-2.2c0.3-0.2,0.7-0.5,1.3-0.7
				c0.5-0.2,1.1-0.4,1.7-0.5c0.6-0.1,1.3-0.1,2.1-0.1c0.8,0,1.5,0.2,2.3,0.4c1.2,0.4,2.4,1,3.7,1.6c1.2,0.6,2.3,1.3,3.1,2.1
				c0.5,0.5,1,1,1.3,1.5c0.3,0.5,0.5,1,0.6,1.5s0.2,1,0.2,1.4s0,0.9,0,1.3c-0.1,0.7-0.3,1.5-0.4,2.4s-0.4,1.8-0.7,2.7
				c-0.3,0.9-0.5,1.8-0.8,2.6c-0.3,0.8-0.6,1.5-0.9,2.1c-0.3,0.5-0.7,0.9-1,1c-0.3,0.1-0.8,0.1-1.5-0.2c-3.7-1.2-5.4-3-5.1-5.3
				c0.1-0.5,0.2-1,0.3-1.7c0.1-0.6,0.3-1.2,0.4-1.9c0.1-0.6,0.3-1.2,0.4-1.8c0.1-0.6,0.1-1,0.1-1.4c0-0.3-0.2-0.5-0.4-0.6
				s-0.6,0.1-1.1,0.5c-0.5,0.2-1,0.6-1.5,1.1c-0.6,0.5-1.1,1.1-1.6,1.7c-0.5,0.6-0.9,1.3-1.3,2c-0.4,0.7-0.6,1.5-0.8,2.2
				c-0.1,0.7-0.1,1.5,0,2.2c0.2,0.7,0.6,1.4,1.2,1.9c0.8,0.8,1.7,1.5,2.6,2.1c1,0.7,1.9,1.3,2.9,1.9c1,0.6,1.9,1.2,2.7,1.8
				c0.8,0.6,1.6,1.2,2.1,1.9c0.6,0.6,0.9,1.3,1.1,2c0.1,0.7,0,1.5-0.4,2.3c-0.3,0.6-0.6,1.2-1.1,1.8c-0.5,0.7-1.1,1.3-1.9,1.8
				c-0.8,0.6-1.8,1-3,1.4s-2.5,0.6-4.2,0.6c-2.2,0.1-4.3-0.3-6.4-1.2c-2.1-0.8-4.2-2.3-6.4-4.3c-1.2-1-1.8-1.8-1.9-2.3
				c-0.1-0.5,0.2-0.9,0.8-1.2C397.3,94.8,397.8,94.6,398.3,94.5z"/>
		</g>
		<g class="st5">
			<path class="st6" d="M172.7,128c0.8-3.4,1.6-6.6,2.4-9.5c0.2-0.8,0.5-1.3,1-1.5s1.1-0.2,2,0c0.4,0.1,0.8,0.2,1.1,0.3
				c0.3,0.1,0.6,0.2,1,0.3c0.3,0.1,0.6,0.3,1,0.5c0.4,0.2,0.8,0.4,1.2,0.7c0.8,0.5,1.2,1,1.3,1.5c0.1,0.5,0,1.1-0.2,1.8
				c-0.6,2-1.3,4.3-1.9,6.8s-1.3,5.1-2,7.7c-0.7,2.6-1.3,5.2-1.9,7.7c-0.6,2.5-1.1,4.7-1.6,6.6c-0.2,1-1,1.4-2.4,1.1
				c-1.2-0.2-2.5-0.6-3.8-1.1c-1.2-0.5-2-1.3-2.5-2.4c-0.4-0.8-0.8-1.8-1.2-2.9c-0.4-1.1-0.8-2.3-1.2-3.6c-0.4-1.3-0.8-2.6-1.2-4
				c-0.4-1.4-0.8-2.8-1.1-4.2c-0.3,1.7-0.6,3.3-0.9,5c-0.3,1.7-0.6,3.3-0.9,4.8c-0.3,1.5-0.5,2.9-0.8,4.2c-0.2,1.3-0.4,2.4-0.5,3.4
				c-0.1,0.5-0.3,0.7-0.5,0.9s-0.7,0.1-1.4-0.1c-0.6-0.2-1.3-0.3-2-0.5s-1.3-0.5-1.9-0.8c-0.6-0.3-1-0.6-1.2-1
				c-0.2-0.4-0.3-0.9-0.2-1.6c0.1-0.7,0.1-1.8,0.3-3.1c0.1-1.3,0.3-2.9,0.5-4.6c0.2-1.7,0.4-3.5,0.7-5.5c0.3-2,0.5-3.9,0.8-5.8
				c0.3-1.9,0.6-3.8,0.9-5.6c0.3-1.8,0.6-3.4,0.9-4.8c0.2-0.8,0.5-1.3,1-1.5s1.1-0.2,2,0c1,0.3,2,0.6,2.9,0.9c0.9,0.3,1.9,0.7,3,1.2
				c0.8,0.4,1.4,0.8,1.8,1.3c0.3,0.5,0.6,1.3,0.8,2.3c0.1,0.8,0.3,1.8,0.5,3c0.2,1.2,0.5,2.5,0.7,3.9c0.3,1.4,0.6,2.9,0.8,4.4
				c0.3,1.5,0.6,2.9,0.9,4.3C171.3,134.9,171.9,131.5,172.7,128z"/>
			<path class="st6" d="M181.8,144.2c-0.3-1.3-0.4-2.7-0.4-4.3c0-1.6,0.1-3.2,0.3-5s0.5-3.5,0.8-5.3c0.4-1.8,0.7-3.6,1.2-5.4
				c0.4-1.8,0.9-3.6,1.4-5.3c0.2-0.8,0.5-1.3,1-1.4c0.4-0.2,1.1-0.1,1.9,0.2c0.8,0.2,1.6,0.6,2.3,0.9c0.7,0.4,1.5,0.8,2.2,1.3
				c1.5,1.1,2,2.4,1.5,4c-0.4,1.4-0.9,2.9-1.4,4.5c-0.5,1.6-0.9,3.3-1.3,5c-0.4,1.7-0.7,3.3-1,4.9c-0.3,1.6-0.5,3-0.5,4.3
				s0,2.3,0.2,3.2c0.2,0.8,0.6,1.3,1.2,1.5c0.7,0.2,1.4-0.2,2.1-1.1c0.7-0.9,1.4-2.1,2-3.7c0.6-1.6,1.2-3.4,1.8-5.5
				c0.6-2.1,1.1-4.2,1.6-6.4c0.5-2.2,1-4.4,1.4-6.5s0.8-4,1.1-5.7c0.1-0.8,0.4-1.3,0.9-1.5c0.5-0.2,1.2-0.1,2,0.1
				c0.8,0.2,1.6,0.5,2.5,1c0.9,0.4,1.7,0.9,2.4,1.3c0.4,0.2,0.7,0.5,0.9,0.7s0.3,0.4,0.4,0.6c0.1,0.2,0.1,0.5,0.1,0.7
				c0,0.3-0.1,0.6-0.2,0.9c-0.8,3.9-1.6,7.4-2.4,10.6c-0.8,3.2-1.7,6.1-2.6,8.6c-0.9,2.5-1.9,4.6-3,6.2c-1.1,1.7-2.3,2.9-3.6,3.6
				c-0.9,0.5-1.9,0.8-2.8,1c-0.9,0.2-2,0.2-3.2,0.1c-2.4-0.2-4.4-0.7-6-1.5c-0.7-0.4-1.3-0.8-1.9-1.3c-0.6-0.5-1.1-1.1-1.5-1.9
				C182.5,146.6,182.1,145.5,181.8,144.2z"/>
			<path class="st6" d="M208.8,143.1c0.5-0.1,1.1-0.1,1.6-0.1c0.5,0,1.1,0.1,1.6,0.3c0.5,0.1,1,0.4,1.4,0.6c2.3,1.4,4.3,2.3,6,2.8
				c1.7,0.4,2.9,0.3,3.7-0.3c0.3-0.2,0.4-0.5,0.2-0.8c-0.2-0.3-0.5-0.7-1-1.1c-0.5-0.4-1.1-0.8-1.9-1.3c-0.7-0.5-1.5-1-2.4-1.5
				c-0.8-0.5-1.7-1-2.5-1.6c-0.8-0.6-1.6-1.1-2.3-1.7c-0.8-0.6-1.4-1.3-2-2c-0.6-0.8-1-1.6-1.4-2.5c-0.3-0.9-0.5-1.8-0.5-2.8
				s0.1-2,0.5-3.2c0.2-1,0.7-2,1.2-3.1c0.6-1.1,1.3-2.1,2.1-3.1c0.8-1,1.7-2,2.6-2.8c1-0.9,1.9-1.6,2.9-2.2c0.3-0.2,0.7-0.5,1.3-0.7
				c0.5-0.2,1.1-0.4,1.7-0.5c0.6-0.1,1.3-0.1,2.1-0.1c0.8,0,1.5,0.2,2.3,0.4c1.2,0.4,2.4,1,3.7,1.6c1.2,0.6,2.3,1.3,3.1,2.1
				c0.5,0.5,1,1,1.3,1.5c0.3,0.5,0.5,1,0.6,1.5c0.1,0.5,0.2,1,0.2,1.4c0,0.5,0,0.9,0,1.3c-0.1,0.7-0.3,1.5-0.4,2.4
				c-0.2,0.9-0.4,1.8-0.7,2.7c-0.3,0.9-0.5,1.8-0.8,2.6c-0.3,0.8-0.6,1.5-0.9,2.1c-0.3,0.5-0.7,0.9-1,1c-0.3,0.1-0.8,0.1-1.5-0.2
				c-3.7-1.2-5.4-3-5.1-5.3c0.1-0.5,0.2-1,0.3-1.7c0.1-0.6,0.3-1.2,0.4-1.9c0.1-0.6,0.3-1.2,0.4-1.8c0.1-0.6,0.1-1,0.1-1.4
				c0-0.3-0.2-0.5-0.4-0.6c-0.2-0.1-0.6,0.1-1.1,0.5c-0.5,0.2-1,0.6-1.5,1.1c-0.6,0.5-1.1,1.1-1.6,1.7c-0.5,0.6-0.9,1.3-1.3,2
				c-0.4,0.7-0.6,1.5-0.8,2.2c-0.1,0.7-0.1,1.5,0,2.2c0.2,0.7,0.6,1.4,1.2,1.9c0.8,0.8,1.7,1.5,2.6,2.1c1,0.7,1.9,1.3,2.9,1.9
				c1,0.6,1.9,1.2,2.7,1.8c0.8,0.6,1.6,1.2,2.1,1.9c0.6,0.6,0.9,1.3,1.1,2c0.1,0.7,0,1.5-0.4,2.3c-0.3,0.6-0.6,1.2-1.1,1.8
				c-0.5,0.7-1.1,1.3-1.9,1.8c-0.8,0.6-1.8,1-3,1.4s-2.5,0.6-4.2,0.6c-2.2,0.1-4.3-0.3-6.4-1.2c-2.1-0.8-4.2-2.3-6.4-4.3
				c-1.2-1-1.8-1.8-1.9-2.3c-0.1-0.5,0.2-0.9,0.8-1.2C207.7,143.3,208.2,143.2,208.8,143.1z"/>
			<path class="st6" d="M245.7,144.9c-2,0.3-3.8,0.6-5.3,1c-0.5,1.1-1,2-1.4,2.9s-0.8,1.8-1.2,2.6c-0.2,0.5-0.5,0.7-0.8,0.8
				c-0.3,0.1-0.8,0-1.4-0.2c-0.4-0.1-0.7-0.3-1.2-0.5c-0.4-0.2-0.8-0.4-1.3-0.6c-0.3-0.2-0.6-0.4-0.8-0.5c-0.2-0.1-0.4-0.3-0.6-0.5
				c-0.1-0.2-0.2-0.5-0.2-0.8c0-0.3,0.1-0.8,0.2-1.4c0.6-1.9,1.5-4,2.5-6.6c1-2.5,2.2-5.1,3.4-7.8c1.2-2.7,2.4-5.3,3.7-7.9
				c1.3-2.6,2.4-4.9,3.6-6.9c0.4-0.7,0.9-1.3,1.6-1.8c0.6-0.5,1.6-0.6,2.9-0.5c1.1,0.1,2.1,0.1,3,0.3c0.9,0.1,1.7,0.3,2.4,0.4
				c0.7,0.2,1.4,0.3,2,0.5c0.6,0.2,1.2,0.4,1.8,0.5c0.8,0.3,1.4,0.7,1.6,1.2c0.2,0.5,0.3,1.1,0.2,1.9c-0.2,1.9-0.3,4.1-0.4,6.6
				c-0.1,2.5-0.2,5.1-0.2,7.8c-0.1,2.7-0.1,5.4-0.1,8.1c0,2.7,0,5.2,0,7.5c0,0.5-0.1,0.8-0.3,1c-0.2,0.2-0.7,0.3-1.4,0.3
				c-0.7,0-1.3,0-1.9-0.1c-0.6,0-1.2-0.2-1.8-0.4c-0.6-0.2-1.1-0.4-1.4-0.7c-0.3-0.3-0.4-0.8-0.5-1.6c-0.1-0.8-0.2-1.6-0.3-2.6
				c-0.1-0.9-0.2-1.9-0.2-3.1C249.7,144.3,247.7,144.6,245.7,144.9z M247.7,137.9c1.2-0.1,2.5-0.2,3.7-0.3c-0.1-2.2-0.1-4.4-0.1-6.6
				c0-2.2,0-4.4,0-6.5c-1.1,2-2.2,4.1-3.5,6.5c-1.3,2.4-2.5,4.9-3.8,7.4C245.2,138.2,246.5,138,247.7,137.9z"/>
			<path class="st6" d="M281.8,128c0.8-3.4,1.6-6.6,2.4-9.5c0.2-0.8,0.5-1.3,1-1.5c0.4-0.2,1.1-0.2,2,0c0.4,0.1,0.8,0.2,1.1,0.3
				s0.6,0.2,1,0.3s0.6,0.3,1,0.5c0.3,0.2,0.8,0.4,1.2,0.7c0.8,0.5,1.2,1,1.3,1.5c0.1,0.5,0,1.1-0.2,1.8c-0.6,2-1.3,4.3-1.9,6.8
				s-1.3,5.1-2,7.7c-0.7,2.6-1.3,5.2-1.9,7.7c-0.6,2.5-1.1,4.7-1.6,6.6c-0.2,1-1,1.4-2.4,1.1c-1.2-0.2-2.5-0.6-3.8-1.1
				c-1.2-0.5-2-1.3-2.5-2.4c-0.4-0.8-0.8-1.8-1.2-2.9c-0.4-1.1-0.8-2.3-1.2-3.6c-0.4-1.3-0.8-2.6-1.2-4c-0.4-1.4-0.8-2.8-1.1-4.2
				c-0.3,1.7-0.6,3.3-0.9,5c-0.3,1.7-0.6,3.3-0.9,4.8c-0.3,1.5-0.5,2.9-0.8,4.2c-0.2,1.3-0.4,2.4-0.5,3.4c-0.1,0.5-0.3,0.7-0.5,0.9
				s-0.7,0.1-1.4-0.1c-0.6-0.2-1.3-0.3-2-0.5s-1.3-0.5-1.9-0.8c-0.6-0.3-1-0.6-1.2-1c-0.2-0.4-0.3-0.9-0.2-1.6
				c0.1-0.7,0.1-1.8,0.3-3.1c0.1-1.3,0.3-2.9,0.5-4.6c0.2-1.7,0.4-3.5,0.7-5.5c0.3-2,0.5-3.9,0.8-5.8c0.3-1.9,0.6-3.8,0.9-5.6
				c0.3-1.8,0.6-3.4,0.9-4.8c0.2-0.8,0.5-1.3,1-1.5s1.1-0.2,2,0c1,0.3,2,0.6,2.9,0.9c0.9,0.3,1.9,0.7,3,1.2c0.8,0.4,1.4,0.8,1.8,1.3
				c0.3,0.5,0.6,1.3,0.8,2.3c0.1,0.8,0.3,1.8,0.5,3c0.2,1.2,0.5,2.5,0.7,3.9c0.3,1.4,0.6,2.9,0.8,4.4c0.3,1.5,0.6,2.9,0.9,4.3
				C280.3,134.9,281,131.5,281.8,128z"/>
			<path class="st6" d="M314.8,123.6c-1.2,0.1-2.5,0.2-3.8,0.4c-0.6,2.3-1.2,4.6-1.8,7c-0.6,2.4-1.2,4.8-1.8,7.2
				c-0.6,2.4-1.1,4.7-1.6,7s-0.9,4.4-1.3,6.3c-0.1,0.4-0.2,0.6-0.4,0.7c-0.2,0.1-0.5,0.2-0.8,0.2s-0.8-0.1-1.2-0.2
				c-0.5-0.1-1-0.3-1.5-0.4c-0.6-0.2-1.1-0.3-1.5-0.5c-0.5-0.2-0.8-0.4-1.2-0.7c-0.3-0.3-0.5-0.6-0.7-1s-0.1-0.8,0-1.3
				c0.1-1.3,0.2-2.9,0.5-4.8c0.2-1.9,0.5-3.9,0.9-6s0.7-4.2,1.1-6.4s0.8-4.1,1.2-6c-0.8,0.1-1.5,0.2-2.3,0.3
				c-0.7,0.1-1.3,0.2-1.8,0.3c-0.7,0.2-1.2,0.2-1.7,0.1c-0.4-0.1-0.9-0.5-1.5-1c-0.6-0.6-1.1-1.3-1.6-2.1c-0.5-0.9-0.9-1.6-1.2-2.2
				c-0.3-0.6-0.4-1-0.2-1.2c0.2-0.2,0.5-0.4,1-0.5c1.6-0.3,3.4-0.6,5.4-0.9c2-0.3,4.1-0.5,6.1-0.7c2.1-0.2,4.1-0.4,6.1-0.5
				c2-0.1,3.8-0.2,5.4-0.3c0.8,0,1.4,0.1,1.8,0.2c0.4,0.1,0.7,0.4,1,0.7c0.5,0.6,1,1.3,1.3,2c0.4,0.7,0.6,1.4,0.8,2.1
				c0.2,0.6,0.2,1,0,1.3c-0.1,0.2-0.6,0.4-1.5,0.4C317.2,123.4,316.1,123.5,314.8,123.6z"/>
			<path class="st6" d="M330,144.9c-2,0.3-3.8,0.6-5.3,1c-0.5,1.1-1,2-1.4,2.9s-0.8,1.8-1.2,2.6c-0.2,0.5-0.5,0.7-0.8,0.8
				s-0.8,0-1.4-0.2c-0.4-0.1-0.7-0.3-1.2-0.5c-0.4-0.2-0.8-0.4-1.3-0.6c-0.3-0.2-0.6-0.4-0.8-0.5c-0.2-0.1-0.4-0.3-0.6-0.5
				c-0.1-0.2-0.2-0.5-0.2-0.8c0-0.3,0.1-0.8,0.2-1.4c0.6-1.9,1.5-4,2.5-6.6c1-2.5,2.2-5.1,3.4-7.8c1.2-2.7,2.4-5.3,3.7-7.9
				c1.3-2.6,2.4-4.9,3.6-6.9c0.4-0.7,0.9-1.3,1.6-1.8c0.6-0.5,1.6-0.6,2.9-0.5c1.1,0.1,2.1,0.1,3,0.3c0.9,0.1,1.7,0.3,2.4,0.4
				c0.7,0.2,1.4,0.3,2,0.5c0.6,0.2,1.2,0.4,1.8,0.5c0.8,0.3,1.4,0.7,1.6,1.2c0.2,0.5,0.3,1.1,0.2,1.9c-0.2,1.9-0.3,4.1-0.4,6.6
				s-0.2,5.1-0.2,7.8c-0.1,2.7-0.1,5.4-0.1,8.1c0,2.7,0,5.2,0,7.5c0,0.5-0.1,0.8-0.3,1c-0.2,0.2-0.7,0.3-1.4,0.3s-1.3,0-1.9-0.1
				c-0.6,0-1.2-0.2-1.8-0.4c-0.6-0.2-1.1-0.4-1.4-0.7c-0.3-0.3-0.4-0.8-0.5-1.6c-0.1-0.8-0.2-1.6-0.3-2.6c-0.1-0.9-0.2-1.9-0.2-3.1
				C334,144.3,332,144.6,330,144.9z M332,137.9c1.2-0.1,2.5-0.2,3.7-0.3c-0.1-2.2-0.1-4.4-0.1-6.6c0-2.2,0-4.4,0-6.5
				c-1.1,2-2.2,4.1-3.5,6.5s-2.5,4.9-3.8,7.4C329.5,138.2,330.7,138,332,137.9z"/>
			<path class="st6" d="M354.5,147c-0.3,1.5-0.6,3-0.9,4.4c-0.1,0.4-0.3,0.7-0.5,0.8c-0.2,0.1-0.7,0.1-1.3,0
				c-0.7-0.2-1.4-0.3-1.9-0.4c-0.6-0.1-1.1-0.3-1.6-0.6c-0.5-0.3-0.9-0.7-1.1-1.1s-0.3-1-0.2-1.7c0.1-0.6,0.1-1.4,0.2-2.5
				c0.1-1.1,0.2-2.3,0.3-3.7c0.1-1.4,0.3-2.8,0.5-4.4c0.2-1.6,0.4-3.1,0.6-4.7c0.2-1.6,0.4-3.1,0.7-4.5c0.2-1.5,0.5-2.8,0.8-4
				s0.6-2.1,0.9-2.9c0.3-0.8,0.7-1.2,1-1.4c1.7-0.8,3.4-1.5,5.2-2.2c1.8-0.7,3.6-1.2,5.4-1.6c1.8-0.3,3.4-0.3,5-0.1
				c1.6,0.3,3,1,4.1,2.1c0.9,1,1.8,2.1,2.6,3.3s1.4,2.6,1.8,4.3c0.3,1.8,0.2,3.3-0.4,4.4c-0.9,1.9-2.5,3.6-4.7,5.1
				c-2.2,1.6-4.8,3-7.8,4.4c0.6,0.7,1.3,1.4,2,2.2c0.7,0.8,1.5,1.6,2.3,2.3c0.8,0.8,1.6,1.5,2.3,2.3c0.8,0.7,1.5,1.4,2.2,1.9
				c0.5,0.5,0.8,0.8,0.7,1.1c-0.1,0.3-0.3,0.6-0.7,0.8c-0.5,0.4-0.9,0.6-1.2,0.7c-0.3,0.1-0.7,0.1-1.2,0.2c-0.6,0.2-1.2,0.2-2,0.1
				c-0.7-0.1-1.5-0.4-2.5-1c-0.6-0.4-1.3-1-2.1-1.6c-0.8-0.6-1.6-1.4-2.5-2.1c-0.9-0.8-1.7-1.6-2.6-2.4c-0.9-0.8-1.6-1.7-2.3-2.6
				C355.1,143.9,354.8,145.4,354.5,147z M358.6,130.2c-0.4,1.6-0.9,3.2-1.4,5c1.9-0.6,3.5-1.4,5-2.3c1.4-0.9,2.6-1.8,3.6-2.8
				c1-0.9,1.7-1.8,2.1-2.6c0.4-0.8,0.6-1.5,0.4-1.9c-0.3-0.8-1.3-1.1-2.9-1.1c-0.8,0-1.6,0.1-2.6,0.3c-0.9,0.2-1.9,0.5-3,1.1
				C359.4,127.2,359,128.7,358.6,130.2z"/>
			<path class="st6" d="M388.4,144.9c-2,0.3-3.8,0.6-5.3,1c-0.5,1.1-1,2-1.4,2.9s-0.8,1.8-1.2,2.6c-0.2,0.5-0.5,0.7-0.8,0.8
				s-0.8,0-1.4-0.2c-0.4-0.1-0.7-0.3-1.2-0.5c-0.4-0.2-0.8-0.4-1.3-0.6c-0.3-0.2-0.6-0.4-0.8-0.5c-0.2-0.1-0.4-0.3-0.6-0.5
				c-0.1-0.2-0.2-0.5-0.2-0.8c0-0.3,0.1-0.8,0.2-1.4c0.6-1.9,1.5-4,2.5-6.6c1-2.5,2.2-5.1,3.4-7.8c1.2-2.7,2.4-5.3,3.7-7.9
				c1.3-2.6,2.4-4.9,3.6-6.9c0.4-0.7,0.9-1.3,1.6-1.8c0.6-0.5,1.6-0.6,2.9-0.5c1.1,0.1,2.1,0.1,3,0.3c0.9,0.1,1.7,0.3,2.4,0.4
				c0.7,0.2,1.4,0.3,2,0.5c0.6,0.2,1.2,0.4,1.8,0.5c0.8,0.3,1.4,0.7,1.6,1.2c0.2,0.5,0.3,1.1,0.2,1.9c-0.2,1.9-0.3,4.1-0.4,6.6
				s-0.2,5.1-0.2,7.8c-0.1,2.7-0.1,5.4-0.1,8.1c0,2.7,0,5.2,0,7.5c0,0.5-0.1,0.8-0.3,1c-0.2,0.2-0.7,0.3-1.4,0.3s-1.3,0-1.9-0.1
				c-0.6,0-1.2-0.2-1.8-0.4c-0.6-0.2-1.1-0.4-1.4-0.7c-0.3-0.3-0.4-0.8-0.5-1.6c-0.1-0.8-0.2-1.6-0.3-2.6c-0.1-0.9-0.2-1.9-0.2-3.1
				C392.4,144.3,390.4,144.6,388.4,144.9z M390.4,137.9c1.2-0.1,2.5-0.2,3.7-0.3c-0.1-2.2-0.1-4.4-0.1-6.6c0-2.2,0-4.4,0-6.5
				c-1.1,2-2.2,4.1-3.5,6.5s-2.5,4.9-3.8,7.4C388,138.2,389.2,138,390.4,137.9z"/>
		</g>
		<g class="st5">
			<path class="st7" d="M172.7,128c0.8-3.4,1.6-6.6,2.4-9.5c0.2-0.8,0.5-1.3,1-1.5s1.1-0.2,2,0c0.4,0.1,0.8,0.2,1.1,0.3
				c0.3,0.1,0.6,0.2,1,0.3c0.3,0.1,0.6,0.3,1,0.5c0.4,0.2,0.8,0.4,1.2,0.7c0.8,0.5,1.2,1,1.3,1.5c0.1,0.5,0,1.1-0.2,1.8
				c-0.6,2-1.3,4.3-1.9,6.8s-1.3,5.1-2,7.7c-0.7,2.6-1.3,5.2-1.9,7.7c-0.6,2.5-1.1,4.7-1.6,6.6c-0.2,1-1,1.4-2.4,1.1
				c-1.2-0.2-2.5-0.6-3.8-1.1c-1.2-0.5-2-1.3-2.5-2.4c-0.4-0.8-0.8-1.8-1.2-2.9c-0.4-1.1-0.8-2.3-1.2-3.6c-0.4-1.3-0.8-2.6-1.2-4
				c-0.4-1.4-0.8-2.8-1.1-4.2c-0.3,1.7-0.6,3.3-0.9,5c-0.3,1.7-0.6,3.3-0.9,4.8c-0.3,1.5-0.5,2.9-0.8,4.2c-0.2,1.3-0.4,2.4-0.5,3.4
				c-0.1,0.5-0.3,0.7-0.5,0.9s-0.7,0.1-1.4-0.1c-0.6-0.2-1.3-0.3-2-0.5s-1.3-0.5-1.9-0.8c-0.6-0.3-1-0.6-1.2-1
				c-0.2-0.4-0.3-0.9-0.2-1.6c0.1-0.7,0.1-1.8,0.3-3.1c0.1-1.3,0.3-2.9,0.5-4.6c0.2-1.7,0.4-3.5,0.7-5.5c0.3-2,0.5-3.9,0.8-5.8
				c0.3-1.9,0.6-3.8,0.9-5.6c0.3-1.8,0.6-3.4,0.9-4.8c0.2-0.8,0.5-1.3,1-1.5s1.1-0.2,2,0c1,0.3,2,0.6,2.9,0.9c0.9,0.3,1.9,0.7,3,1.2
				c0.8,0.4,1.4,0.8,1.8,1.3c0.3,0.5,0.6,1.3,0.8,2.3c0.1,0.8,0.3,1.8,0.5,3c0.2,1.2,0.5,2.5,0.7,3.9c0.3,1.4,0.6,2.9,0.8,4.4
				c0.3,1.5,0.6,2.9,0.9,4.3C171.3,134.9,171.9,131.5,172.7,128z"/>
			<path class="st7" d="M181.8,144.2c-0.3-1.3-0.4-2.7-0.4-4.3c0-1.6,0.1-3.2,0.3-5s0.5-3.5,0.8-5.3c0.4-1.8,0.7-3.6,1.2-5.4
				c0.4-1.8,0.9-3.6,1.4-5.3c0.2-0.8,0.5-1.3,1-1.4c0.4-0.2,1.1-0.1,1.9,0.2c0.8,0.2,1.6,0.6,2.3,0.9c0.7,0.4,1.5,0.8,2.2,1.3
				c1.5,1.1,2,2.4,1.5,4c-0.4,1.4-0.9,2.9-1.4,4.5c-0.5,1.6-0.9,3.3-1.3,5c-0.4,1.7-0.7,3.3-1,4.9c-0.3,1.6-0.5,3-0.5,4.3
				s0,2.3,0.2,3.2c0.2,0.8,0.6,1.3,1.2,1.5c0.7,0.2,1.4-0.2,2.1-1.1c0.7-0.9,1.4-2.1,2-3.7c0.6-1.6,1.2-3.4,1.8-5.5
				c0.6-2.1,1.1-4.2,1.6-6.4c0.5-2.2,1-4.4,1.4-6.5s0.8-4,1.1-5.7c0.1-0.8,0.4-1.3,0.9-1.5c0.5-0.2,1.2-0.1,2,0.1
				c0.8,0.2,1.6,0.5,2.5,1c0.9,0.4,1.7,0.9,2.4,1.3c0.4,0.2,0.7,0.5,0.9,0.7s0.3,0.4,0.4,0.6c0.1,0.2,0.1,0.5,0.1,0.7
				c0,0.3-0.1,0.6-0.2,0.9c-0.8,3.9-1.6,7.4-2.4,10.6c-0.8,3.2-1.7,6.1-2.6,8.6c-0.9,2.5-1.9,4.6-3,6.2c-1.1,1.7-2.3,2.9-3.6,3.6
				c-0.9,0.5-1.9,0.8-2.8,1c-0.9,0.2-2,0.2-3.2,0.1c-2.4-0.2-4.4-0.7-6-1.5c-0.7-0.4-1.3-0.8-1.9-1.3c-0.6-0.5-1.1-1.1-1.5-1.9
				C182.5,146.6,182.1,145.5,181.8,144.2z"/>
			<path class="st7" d="M208.8,143.1c0.5-0.1,1.1-0.1,1.6-0.1c0.5,0,1.1,0.1,1.6,0.3c0.5,0.1,1,0.4,1.4,0.6c2.3,1.4,4.3,2.3,6,2.8
				c1.7,0.4,2.9,0.3,3.7-0.3c0.3-0.2,0.4-0.5,0.2-0.8c-0.2-0.3-0.5-0.7-1-1.1c-0.5-0.4-1.1-0.8-1.9-1.3c-0.7-0.5-1.5-1-2.4-1.5
				c-0.8-0.5-1.7-1-2.5-1.6c-0.8-0.6-1.6-1.1-2.3-1.7c-0.8-0.6-1.4-1.3-2-2c-0.6-0.8-1-1.6-1.4-2.5c-0.3-0.9-0.5-1.8-0.5-2.8
				s0.1-2,0.5-3.2c0.2-1,0.7-2,1.2-3.1c0.6-1.1,1.3-2.1,2.1-3.1c0.8-1,1.7-2,2.6-2.8c1-0.9,1.9-1.6,2.9-2.2c0.3-0.2,0.7-0.5,1.3-0.7
				c0.5-0.2,1.1-0.4,1.7-0.5c0.6-0.1,1.3-0.1,2.1-0.1c0.8,0,1.5,0.2,2.3,0.4c1.2,0.4,2.4,1,3.7,1.6c1.2,0.6,2.3,1.3,3.1,2.1
				c0.5,0.5,1,1,1.3,1.5c0.3,0.5,0.5,1,0.6,1.5c0.1,0.5,0.2,1,0.2,1.4c0,0.5,0,0.9,0,1.3c-0.1,0.7-0.3,1.5-0.4,2.4
				c-0.2,0.9-0.4,1.8-0.7,2.7c-0.3,0.9-0.5,1.8-0.8,2.6c-0.3,0.8-0.6,1.5-0.9,2.1c-0.3,0.5-0.7,0.9-1,1c-0.3,0.1-0.8,0.1-1.5-0.2
				c-3.7-1.2-5.4-3-5.1-5.3c0.1-0.5,0.2-1,0.3-1.7c0.1-0.6,0.3-1.2,0.4-1.9c0.1-0.6,0.3-1.2,0.4-1.8c0.1-0.6,0.1-1,0.1-1.4
				c0-0.3-0.2-0.5-0.4-0.6c-0.2-0.1-0.6,0.1-1.1,0.5c-0.5,0.2-1,0.6-1.5,1.1c-0.6,0.5-1.1,1.1-1.6,1.7c-0.5,0.6-0.9,1.3-1.3,2
				c-0.4,0.7-0.6,1.5-0.8,2.2c-0.1,0.7-0.1,1.5,0,2.2c0.2,0.7,0.6,1.4,1.2,1.9c0.8,0.8,1.7,1.5,2.6,2.1c1,0.7,1.9,1.3,2.9,1.9
				c1,0.6,1.9,1.2,2.7,1.8c0.8,0.6,1.6,1.2,2.1,1.9c0.6,0.6,0.9,1.3,1.1,2c0.1,0.7,0,1.5-0.4,2.3c-0.3,0.6-0.6,1.2-1.1,1.8
				c-0.5,0.7-1.1,1.3-1.9,1.8c-0.8,0.6-1.8,1-3,1.4s-2.5,0.6-4.2,0.6c-2.2,0.1-4.3-0.3-6.4-1.2c-2.1-0.8-4.2-2.3-6.4-4.3
				c-1.2-1-1.8-1.8-1.9-2.3c-0.1-0.5,0.2-0.9,0.8-1.2C207.7,143.3,208.2,143.2,208.8,143.1z"/>
			<path class="st7" d="M245.7,144.9c-2,0.3-3.8,0.6-5.3,1c-0.5,1.1-1,2-1.4,2.9s-0.8,1.8-1.2,2.6c-0.2,0.5-0.5,0.7-0.8,0.8
				c-0.3,0.1-0.8,0-1.4-0.2c-0.4-0.1-0.7-0.3-1.2-0.5c-0.4-0.2-0.8-0.4-1.3-0.6c-0.3-0.2-0.6-0.4-0.8-0.5c-0.2-0.1-0.4-0.3-0.6-0.5
				c-0.1-0.2-0.2-0.5-0.2-0.8c0-0.3,0.1-0.8,0.2-1.4c0.6-1.9,1.5-4,2.5-6.6c1-2.5,2.2-5.1,3.4-7.8c1.2-2.7,2.4-5.3,3.7-7.9
				c1.3-2.6,2.4-4.9,3.6-6.9c0.4-0.7,0.9-1.3,1.6-1.8c0.6-0.5,1.6-0.6,2.9-0.5c1.1,0.1,2.1,0.1,3,0.3c0.9,0.1,1.7,0.3,2.4,0.4
				c0.7,0.2,1.4,0.3,2,0.5c0.6,0.2,1.2,0.4,1.8,0.5c0.8,0.3,1.4,0.7,1.6,1.2c0.2,0.5,0.3,1.1,0.2,1.9c-0.2,1.9-0.3,4.1-0.4,6.6
				c-0.1,2.5-0.2,5.1-0.2,7.8c-0.1,2.7-0.1,5.4-0.1,8.1c0,2.7,0,5.2,0,7.5c0,0.5-0.1,0.8-0.3,1c-0.2,0.2-0.7,0.3-1.4,0.3
				c-0.7,0-1.3,0-1.9-0.1c-0.6,0-1.2-0.2-1.8-0.4c-0.6-0.2-1.1-0.4-1.4-0.7c-0.3-0.3-0.4-0.8-0.5-1.6c-0.1-0.8-0.2-1.6-0.3-2.6
				c-0.1-0.9-0.2-1.9-0.2-3.1C249.7,144.3,247.7,144.6,245.7,144.9z M247.7,137.9c1.2-0.1,2.5-0.2,3.7-0.3c-0.1-2.2-0.1-4.4-0.1-6.6
				c0-2.2,0-4.4,0-6.5c-1.1,2-2.2,4.1-3.5,6.5c-1.3,2.4-2.5,4.9-3.8,7.4C245.2,138.2,246.5,138,247.7,137.9z"/>
			<path class="st7" d="M281.8,128c0.8-3.4,1.6-6.6,2.4-9.5c0.2-0.8,0.5-1.3,1-1.5c0.4-0.2,1.1-0.2,2,0c0.4,0.1,0.8,0.2,1.1,0.3
				s0.6,0.2,1,0.3s0.6,0.3,1,0.5c0.3,0.2,0.8,0.4,1.2,0.7c0.8,0.5,1.2,1,1.3,1.5c0.1,0.5,0,1.1-0.2,1.8c-0.6,2-1.3,4.3-1.9,6.8
				s-1.3,5.1-2,7.7c-0.7,2.6-1.3,5.2-1.9,7.7c-0.6,2.5-1.1,4.7-1.6,6.6c-0.2,1-1,1.4-2.4,1.1c-1.2-0.2-2.5-0.6-3.8-1.1
				c-1.2-0.5-2-1.3-2.5-2.4c-0.4-0.8-0.8-1.8-1.2-2.9c-0.4-1.1-0.8-2.3-1.2-3.6c-0.4-1.3-0.8-2.6-1.2-4c-0.4-1.4-0.8-2.8-1.1-4.2
				c-0.3,1.7-0.6,3.3-0.9,5c-0.3,1.7-0.6,3.3-0.9,4.8c-0.3,1.5-0.5,2.9-0.8,4.2c-0.2,1.3-0.4,2.4-0.5,3.4c-0.1,0.5-0.3,0.7-0.5,0.9
				s-0.7,0.1-1.4-0.1c-0.6-0.2-1.3-0.3-2-0.5s-1.3-0.5-1.9-0.8c-0.6-0.3-1-0.6-1.2-1c-0.2-0.4-0.3-0.9-0.2-1.6
				c0.1-0.7,0.1-1.8,0.3-3.1c0.1-1.3,0.3-2.9,0.5-4.6c0.2-1.7,0.4-3.5,0.7-5.5c0.3-2,0.5-3.9,0.8-5.8c0.3-1.9,0.6-3.8,0.9-5.6
				c0.3-1.8,0.6-3.4,0.9-4.8c0.2-0.8,0.5-1.3,1-1.5s1.1-0.2,2,0c1,0.3,2,0.6,2.9,0.9c0.9,0.3,1.9,0.7,3,1.2c0.8,0.4,1.4,0.8,1.8,1.3
				c0.3,0.5,0.6,1.3,0.8,2.3c0.1,0.8,0.3,1.8,0.5,3c0.2,1.2,0.5,2.5,0.7,3.9c0.3,1.4,0.6,2.9,0.8,4.4c0.3,1.5,0.6,2.9,0.9,4.3
				C280.3,134.9,281,131.5,281.8,128z"/>
			<path class="st7" d="M314.8,123.6c-1.2,0.1-2.5,0.2-3.8,0.4c-0.6,2.3-1.2,4.6-1.8,7c-0.6,2.4-1.2,4.8-1.8,7.2
				c-0.6,2.4-1.1,4.7-1.6,7s-0.9,4.4-1.3,6.3c-0.1,0.4-0.2,0.6-0.4,0.7c-0.2,0.1-0.5,0.2-0.8,0.2s-0.8-0.1-1.2-0.2
				c-0.5-0.1-1-0.3-1.5-0.4c-0.6-0.2-1.1-0.3-1.5-0.5c-0.5-0.2-0.8-0.4-1.2-0.7c-0.3-0.3-0.5-0.6-0.7-1s-0.1-0.8,0-1.3
				c0.1-1.3,0.2-2.9,0.5-4.8c0.2-1.9,0.5-3.9,0.9-6s0.7-4.2,1.1-6.4s0.8-4.1,1.2-6c-0.8,0.1-1.5,0.2-2.3,0.3
				c-0.7,0.1-1.3,0.2-1.8,0.3c-0.7,0.2-1.2,0.2-1.7,0.1c-0.4-0.1-0.9-0.5-1.5-1c-0.6-0.6-1.1-1.3-1.6-2.1c-0.5-0.9-0.9-1.6-1.2-2.2
				c-0.3-0.6-0.4-1-0.2-1.2c0.2-0.2,0.5-0.4,1-0.5c1.6-0.3,3.4-0.6,5.4-0.9c2-0.3,4.1-0.5,6.1-0.7c2.1-0.2,4.1-0.4,6.1-0.5
				c2-0.1,3.8-0.2,5.4-0.3c0.8,0,1.4,0.1,1.8,0.2c0.4,0.1,0.7,0.4,1,0.7c0.5,0.6,1,1.3,1.3,2c0.4,0.7,0.6,1.4,0.8,2.1
				c0.2,0.6,0.2,1,0,1.3c-0.1,0.2-0.6,0.4-1.5,0.4C317.2,123.4,316.1,123.5,314.8,123.6z"/>
			<path class="st7" d="M330,144.9c-2,0.3-3.8,0.6-5.3,1c-0.5,1.1-1,2-1.4,2.9s-0.8,1.8-1.2,2.6c-0.2,0.5-0.5,0.7-0.8,0.8
				s-0.8,0-1.4-0.2c-0.4-0.1-0.7-0.3-1.2-0.5c-0.4-0.2-0.8-0.4-1.3-0.6c-0.3-0.2-0.6-0.4-0.8-0.5c-0.2-0.1-0.4-0.3-0.6-0.5
				c-0.1-0.2-0.2-0.5-0.2-0.8c0-0.3,0.1-0.8,0.2-1.4c0.6-1.9,1.5-4,2.5-6.6c1-2.5,2.2-5.1,3.4-7.8c1.2-2.7,2.4-5.3,3.7-7.9
				c1.3-2.6,2.4-4.9,3.6-6.9c0.4-0.7,0.9-1.3,1.6-1.8c0.6-0.5,1.6-0.6,2.9-0.5c1.1,0.1,2.1,0.1,3,0.3c0.9,0.1,1.7,0.3,2.4,0.4
				c0.7,0.2,1.4,0.3,2,0.5c0.6,0.2,1.2,0.4,1.8,0.5c0.8,0.3,1.4,0.7,1.6,1.2c0.2,0.5,0.3,1.1,0.2,1.9c-0.2,1.9-0.3,4.1-0.4,6.6
				s-0.2,5.1-0.2,7.8c-0.1,2.7-0.1,5.4-0.1,8.1c0,2.7,0,5.2,0,7.5c0,0.5-0.1,0.8-0.3,1c-0.2,0.2-0.7,0.3-1.4,0.3s-1.3,0-1.9-0.1
				c-0.6,0-1.2-0.2-1.8-0.4c-0.6-0.2-1.1-0.4-1.4-0.7c-0.3-0.3-0.4-0.8-0.5-1.6c-0.1-0.8-0.2-1.6-0.3-2.6c-0.1-0.9-0.2-1.9-0.2-3.1
				C334,144.3,332,144.6,330,144.9z M332,137.9c1.2-0.1,2.5-0.2,3.7-0.3c-0.1-2.2-0.1-4.4-0.1-6.6c0-2.2,0-4.4,0-6.5
				c-1.1,2-2.2,4.1-3.5,6.5s-2.5,4.9-3.8,7.4C329.5,138.2,330.7,138,332,137.9z"/>
			<path class="st7" d="M354.5,147c-0.3,1.5-0.6,3-0.9,4.4c-0.1,0.4-0.3,0.7-0.5,0.8c-0.2,0.1-0.7,0.1-1.3,0
				c-0.7-0.2-1.4-0.3-1.9-0.4c-0.6-0.1-1.1-0.3-1.6-0.6c-0.5-0.3-0.9-0.7-1.1-1.1s-0.3-1-0.2-1.7c0.1-0.6,0.1-1.4,0.2-2.5
				c0.1-1.1,0.2-2.3,0.3-3.7c0.1-1.4,0.3-2.8,0.5-4.4c0.2-1.6,0.4-3.1,0.6-4.7c0.2-1.6,0.4-3.1,0.7-4.5c0.2-1.5,0.5-2.8,0.8-4
				s0.6-2.1,0.9-2.9c0.3-0.8,0.7-1.2,1-1.4c1.7-0.8,3.4-1.5,5.2-2.2c1.8-0.7,3.6-1.2,5.4-1.6c1.8-0.3,3.4-0.3,5-0.1
				c1.6,0.3,3,1,4.1,2.1c0.9,1,1.8,2.1,2.6,3.3s1.4,2.6,1.8,4.3c0.3,1.8,0.2,3.3-0.4,4.4c-0.9,1.9-2.5,3.6-4.7,5.1
				c-2.2,1.6-4.8,3-7.8,4.4c0.6,0.7,1.3,1.4,2,2.2c0.7,0.8,1.5,1.6,2.3,2.3c0.8,0.8,1.6,1.5,2.3,2.3c0.8,0.7,1.5,1.4,2.2,1.9
				c0.5,0.5,0.8,0.8,0.7,1.1c-0.1,0.3-0.3,0.6-0.7,0.8c-0.5,0.4-0.9,0.6-1.2,0.7c-0.3,0.1-0.7,0.1-1.2,0.2c-0.6,0.2-1.2,0.2-2,0.1
				c-0.7-0.1-1.5-0.4-2.5-1c-0.6-0.4-1.3-1-2.1-1.6c-0.8-0.6-1.6-1.4-2.5-2.1c-0.9-0.8-1.7-1.6-2.6-2.4c-0.9-0.8-1.6-1.7-2.3-2.6
				C355.1,143.9,354.8,145.4,354.5,147z M358.6,130.2c-0.4,1.6-0.9,3.2-1.4,5c1.9-0.6,3.5-1.4,5-2.3c1.4-0.9,2.6-1.8,3.6-2.8
				c1-0.9,1.7-1.8,2.1-2.6c0.4-0.8,0.6-1.5,0.4-1.9c-0.3-0.8-1.3-1.1-2.9-1.1c-0.8,0-1.6,0.1-2.6,0.3c-0.9,0.2-1.9,0.5-3,1.1
				C359.4,127.2,359,128.7,358.6,130.2z"/>
			<path class="st7" d="M388.4,144.9c-2,0.3-3.8,0.6-5.3,1c-0.5,1.1-1,2-1.4,2.9s-0.8,1.8-1.2,2.6c-0.2,0.5-0.5,0.7-0.8,0.8
				s-0.8,0-1.4-0.2c-0.4-0.1-0.7-0.3-1.2-0.5c-0.4-0.2-0.8-0.4-1.3-0.6c-0.3-0.2-0.6-0.4-0.8-0.5c-0.2-0.1-0.4-0.3-0.6-0.5
				c-0.1-0.2-0.2-0.5-0.2-0.8c0-0.3,0.1-0.8,0.2-1.4c0.6-1.9,1.5-4,2.5-6.6c1-2.5,2.2-5.1,3.4-7.8c1.2-2.7,2.4-5.3,3.7-7.9
				c1.3-2.6,2.4-4.9,3.6-6.9c0.4-0.7,0.9-1.3,1.6-1.8c0.6-0.5,1.6-0.6,2.9-0.5c1.1,0.1,2.1,0.1,3,0.3c0.9,0.1,1.7,0.3,2.4,0.4
				c0.7,0.2,1.4,0.3,2,0.5c0.6,0.2,1.2,0.4,1.8,0.5c0.8,0.3,1.4,0.7,1.6,1.2c0.2,0.5,0.3,1.1,0.2,1.9c-0.2,1.9-0.3,4.1-0.4,6.6
				s-0.2,5.1-0.2,7.8c-0.1,2.7-0.1,5.4-0.1,8.1c0,2.7,0,5.2,0,7.5c0,0.5-0.1,0.8-0.3,1c-0.2,0.2-0.7,0.3-1.4,0.3s-1.3,0-1.9-0.1
				c-0.6,0-1.2-0.2-1.8-0.4c-0.6-0.2-1.1-0.4-1.4-0.7c-0.3-0.3-0.4-0.8-0.5-1.6c-0.1-0.8-0.2-1.6-0.3-2.6c-0.1-0.9-0.2-1.9-0.2-3.1
				C392.4,144.3,390.4,144.6,388.4,144.9z M390.4,137.9c1.2-0.1,2.5-0.2,3.7-0.3c-0.1-2.2-0.1-4.4-0.1-6.6c0-2.2,0-4.4,0-6.5
				c-1.1,2-2.2,4.1-3.5,6.5s-2.5,4.9-3.8,7.4C388,138.2,389.2,138,390.4,137.9z"/>
		</g>
	</g>
</g>
</svg>
