<svg xmlns="http://www.w3.org/2000/svg" viewBox="0 0 1959.15 751.88"><defs><style>.cls-1{fill:#31445b;stroke:#31445b;}.cls-1,.cls-2,.cls-5,.cls-6,.cls-7{stroke-miterlimit:10;}.cls-2,.cls-5,.cls-6,.cls-7{fill:none;stroke:#fff;}.cls-2,.cls-5{stroke-width:0.25px;}.cls-2,.cls-3{opacity:0.8;}.cls-4{opacity:0.83;}.cls-6{stroke-width:0.5px;}.cls-7{opacity:0.68;font-size:136px;stroke-width:4px;font-family:KomikaAxis, Komika Axis;}</style></defs><g id="Layer_2" data-name="Layer 2"><g id="Layer_1-2" data-name="Layer 1"><rect class="cls-1" x="0.5" y="0.94" width="1958.15" height="750.44"/></g><g id="Pinisi"><rect class="cls-2" x="0.5" y="0.13" width="1958.15" height="750.44"/><g class="cls-3"><g class="cls-4"><line class="cls-5" x1="0.5" y1="49.79" x2="151.13" y2="49.79"/><line class="cls-5" x1="0.5" y1="100" x2="151.13" y2="100"/><line class="cls-5" x1="50.71" y1="0.13" x2="50.71" y2="150.21"/><line class="cls-5" x1="100.92" y1="0.13" x2="100.92" y2="150.21"/><polyline class="cls-5" points="151.13 0.13 0.5 0.13 0.5 150.21"/></g><g class="cls-4"><line class="cls-5" x1="0.5" y1="199.88" x2="151.13" y2="199.88"/><line class="cls-5" x1="0.5" y1="250.09" x2="151.13" y2="250.09"/><line class="cls-5" x1="50.71" y1="150.21" x2="50.71" y2="300.3"/><line class="cls-5" x1="100.92" y1="150.21" x2="100.92" y2="300.3"/><polyline class="cls-5" points="151.13 150.21 0.5 150.21 0.5 300.3"/></g><g class="cls-4"><line class="cls-5" x1="0.5" y1="349.97" x2="151.13" y2="349.97"/><line class="cls-5" x1="0.5" y1="400.18" x2="151.13" y2="400.18"/><line class="cls-5" x1="50.71" y1="300.3" x2="50.71" y2="450.39"/><line class="cls-5" x1="100.92" y1="300.3" x2="100.92" y2="450.39"/><polyline class="cls-5" points="151.13 300.3 0.5 300.3 0.5 450.39"/></g><g class="cls-4"><line class="cls-5" x1="0.5" y1="500.06" x2="151.13" y2="500.06"/><line class="cls-5" x1="0.5" y1="550.27" x2="151.13" y2="550.27"/><line class="cls-5" x1="50.71" y1="450.39" x2="50.71" y2="600.48"/><line class="cls-5" x1="100.92" y1="450.39" x2="100.92" y2="600.48"/><polyline class="cls-5" points="151.13 450.39 0.5 450.39 0.5 600.48"/></g><g class="cls-4"><line class="cls-5" x1="0.5" y1="650.15" x2="151.13" y2="650.15"/><line class="cls-5" x1="0.5" y1="700.35" x2="151.13" y2="700.35"/><line class="cls-5" x1="50.71" y1="600.48" x2="50.71" y2="750.56"/><line class="cls-5" x1="100.92" y1="600.48" x2="100.92" y2="750.56"/><polyline class="cls-5" points="151.13 600.48 0.5 600.48 0.5 750.56"/></g><g class="cls-4"><line class="cls-5" x1="151.13" y1="49.79" x2="301.75" y2="49.79"/><line class="cls-5" x1="151.13" y1="100" x2="301.75" y2="100"/><line class="cls-5" x1="201.34" y1="0.13" x2="201.34" y2="150.21"/><line class="cls-5" x1="251.54" y1="0.13" x2="251.54" y2="150.21"/><polyline class="cls-5" points="301.75 0.13 151.13 0.13 151.13 150.21"/><line class="cls-5" x1="151.13" y1="199.88" x2="301.75" y2="199.88"/><line class="cls-5" x1="151.13" y1="250.09" x2="301.75" y2="250.09"/><line class="cls-5" x1="201.34" y1="150.21" x2="201.34" y2="300.3"/><line class="cls-5" x1="251.54" y1="150.21" x2="251.54" y2="300.3"/><polyline class="cls-5" points="301.75 150.21 151.13 150.21 151.13 300.3"/><line class="cls-5" x1="151.13" y1="349.97" x2="301.75" y2="349.97"/><line class="cls-5" x1="151.13" y1="400.18" x2="301.75" y2="400.18"/><line class="cls-5" x1="201.34" y1="300.3" x2="201.34" y2="450.39"/><line class="cls-5" x1="251.54" y1="300.3" x2="251.54" y2="450.39"/><polyline class="cls-5" points="301.75 300.3 151.13 300.3 151.13 450.39"/><line class="cls-5" x1="151.13" y1="500.06" x2="301.75" y2="500.06"/><line class="cls-5" x1="151.13" y1="550.27" x2="301.75" y2="550.27"/><line class="cls-5" x1="201.34" y1="450.39" x2="201.34" y2="600.48"/><line class="cls-5" x1="251.54" y1="450.39" x2="251.54" y2="600.48"/><polyline class="cls-5" points="301.75 450.39 151.13 450.39 151.13 600.48"/><line class="cls-5" x1="151.13" y1="650.15" x2="301.75" y2="650.15"/><line class="cls-5" x1="151.13" y1="700.35" x2="301.75" y2="700.35"/><line class="cls-5" x1="201.34" y1="600.48" x2="201.34" y2="750.56"/><line class="cls-5" x1="251.54" y1="600.48" x2="251.54" y2="750.56"/><polyline class="cls-5" points="301.75 600.48 151.13 600.48 151.13 750.56"/></g><g class="cls-4"><line class="cls-5" x1="301.75" y1="49.79" x2="452.38" y2="49.79"/><line class="cls-5" x1="301.75" y1="100" x2="452.38" y2="100"/><line class="cls-5" x1="351.96" y1="0.13" x2="351.96" y2="150.21"/><line class="cls-5" x1="402.17" y1="0.13" x2="402.17" y2="150.21"/><polyline class="cls-5" points="452.38 0.13 301.75 0.13 301.75 150.21"/><line class="cls-5" x1="301.75" y1="199.88" x2="452.38" y2="199.88"/><line class="cls-5" x1="301.75" y1="250.09" x2="452.38" y2="250.09"/><line class="cls-5" x1="351.96" y1="150.21" x2="351.96" y2="300.3"/><line class="cls-5" x1="402.17" y1="150.21" x2="402.17" y2="300.3"/><polyline class="cls-5" points="452.38 150.21 301.75 150.21 301.75 300.3"/><line class="cls-5" x1="301.75" y1="349.97" x2="452.38" y2="349.97"/><line class="cls-5" x1="301.75" y1="400.18" x2="452.38" y2="400.18"/><line class="cls-5" x1="351.96" y1="300.3" x2="351.96" y2="450.39"/><line class="cls-5" x1="402.17" y1="300.3" x2="402.17" y2="450.39"/><polyline class="cls-5" points="452.38 300.3 301.75 300.3 301.75 450.39"/><line class="cls-5" x1="301.75" y1="500.06" x2="452.38" y2="500.06"/><line class="cls-5" x1="301.75" y1="550.27" x2="452.38" y2="550.27"/><line class="cls-5" x1="351.96" y1="450.39" x2="351.96" y2="600.48"/><line class="cls-5" x1="402.17" y1="450.39" x2="402.17" y2="600.48"/><polyline class="cls-5" points="452.38 450.39 301.75 450.39 301.75 600.48"/><line class="cls-5" x1="301.75" y1="650.15" x2="452.38" y2="650.15"/><line class="cls-5" x1="301.75" y1="700.35" x2="452.38" y2="700.35"/><line class="cls-5" x1="351.96" y1="600.48" x2="351.96" y2="750.56"/><line class="cls-5" x1="402.17" y1="600.48" x2="402.17" y2="750.56"/><polyline class="cls-5" points="452.38 600.48 301.75 600.48 301.75 750.56"/><line class="cls-5" x1="452.38" y1="49.79" x2="603.01" y2="49.79"/><line class="cls-5" x1="452.38" y1="100" x2="603.01" y2="100"/><line class="cls-5" x1="502.59" y1="0.13" x2="502.59" y2="150.21"/><line class="cls-5" x1="552.8" y1="0.13" x2="552.8" y2="150.21"/><polyline class="cls-5" points="603.01 0.13 452.38 0.13 452.38 150.21"/><line class="cls-5" x1="452.38" y1="199.88" x2="603.01" y2="199.88"/><line class="cls-5" x1="452.38" y1="250.09" x2="603.01" y2="250.09"/><line class="cls-5" x1="502.59" y1="150.21" x2="502.59" y2="300.3"/><line class="cls-5" x1="552.8" y1="150.21" x2="552.8" y2="300.3"/><polyline class="cls-5" points="603.01 150.21 452.38 150.21 452.38 300.3"/><line class="cls-5" x1="452.38" y1="349.97" x2="603.01" y2="349.97"/><line class="cls-5" x1="452.38" y1="400.18" x2="603.01" y2="400.18"/><line class="cls-5" x1="502.59" y1="300.3" x2="502.59" y2="450.39"/><line class="cls-5" x1="552.8" y1="300.3" x2="552.8" y2="450.39"/><polyline class="cls-5" points="603.01 300.3 452.38 300.3 452.38 450.39"/><line class="cls-5" x1="452.38" y1="500.06" x2="603.01" y2="500.06"/><line class="cls-5" x1="452.38" y1="550.27" x2="603.01" y2="550.27"/><line class="cls-5" x1="502.59" y1="450.39" x2="502.59" y2="600.48"/><line class="cls-5" x1="552.8" y1="450.39" x2="552.8" y2="600.48"/><polyline class="cls-5" points="603.01 450.39 452.38 450.39 452.38 600.48"/><line class="cls-5" x1="452.38" y1="650.15" x2="603.01" y2="650.15"/><line class="cls-5" x1="452.38" y1="700.35" x2="603.01" y2="700.35"/><line class="cls-5" x1="502.59" y1="600.48" x2="502.59" y2="750.56"/><line class="cls-5" x1="552.8" y1="600.48" x2="552.8" y2="750.56"/><polyline class="cls-5" points="603.01 600.48 452.38 600.48 452.38 750.56"/><line class="cls-5" x1="603.01" y1="49.79" x2="753.63" y2="49.79"/><line class="cls-5" x1="603.01" y1="100" x2="753.63" y2="100"/><line class="cls-5" x1="653.22" y1="0.13" x2="653.22" y2="150.21"/><line class="cls-5" x1="703.42" y1="0.13" x2="703.42" y2="150.21"/><polyline class="cls-5" points="753.63 0.13 603.01 0.13 603.01 150.21"/><line class="cls-5" x1="603.01" y1="199.88" x2="753.63" y2="199.88"/><line class="cls-5" x1="603.01" y1="250.09" x2="753.63" y2="250.09"/><line class="cls-5" x1="653.22" y1="150.21" x2="653.22" y2="300.3"/><line class="cls-5" x1="703.42" y1="150.21" x2="703.42" y2="300.3"/><polyline class="cls-5" points="753.63 150.21 603.01 150.21 603.01 300.3"/><line class="cls-5" x1="603.01" y1="349.97" x2="753.63" y2="349.97"/><line class="cls-5" x1="603.01" y1="400.18" x2="753.63" y2="400.18"/><line class="cls-5" x1="653.22" y1="300.3" x2="653.22" y2="450.39"/><line class="cls-5" x1="703.42" y1="300.3" x2="703.42" y2="450.39"/><polyline class="cls-5" points="753.63 300.3 603.01 300.3 603.01 450.39"/><line class="cls-5" x1="603.01" y1="500.06" x2="753.63" y2="500.06"/><line class="cls-5" x1="603.01" y1="550.27" x2="753.63" y2="550.27"/><line class="cls-5" x1="653.22" y1="450.39" x2="653.22" y2="600.48"/><line class="cls-5" x1="703.42" y1="450.39" x2="703.42" y2="600.48"/><polyline class="cls-5" points="753.63 450.39 603.01 450.39 603.01 600.48"/><line class="cls-5" x1="603.01" y1="650.15" x2="753.63" y2="650.15"/><line class="cls-5" x1="603.01" y1="700.35" x2="753.63" y2="700.35"/><line class="cls-5" x1="653.22" y1="600.48" x2="653.22" y2="750.56"/><line class="cls-5" x1="703.42" y1="600.48" x2="703.42" y2="750.56"/><polyline class="cls-5" points="753.63 600.48 603.01 600.48 603.01 750.56"/></g><g class="cls-4"><line class="cls-5" x1="753.63" y1="49.79" x2="904.26" y2="49.79"/><line class="cls-5" x1="753.63" y1="100" x2="904.26" y2="100"/><line class="cls-5" x1="803.84" y1="0.13" x2="803.84" y2="150.21"/><line class="cls-5" x1="854.05" y1="0.13" x2="854.05" y2="150.21"/><polyline class="cls-5" points="904.26 0.13 753.63 0.13 753.63 150.21"/><line class="cls-5" x1="753.63" y1="199.88" x2="904.26" y2="199.88"/><line class="cls-5" x1="753.63" y1="250.09" x2="904.26" y2="250.09"/><line class="cls-5" x1="803.84" y1="150.21" x2="803.84" y2="300.3"/><line class="cls-5" x1="854.05" y1="150.21" x2="854.05" y2="300.3"/><polyline class="cls-5" points="904.26 150.21 753.63 150.21 753.63 300.3"/><line class="cls-5" x1="753.63" y1="349.97" x2="904.26" y2="349.97"/><line class="cls-5" x1="753.63" y1="400.18" x2="904.26" y2="400.18"/><line class="cls-5" x1="803.84" y1="300.3" x2="803.84" y2="450.39"/><line class="cls-5" x1="854.05" y1="300.3" x2="854.05" y2="450.39"/><polyline class="cls-5" points="904.26 300.3 753.63 300.3 753.63 450.39"/><line class="cls-5" x1="753.63" y1="500.06" x2="904.26" y2="500.06"/><line class="cls-5" x1="753.63" y1="550.27" x2="904.26" y2="550.27"/><line class="cls-5" x1="803.84" y1="450.39" x2="803.84" y2="600.48"/><line class="cls-5" x1="854.05" y1="450.39" x2="854.05" y2="600.48"/><polyline class="cls-5" points="904.26 450.39 753.63 450.39 753.63 600.48"/><line class="cls-5" x1="753.63" y1="650.15" x2="904.26" y2="650.15"/><line class="cls-5" x1="753.63" y1="700.35" x2="904.26" y2="700.35"/><line class="cls-5" x1="803.84" y1="600.48" x2="803.84" y2="750.56"/><line class="cls-5" x1="854.05" y1="600.48" x2="854.05" y2="750.56"/><polyline class="cls-5" points="904.26 600.48 753.63 600.48 753.63 750.56"/><line class="cls-5" x1="904.26" y1="49.79" x2="1054.89" y2="49.79"/><line class="cls-5" x1="904.26" y1="100" x2="1054.89" y2="100"/><line class="cls-5" x1="954.47" y1="0.13" x2="954.47" y2="150.21"/><line class="cls-5" x1="1004.68" y1="0.13" x2="1004.68" y2="150.21"/><polyline class="cls-5" points="1054.89 0.13 904.26 0.13 904.26 150.21"/><line class="cls-5" x1="904.26" y1="199.88" x2="1054.89" y2="199.88"/><line class="cls-5" x1="904.26" y1="250.09" x2="1054.89" y2="250.09"/><line class="cls-5" x1="954.47" y1="150.21" x2="954.47" y2="300.3"/><line class="cls-5" x1="1004.68" y1="150.21" x2="1004.68" y2="300.3"/><polyline class="cls-5" points="1054.89 150.21 904.26 150.21 904.26 300.3"/><line class="cls-5" x1="904.26" y1="349.97" x2="1054.89" y2="349.97"/><line class="cls-5" x1="904.26" y1="400.18" x2="1054.89" y2="400.18"/><line class="cls-5" x1="954.47" y1="300.3" x2="954.47" y2="450.39"/><line class="cls-5" x1="1004.68" y1="300.3" x2="1004.68" y2="450.39"/><polyline class="cls-5" points="1054.89 300.3 904.26 300.3 904.26 450.39"/><line class="cls-5" x1="904.26" y1="500.06" x2="1054.89" y2="500.06"/><line class="cls-5" x1="904.26" y1="550.27" x2="1054.89" y2="550.27"/><line class="cls-5" x1="954.47" y1="450.39" x2="954.47" y2="600.48"/><line class="cls-5" x1="1004.68" y1="450.39" x2="1004.68" y2="600.48"/><polyline class="cls-5" points="1054.89 450.39 904.26 450.39 904.26 600.48"/><line class="cls-5" x1="904.26" y1="650.15" x2="1054.89" y2="650.15"/><line class="cls-5" x1="904.26" y1="700.35" x2="1054.89" y2="700.35"/><line class="cls-5" x1="954.47" y1="600.48" x2="954.47" y2="750.56"/><line class="cls-5" x1="1004.68" y1="600.48" x2="1004.68" y2="750.56"/><polyline class="cls-5" points="1054.89 600.48 904.26 600.48 904.26 750.56"/><line class="cls-5" x1="1054.89" y1="49.79" x2="1205.51" y2="49.79"/><line class="cls-5" x1="1054.89" y1="100" x2="1205.51" y2="100"/><line class="cls-5" x1="1105.09" y1="0.13" x2="1105.09" y2="150.21"/><line class="cls-5" x1="1155.3" y1="0.13" x2="1155.3" y2="150.21"/><polyline class="cls-5" points="1205.51 0.13 1054.89 0.13 1054.89 150.21"/><line class="cls-5" x1="1054.89" y1="199.88" x2="1205.51" y2="199.88"/><line class="cls-5" x1="1054.89" y1="250.09" x2="1205.51" y2="250.09"/><line class="cls-5" x1="1105.09" y1="150.21" x2="1105.09" y2="300.3"/><line class="cls-5" x1="1155.3" y1="150.21" x2="1155.3" y2="300.3"/><polyline class="cls-5" points="1205.51 150.21 1054.89 150.21 1054.89 300.3"/><line class="cls-5" x1="1054.89" y1="349.97" x2="1205.51" y2="349.97"/><line class="cls-5" x1="1054.89" y1="400.18" x2="1205.51" y2="400.18"/><line class="cls-5" x1="1105.09" y1="300.3" x2="1105.09" y2="450.39"/><line class="cls-5" x1="1155.3" y1="300.3" x2="1155.3" y2="450.39"/><polyline class="cls-5" points="1205.51 300.3 1054.89 300.3 1054.89 450.39"/><line class="cls-5" x1="1054.89" y1="500.06" x2="1205.51" y2="500.06"/><line class="cls-5" x1="1054.89" y1="550.27" x2="1205.51" y2="550.27"/><line class="cls-5" x1="1105.09" y1="450.39" x2="1105.09" y2="600.48"/><line class="cls-5" x1="1155.3" y1="450.39" x2="1155.3" y2="600.48"/><polyline class="cls-5" points="1205.51 450.39 1054.89 450.39 1054.89 600.48"/><line class="cls-5" x1="1054.89" y1="650.15" x2="1205.51" y2="650.15"/><line class="cls-5" x1="1054.89" y1="700.35" x2="1205.51" y2="700.35"/><line class="cls-5" x1="1105.09" y1="600.48" x2="1105.09" y2="750.56"/><line class="cls-5" x1="1155.3" y1="600.48" x2="1155.3" y2="750.56"/><polyline class="cls-5" points="1205.51 600.48 1054.89 600.48 1054.89 750.56"/></g><g class="cls-4"><line class="cls-5" x1="1205.51" y1="49.79" x2="1356.14" y2="49.79"/><line class="cls-5" x1="1205.51" y1="100" x2="1356.14" y2="100"/><line class="cls-5" x1="1255.72" y1="0.13" x2="1255.72" y2="150.21"/><line class="cls-5" x1="1305.93" y1="0.13" x2="1305.93" y2="150.21"/><polyline class="cls-5" points="1356.14 0.13 1205.51 0.13 1205.51 150.21"/><line class="cls-5" x1="1205.51" y1="199.88" x2="1356.14" y2="199.88"/><line class="cls-5" x1="1205.51" y1="250.09" x2="1356.14" y2="250.09"/><line class="cls-5" x1="1255.72" y1="150.21" x2="1255.72" y2="300.3"/><line class="cls-5" x1="1305.93" y1="150.21" x2="1305.93" y2="300.3"/><polyline class="cls-5" points="1356.14 150.21 1205.51 150.21 1205.51 300.3"/><line class="cls-5" x1="1205.51" y1="349.97" x2="1356.14" y2="349.97"/><line class="cls-5" x1="1205.51" y1="400.18" x2="1356.14" y2="400.18"/><line class="cls-5" x1="1255.72" y1="300.3" x2="1255.72" y2="450.39"/><line class="cls-5" x1="1305.93" y1="300.3" x2="1305.93" y2="450.39"/><polyline class="cls-5" points="1356.14 300.3 1205.51 300.3 1205.51 450.39"/><line class="cls-5" x1="1205.51" y1="500.06" x2="1356.14" y2="500.06"/><line class="cls-5" x1="1205.51" y1="550.27" x2="1356.14" y2="550.27"/><line class="cls-5" x1="1255.72" y1="450.39" x2="1255.72" y2="600.48"/><line class="cls-5" x1="1305.93" y1="450.39" x2="1305.93" y2="600.48"/><polyline class="cls-5" points="1356.14 450.39 1205.51 450.39 1205.51 600.48"/><line class="cls-5" x1="1205.51" y1="650.15" x2="1356.14" y2="650.15"/><line class="cls-5" x1="1205.51" y1="700.35" x2="1356.14" y2="700.35"/><line class="cls-5" x1="1255.72" y1="600.48" x2="1255.72" y2="750.56"/><line class="cls-5" x1="1305.93" y1="600.48" x2="1305.93" y2="750.56"/><polyline class="cls-5" points="1356.14 600.48 1205.51 600.48 1205.51 750.56"/><line class="cls-5" x1="1356.14" y1="49.79" x2="1506.77" y2="49.79"/><line class="cls-5" x1="1356.14" y1="100" x2="1506.77" y2="100"/><line class="cls-5" x1="1406.35" y1="0.13" x2="1406.35" y2="150.21"/><line class="cls-5" x1="1456.56" y1="0.13" x2="1456.56" y2="150.21"/><polyline class="cls-5" points="1506.77 0.13 1356.14 0.13 1356.14 150.21"/><line class="cls-5" x1="1356.14" y1="199.88" x2="1506.77" y2="199.88"/><line class="cls-5" x1="1356.14" y1="250.09" x2="1506.77" y2="250.09"/><line class="cls-5" x1="1406.35" y1="150.21" x2="1406.35" y2="300.3"/><line class="cls-5" x1="1456.56" y1="150.21" x2="1456.56" y2="300.3"/><polyline class="cls-5" points="1506.77 150.21 1356.14 150.21 1356.14 300.3"/><line class="cls-5" x1="1356.14" y1="349.97" x2="1506.77" y2="349.97"/><line class="cls-5" x1="1356.14" y1="400.18" x2="1506.77" y2="400.18"/><line class="cls-5" x1="1406.35" y1="300.3" x2="1406.35" y2="450.39"/><line class="cls-5" x1="1456.56" y1="300.3" x2="1456.56" y2="450.39"/><polyline class="cls-5" points="1506.77 300.3 1356.14 300.3 1356.14 450.39"/><line class="cls-5" x1="1356.14" y1="500.06" x2="1506.77" y2="500.06"/><line class="cls-5" x1="1356.14" y1="550.27" x2="1506.77" y2="550.27"/><line class="cls-5" x1="1406.35" y1="450.39" x2="1406.35" y2="600.48"/><line class="cls-5" x1="1456.56" y1="450.39" x2="1456.56" y2="600.48"/><polyline class="cls-5" points="1506.77 450.39 1356.14 450.39 1356.14 600.48"/><line class="cls-5" x1="1356.14" y1="650.15" x2="1506.77" y2="650.15"/><line class="cls-5" x1="1356.14" y1="700.35" x2="1506.77" y2="700.35"/><line class="cls-5" x1="1406.35" y1="600.48" x2="1406.35" y2="750.56"/><line class="cls-5" x1="1456.56" y1="600.48" x2="1456.56" y2="750.56"/><polyline class="cls-5" points="1506.77 600.48 1356.14 600.48 1356.14 750.56"/><line class="cls-5" x1="1506.77" y1="49.79" x2="1657.39" y2="49.79"/><line class="cls-5" x1="1506.77" y1="100" x2="1657.39" y2="100"/><line class="cls-5" x1="1556.97" y1="0.13" x2="1556.97" y2="150.21"/><line class="cls-5" x1="1607.18" y1="0.13" x2="1607.18" y2="150.21"/><polyline class="cls-5" points="1657.39 0.13 1506.77 0.13 1506.77 150.21"/><line class="cls-5" x1="1506.77" y1="199.88" x2="1657.39" y2="199.88"/><line class="cls-5" x1="1506.77" y1="250.09" x2="1657.39" y2="250.09"/><line class="cls-5" x1="1556.97" y1="150.21" x2="1556.97" y2="300.3"/><line class="cls-5" x1="1607.18" y1="150.21" x2="1607.18" y2="300.3"/><polyline class="cls-5" points="1657.39 150.21 1506.77 150.21 1506.77 300.3"/><line class="cls-5" x1="1506.77" y1="349.97" x2="1657.39" y2="349.97"/><line class="cls-5" x1="1506.77" y1="400.18" x2="1657.39" y2="400.18"/><line class="cls-5" x1="1556.97" y1="300.3" x2="1556.97" y2="450.39"/><line class="cls-5" x1="1607.18" y1="300.3" x2="1607.18" y2="450.39"/><polyline class="cls-5" points="1657.39 300.3 1506.77 300.3 1506.77 450.39"/><line class="cls-5" x1="1506.77" y1="500.06" x2="1657.39" y2="500.06"/><line class="cls-5" x1="1506.77" y1="550.27" x2="1657.39" y2="550.27"/><line class="cls-5" x1="1556.97" y1="450.39" x2="1556.97" y2="600.48"/><line class="cls-5" x1="1607.18" y1="450.39" x2="1607.18" y2="600.48"/><polyline class="cls-5" points="1657.39 450.39 1506.77 450.39 1506.77 600.48"/><line class="cls-5" x1="1506.77" y1="650.15" x2="1657.39" y2="650.15"/><line class="cls-5" x1="1506.77" y1="700.35" x2="1657.39" y2="700.35"/><line class="cls-5" x1="1556.97" y1="600.48" x2="1556.97" y2="750.56"/><line class="cls-5" x1="1607.18" y1="600.48" x2="1607.18" y2="750.56"/><polyline class="cls-5" points="1657.39 600.48 1506.77 600.48 1506.77 750.56"/></g><g class="cls-4"><line class="cls-5" x1="1657.39" y1="49.79" x2="1808.02" y2="49.79"/><line class="cls-5" x1="1657.39" y1="100" x2="1808.02" y2="100"/><line class="cls-5" x1="1707.6" y1="0.13" x2="1707.6" y2="150.21"/><line class="cls-5" x1="1757.81" y1="0.13" x2="1757.81" y2="150.21"/><polyline class="cls-5" points="1808.02 0.13 1657.39 0.13 1657.39 150.21"/><line class="cls-5" x1="1657.39" y1="199.88" x2="1808.02" y2="199.88"/><line class="cls-5" x1="1657.39" y1="250.09" x2="1808.02" y2="250.09"/><line class="cls-5" x1="1707.6" y1="150.21" x2="1707.6" y2="300.3"/><line class="cls-5" x1="1757.81" y1="150.21" x2="1757.81" y2="300.3"/><polyline class="cls-5" points="1808.02 150.21 1657.39 150.21 1657.39 300.3"/><line class="cls-5" x1="1657.39" y1="349.97" x2="1808.02" y2="349.97"/><line class="cls-5" x1="1657.39" y1="400.18" x2="1808.02" y2="400.18"/><line class="cls-5" x1="1707.6" y1="300.3" x2="1707.6" y2="450.39"/><line class="cls-5" x1="1757.81" y1="300.3" x2="1757.81" y2="450.39"/><polyline class="cls-5" points="1808.02 300.3 1657.39 300.3 1657.39 450.39"/><line class="cls-5" x1="1657.39" y1="500.06" x2="1808.02" y2="500.06"/><line class="cls-5" x1="1657.39" y1="550.27" x2="1808.02" y2="550.27"/><line class="cls-5" x1="1707.6" y1="450.39" x2="1707.6" y2="600.48"/><line class="cls-5" x1="1757.81" y1="450.39" x2="1757.81" y2="600.48"/><polyline class="cls-5" points="1808.02 450.39 1657.39 450.39 1657.39 600.48"/><line class="cls-5" x1="1657.39" y1="650.15" x2="1808.02" y2="650.15"/><line class="cls-5" x1="1657.39" y1="700.35" x2="1808.02" y2="700.35"/><line class="cls-5" x1="1707.6" y1="600.48" x2="1707.6" y2="750.56"/><line class="cls-5" x1="1757.81" y1="600.48" x2="1757.81" y2="750.56"/><polyline class="cls-5" points="1808.02 600.48 1657.39 600.48 1657.39 750.56"/></g><g class="cls-4"><line class="cls-5" x1="1808.02" y1="49.79" x2="1958.65" y2="49.79"/><line class="cls-5" x1="1808.02" y1="100" x2="1958.65" y2="100"/><line class="cls-5" x1="1858.23" y1="0.13" x2="1858.23" y2="150.21"/><line class="cls-5" x1="1908.44" y1="0.13" x2="1908.44" y2="150.21"/><polyline class="cls-5" points="1958.64 0.13 1808.02 0.13 1808.02 150.21"/><line class="cls-5" x1="1808.02" y1="199.88" x2="1958.65" y2="199.88"/><line class="cls-5" x1="1808.02" y1="250.09" x2="1958.65" y2="250.09"/><line class="cls-5" x1="1858.23" y1="150.21" x2="1858.23" y2="300.3"/><line class="cls-5" x1="1908.44" y1="150.21" x2="1908.44" y2="300.3"/><polyline class="cls-5" points="1958.64 150.21 1808.02 150.21 1808.02 300.3"/><line class="cls-5" x1="1808.02" y1="349.97" x2="1958.65" y2="349.97"/><line class="cls-5" x1="1808.02" y1="400.18" x2="1958.65" y2="400.18"/><line class="cls-5" x1="1858.23" y1="300.3" x2="1858.23" y2="450.39"/><line class="cls-5" x1="1908.44" y1="300.3" x2="1908.44" y2="450.39"/><polyline class="cls-5" points="1958.64 300.3 1808.02 300.3 1808.02 450.39"/><line class="cls-5" x1="1808.02" y1="500.06" x2="1958.65" y2="500.06"/><line class="cls-5" x1="1808.02" y1="550.27" x2="1958.65" y2="550.27"/><line class="cls-5" x1="1858.23" y1="450.39" x2="1858.23" y2="600.48"/><line class="cls-5" x1="1908.44" y1="450.39" x2="1908.44" y2="600.48"/><polyline class="cls-5" points="1958.64 450.39 1808.02 450.39 1808.02 600.48"/><line class="cls-5" x1="1808.02" y1="650.15" x2="1958.65" y2="650.15"/><line class="cls-5" x1="1808.02" y1="700.35" x2="1958.65" y2="700.35"/><line class="cls-5" x1="1858.23" y1="600.48" x2="1858.23" y2="750.56"/><line class="cls-5" x1="1908.44" y1="600.48" x2="1908.44" y2="750.56"/><polyline class="cls-5" points="1958.64 600.48 1808.02 600.48 1808.02 750.56"/></g></g><rect class="cls-6" x="1093.44" y="586.58" width="17.51" height="25.05"/><rect class="cls-6" x="1121.6" y="586.58" width="17.51" height="25.05"/><rect class="cls-6" x="1064.08" y="586.58" width="17.51" height="25.05"/><path class="cls-6" d="M1417.35,640.47,1164.6,651.53l5.44,11"/><polyline class="cls-6" points="1163.94 640.22 1163.94 569.28 941.61 569.28 941.61 638.3"/><path class="cls-6" d="M652.17,657.8l3.63-9.44,45.57,11.9h-4.78v7.87s19.54,2.8,23.35,2.73l-.2-5.81v-6.39l-281.55-73v5.9l150,39.13L586,636.41"/><polyline class="cls-6" points="590.24 637.93 592.61 631.87 651.27 647.18 647.33 656.43"/><path class="cls-6" d="M520.23,613c36.64,23,154.49,100.48,154.49,100.48h772.66l33.18-38.34,5.16-.49,8.11-71.27,24.82-5.16-2.46-30.72-117.3,12.29-25.56,17-209.39,10m.66,44.73h-14.75l-248.71-.33-148.44-.32-33.09-.09.13,7.87h0l.2,12.2h0c-.64,0-1.73-.06-3.09-.18-6.19-.43-12.92-1.3-20-2.51l-.23,0h0a452.93,452.93,0,0,1-44.41-10.33h0l-1.13-.32-2.72-.77-1-.28h0c-19.2-5.52-38.86-12-57.09-18.5h0l-.45-.16-2.36-.84-1.45-.52h0c-20.56-7.37-39.05-14.56-52.64-20m944.15,35.1-48.66,3-4.67-37.36,59.23-8.11Z"/><polyline class="cls-6" points="1338.34 545.77 1435.34 545.85 1436.98 542.41 1338.08 541.48"/><path class="cls-6" d="M1289.67,342.36c77.61-27,146-47.18,146-47.18l-1.07-3c-50.54,13.59-100.54,30-144.74,45.71"/><path class="cls-6" d="M1286.61,339c-86.54,31-150,59.38-150,59.38-2.7,2.13,1.15,3.93,1.15,3.93,41.75-19.91,97-40.81,148.62-58.82"/><path class="cls-6" d="M1289.6,344.07l-6.89,165.64,154.21-67.16s-29.72-48-9.55-144.88C1427.37,297.67,1355,321.72,1289.6,344.07Z"/><path class="cls-6" d="M1286.25,345.22c-43.22,14.79-82.78,28.63-95.52,34-32.25,13.61-49.63,21.52-49.63,21.52s39.55,20.43,48.4,49.92,40.69,81.92,40.69,81.92l46.16-20.1Z"/><path class="cls-6" d="M1282.62,511.84c45.64-20.5,108.77-48.3,158.54-68.06l1.43-3.11c-1.26.33-3.18,1-5.67,1.88h0"/><path class="cls-6" d="M1276.21,514.72c-31.9,14.37-53.78,24.5-53.78,24.5l-.29-3,8-3.63"/><line class="cls-6" x1="1330.66" y1="541.41" x2="1281.41" y2="540.94"/><line class="cls-6" x1="1281.22" y1="545.73" x2="1330.97" y2="545.77"/><polyline class="cls-6" points="944.15 226.78 938.9 246.65 938.9 246.65 829.42 637.39 836.18 637.39 943.29 246.65"/><line class="cls-6" x1="1156.16" y1="545.62" x2="1156.16" y2="550.61"/><line class="cls-6" x1="1170.82" y1="550.61" x2="1170.82" y2="545.63"/><polyline class="cls-6" points="937.29 557.49 1170.82 554.33 1170.82 550.61 1156.16 550.61 937.47 552.99"/><path class="cls-6" d="M1517.18,579.83,1412.24,595.5l9.83,86.5,58.49-6.88m-3.07-23.62-48.66,3-4.67-37.36,59.23-8.11Z"/><path class="cls-6" d="M1419.2,656.8h0c-334.88,15.84-699.59-6-699.59-6l1.64,10.12s364.36,21.82,699.11,6"/><polyline class="cls-6" points="1451.93 653.07 1451.93 653.07 1451.93 646.12 1441.61 646.12 1441.61 614.74"/><line class="cls-6" x1="1451.93" y1="613.32" x2="1451.93" y2="653.07"/><line class="cls-6" x1="1458.56" y1="652.66" x2="1458.56" y2="612.41"/><polyline class="cls-6" points="1452.05 574.2 1452.05 556.3 1468.52 556.3 1468.52 572.48"/><polyline class="cls-6" points="1512.02 567.92 1512.02 552.98 1449.22 552.98 1449.22 574.5"/><polyline class="cls-6" points="1492.66 569.95 1492.66 556.3 1509.13 556.3 1509.13 568.22"/><polyline class="cls-6" points="1472.3 572.08 1472.3 556.3 1488.88 556.3 1488.88 570.34"/><path class="cls-6" d="M681.15,292.8s26.38,257.36,114.66,324.75"/><polyline class="cls-6" points="721.66 631.22 716.66 631.22 711.91 622.53 814.63 625.32 816.03 627.94"/><path class="cls-6" d="M735.17,623.16s184.16-393.94,211.27-449"/><polyline class="cls-6" points="955.52 167.27 957.47 169.62 1212.44 502.11 1214.07 504.35"/><line class="cls-6" x1="1236.67" y1="532.68" x2="1242.58" y2="540.57"/><line class="cls-6" x1="1246.68" y1="545.85" x2="1269.58" y2="575.04"/><line class="cls-6" x1="1250.29" y1="602.68" x2="1210.96" y2="545.85"/><polyline class="cls-6" points="1207.19 540.24 1096.6 379.56 953.57 171.21 952.89 170.33"/><line class="cls-6" x1="999.25" y1="462.76" x2="1077.27" y2="488.9"/><line class="cls-6" x1="1065.28" y1="412.52" x2="1080.24" y2="485.05"/><line class="cls-6" x1="1072.23" y1="477.72" x2="1078.58" y2="485.38"/><line class="cls-6" x1="1036.39" y1="434.5" x2="1069.25" y2="474.13"/><line class="cls-6" x1="1082.06" y1="489.94" x2="1149.15" y2="539.69"/><line class="cls-6" x1="1234.71" y1="603.42" x2="1169.18" y2="554.36"/><circle class="cls-6" cx="1070.98" cy="475.73" r="2.36"/><circle class="cls-6" cx="1079.94" cy="487.89" r="2.86"/><polyline class="cls-6" points="1265.13 346.83 1152.91 95.26 1151.73 93"/><polyline class="cls-6" points="1334.33 532.58 1290.1 333.85 1286.92 333.85 1286.86 334.92 1289.97 334.99 1289.92 336.34 1286.79 336.14"/><line class="cls-6" x1="1380.96" y1="591.72" x2="1359.4" y2="545.85"/><line class="cls-6" x1="1357.52" y1="541.6" x2="1333.35" y2="489.94"/><line class="cls-6" x1="1308.17" y1="500.42" x2="1379.61" y2="536.54"/><polyline class="cls-6" points="1395.69 462.44 1385.78 530.62 1385.72 531.18"/><path class="cls-6" d="M1387.83,535a4.26,4.26,0,0,1-8.12,1.8,4.2,4.2,0,0,1-.4-1.8,4.26,4.26,0,1,1,8.52,0Z"/><polyline class="cls-6" points="1406.41 578.98 1390 545.85 1390 541.97 1389.01 541.96 1389.01 545.82 1388.01 545.82 1388.01 541.95 1387.83 541.6 1385.78 538.59"/><line class="cls-6" x1="1415.48" y1="454.19" x2="1471.47" y2="552.98"/><line class="cls-6" x1="1473.43" y1="556.3" x2="1482.02" y2="571.06"/><polyline class="cls-6" points="939.15 557.49 934.57 638.14 934.57 638.35"/><polyline class="cls-6" points="929.76 557.49 926.7 557.49 923.09 638.14 923.09 638.26"/><polyline class="cls-6" points="944.15 226.78 944.15 226.78 948.49 226.78 943.29 246.65 929.65 560.11 937.19 560.11 939.49 502.99"/><polyline class="cls-6" points="952.89 170.33 953.57 153.46 947.35 153.46 946.58 170.95"/><polyline class="cls-6" points="939.27 508.4 1217.72 296.53 1214.4 292.35 1200.81 302.77"/><line class="cls-6" x1="853.69" y1="573.52" x2="931.65" y2="514.2"/><polyline class="cls-6" points="795.55 613.27 794.57 611.8 792.5 613.38 795.81 617.55 845.59 579.68"/><line class="cls-6" x1="890.64" y1="545.4" x2="930.29" y2="545.43"/><line class="cls-6" x1="930.63" y1="537.62" x2="901.23" y2="537.34"/><line class="cls-6" x1="1274.67" y1="540.88" x2="938.09" y2="537.69"/><line class="cls-6" x1="937.78" y1="545.44" x2="1274.38" y2="545.72"/><polyline class="cls-6" points="855.32 567.48 931.88 508.82 943.29 246.65"/><path class="cls-6" d="M944.15,226.78,946.58,171C803.66,230,682.83,287.81,682.83,287.81,718,303,740.83,399.38,745.25,421.5s50.3,191.77,50.3,191.77l51.73-39.63"/><path class="cls-6" d="M1241.11,65.66C1155.85,88.51,1049.73,128.51,953,168.32L948.6,276.71,939.49,503,1192.15,309.4l8.66-6.63C1113.48,226.14,1241.11,65.66,1241.11,65.66Z"/><path class="cls-6" d="M946.76,167C864.38,200,772,239.76,673.08,286.82l3.6,8.2s3.54-1.77,10.23-5a31.54,31.54,0,0,0-4.08-2.17S803.66,230,946.58,171"/><path class="cls-6" d="M1241,65.69c28-9,56.26-17.55,84.49-25.61l-1.73-3.6S1176,75.46,953.13,164.42"/><polyline class="cls-6" points="1404.13 641.05 1404.13 611.72 1193.28 624.01 1193.28 650.28"/><polyline class="cls-6" points="1164.6 651.53 1163.94 640.22 908.05 638.14 822.75 637.39 816.03 627.94 721.66 627.94 721.66 631.22 721.66 646.14 721.66 650.79"/><polyline class="cls-6" points="1341.59 598.32 1337.53 532.58 1330.03 532.58 1334.72 598.65"/><polygon class="cls-6" points="1278.9 601.32 1290.1 332.11 1287.02 332.11 1271.07 601.69 1278.9 601.32"/><polyline class="cls-6" points="1270.93 545.79 1268.34 601.82 1281.15 601.21 1283.46 545.79"/><text class="cls-7" transform="translate(474.09 353.45)">Perahu Khas <tspan x="84.39" y="163.2">Nusantara</tspan></text></g></g></svg>