<svg xmlns="http://www.w3.org/2000/svg" viewBox="0 0 759.3 279.83"><defs><style>.cls-1{fill:#101626;}.cls-2{fill:#ffe600;stroke:#101626;stroke-miterlimit:10;stroke-width:0.25px;}</style></defs><g id="Layer_2" data-name="Layer 2"><g id="Layer_1-2" data-name="Layer 1"><path class="cls-1" d="M326.65,103.6V80.54L163.32,38.33,0,80.54V103.6H21.57l8.49,12.07L25.27,245h-3.7v10.34H0v24.47H326.65V255.36H303.17V245h-3.7l-4.79-129.35,8.49-12.07ZM62.08,255.36V245h-3.7L53.59,115.67l8.49-12.07H82.81l8.49,12.07L86.51,245h-3.7v10.34Zm61.23,0V245h-3.69l-4.79-129.35,8.48-12.07h19.76l8.49,12.07L146.77,245h-3.7v10.34Zm60.27,0V245h-3.7l-4.79-129.35,8.49-12.07h19l8.49,12.07L206.31,245h-3.7v10.34Zm59.53,0V245h-3.69l-4.79-129.35,8.48-12.07h19.55l8.49,12.07L266.36,245h-3.7v10.34Z"/><path class="cls-1" d="M430.53,141.52h-14V102.29q0-3.14.15-6.63c.11-2.33.25-4.75.44-7.27h-.41q-.6,3-1.05,5a27.08,27.08,0,0,1-.95,3.45l-15.76,44.63H387.48L371.54,97.3c-.21-.61-.49-1.65-.84-3.14s-.75-3.4-1.2-5.77h-.41q.36,4.59.47,8.75t.12,7.83v36.55H356.87V76.41h20.66l13.76,39.05a34.34,34.34,0,0,1,1.41,4.31c.36,1.43.7,2.83,1,4.23H394c.43-1.67.86-3.22,1.3-4.66s.87-2.76,1.29-4l13.76-39h20.21Z"/><path class="cls-1" d="M499.14,113.42q0,14.61-6.79,21.93T472,142.66q-13.17,0-19.76-7.11t-6.58-21.5V76.41h14.21v37.87q0,8,3.18,12.06t9.49,4q6.23,0,9.33-3.88T485,114.82V76.41h14.17Z"/><path class="cls-1" d="M509.27,137.12,515.13,126a37.5,37.5,0,0,0,8.58,4,27.58,27.58,0,0,0,7.72,1.07q5.22,0,7.83-2.07a6.91,6.91,0,0,0,2.61-5.74,6.75,6.75,0,0,0-2.09-5.3q-2.09-1.87-7.58-3.2-10.8-2.53-15.71-7.1T511.58,95a18.18,18.18,0,0,1,6.34-14q6.33-5.75,17.78-5.74a40.34,40.34,0,0,1,9.37,1.09,39.65,39.65,0,0,1,8.84,3.22L548.5,90.8a32.27,32.27,0,0,0-7.06-3,23.32,23.32,0,0,0-6.24-.93,12,12,0,0,0-7,1.79,6,6,0,0,0-2.52,5.16A5.42,5.42,0,0,0,528,98.48q2.29,1.63,8.25,3.08,10.49,2.46,15.16,7.2T556,122.09A18.91,18.91,0,0,1,549.59,137q-6.45,5.7-18.66,5.7a46.27,46.27,0,0,1-11.29-1.45A40.43,40.43,0,0,1,509.27,137.12Z"/><path class="cls-1" d="M606.22,141.52H567.48V76.41h37.24V88H581.65v15h21.48v11.58H581.65V130h24.57Z"/><path class="cls-1" d="M670.43,113.42q0,14.61-6.79,21.93t-20.37,7.31q-13.17,0-19.75-7.11t-6.58-21.5V76.41h14.21v37.87q0,8,3.18,12.06t9.49,4q6.23,0,9.33-3.88t3.11-11.65V76.41h14.17Z"/><path class="cls-1" d="M759.3,141.52h-14V102.29c0-2.09.06-4.3.16-6.63s.25-4.75.43-7.27h-.4q-.6,3-1.05,5a27.08,27.08,0,0,1-.95,3.45l-15.76,44.63H716.25L700.31,97.3c-.21-.61-.49-1.65-.84-3.14s-.75-3.4-1.21-5.77h-.4q.36,4.59.47,8.75t.12,7.83v36.55H685.64V76.41H706.3l13.76,39.05a34.34,34.34,0,0,1,1.41,4.31c.36,1.43.7,2.83,1,4.23h.27c.42-1.67.86-3.22,1.3-4.66s.87-2.76,1.29-4l13.76-39H759.3Z"/><path class="cls-1" d="M417.84,253.12H401.71l-8.81-16.21a23.64,23.64,0,0,0-4.26-5.95,8,8,0,0,0-4.91-2.22h-4.18v24.38H365.39V188h22.93q11.67,0,17.57,4.58t5.91,13.81a17.25,17.25,0,0,1-3.8,11.19,22.21,22.21,0,0,1-10.37,7v.18a12.25,12.25,0,0,1,5.29,3.7,33,33,0,0,1,4.2,5.93Zm-38.29-54.4v19.21h6.63a10.57,10.57,0,0,0,7.75-2.9,9.79,9.79,0,0,0,2.93-7.22c0-3-.87-5.26-2.59-6.79s-4.33-2.3-7.81-2.3Z"/><path class="cls-1" d="M465.2,253.12H426.46V188H463.7v11.58H440.63v15h21.48v11.58H440.63v15.44H465.2Z"/><path class="cls-1" d="M530.5,188l-22.57,65.11H491.85L469.6,188h15.31l13.89,45.77c.33,1.18.61,2.31.82,3.38s.38,2.1.5,3.07h.23c.12-1,.3-2.1.54-3.2s.54-2.25.91-3.43L515.65,188Z"/><path class="cls-1" d="M553.52,253.12H539.35V188h14.17Z"/><path class="cls-1" d="M608.15,253.12H569.41V188h37.24v11.58H583.58v15h21.48v11.58H583.58v15.44h24.57Z"/><path class="cls-1" d="M704.28,188l-17.34,65.11H671.18L660.23,211c-.27-1.09-.49-2.24-.68-3.47a38.23,38.23,0,0,1-.36-3.84H659q-.18,2.24-.48,4a31.48,31.48,0,0,1-.7,3.25l-11.22,42.18H630.17L612.92,188h15.53l9.49,43.82a31.53,31.53,0,0,1,.52,3.24c.14,1.23.25,2.6.34,4.11h.27a28.37,28.37,0,0,1,.44-3.61c.22-1.25.52-2.56.88-3.92l12-43.64H667.5l10.9,44.18c.18.79.36,1.76.54,2.93s.35,2.49.5,4h.18c.06-1.15.18-2.32.35-3.52s.37-2.41.61-3.65L689.89,188Z"/><path class="cls-1" d="M708.46,248.72l5.86-11.08a37.5,37.5,0,0,0,8.58,4,27.64,27.64,0,0,0,7.72,1.07q5.22,0,7.83-2.07a6.91,6.91,0,0,0,2.61-5.74,6.78,6.78,0,0,0-2.08-5.3c-1.4-1.25-3.92-2.32-7.59-3.2q-10.8-2.53-15.71-7.1t-4.9-12.7a18.17,18.17,0,0,1,6.33-14q6.33-5.74,17.78-5.74a40.49,40.49,0,0,1,9.38,1.09,39.75,39.75,0,0,1,8.83,3.22l-5.41,11.17a32.27,32.27,0,0,0-7.06-3,23.26,23.26,0,0,0-6.24-.93,11.91,11.91,0,0,0-7,1.8,5.93,5.93,0,0,0-2.52,5.15,5.4,5.4,0,0,0,2.3,4.68c1.53,1.09,4.27,2.12,8.24,3.08q10.49,2.46,15.17,7.2t4.67,13.33a18.91,18.91,0,0,1-6.45,14.87q-6.43,5.7-18.66,5.7a46.19,46.19,0,0,1-11.28-1.45A40.51,40.51,0,0,1,708.46,248.72Z"/><polygon class="cls-2" points="163.32 0.28 168.71 11.19 180.75 12.94 172.04 21.44 174.09 33.43 163.32 27.77 152.55 33.43 154.61 21.44 145.9 12.94 157.94 11.19 163.32 0.28"/></g></g></svg>