<svg xmlns="http://www.w3.org/2000/svg" viewBox="0 0 1958.4 750.69"><defs><style>.cls-1,.cls-4{fill:none;stroke:#fff;stroke-miterlimit:10;stroke-width:0.25px;}.cls-1,.cls-2{opacity:0.8;}.cls-3{opacity:0.83;}</style></defs><g id="Layer_2" data-name="Layer 2"><g id="Pinisi"><rect class="cls-1" x="0.13" y="0.13" width="1958.15" height="750.44"/><g class="cls-2"><g class="cls-3"><line class="cls-4" x1="0.13" y1="49.79" x2="150.75" y2="49.79"/><line class="cls-4" x1="0.13" y1="100" x2="150.75" y2="100"/><line class="cls-4" x1="50.33" y1="0.13" x2="50.33" y2="150.21"/><line class="cls-4" x1="100.54" y1="0.13" x2="100.54" y2="150.21"/><polyline class="cls-4" points="150.75 0.13 0.13 0.13 0.13 150.21"/></g><g class="cls-3"><line class="cls-4" x1="0.13" y1="199.88" x2="150.75" y2="199.88"/><line class="cls-4" x1="0.13" y1="250.09" x2="150.75" y2="250.09"/><line class="cls-4" x1="50.33" y1="150.21" x2="50.33" y2="300.3"/><line class="cls-4" x1="100.54" y1="150.21" x2="100.54" y2="300.3"/><polyline class="cls-4" points="150.75 150.21 0.13 150.21 0.13 300.3"/></g><g class="cls-3"><line class="cls-4" x1="0.13" y1="349.97" x2="150.75" y2="349.97"/><line class="cls-4" x1="0.13" y1="400.18" x2="150.75" y2="400.18"/><line class="cls-4" x1="50.33" y1="300.3" x2="50.33" y2="450.39"/><line class="cls-4" x1="100.54" y1="300.3" x2="100.54" y2="450.39"/><polyline class="cls-4" points="150.75 300.3 0.13 300.3 0.13 450.39"/></g><g class="cls-3"><line class="cls-4" x1="0.13" y1="500.06" x2="150.75" y2="500.06"/><line class="cls-4" x1="0.13" y1="550.27" x2="150.75" y2="550.27"/><line class="cls-4" x1="50.33" y1="450.39" x2="50.33" y2="600.48"/><line class="cls-4" x1="100.54" y1="450.39" x2="100.54" y2="600.48"/><polyline class="cls-4" points="150.75 450.39 0.13 450.39 0.13 600.48"/></g><g class="cls-3"><line class="cls-4" x1="0.13" y1="650.15" x2="150.75" y2="650.15"/><line class="cls-4" x1="0.13" y1="700.35" x2="150.75" y2="700.35"/><line class="cls-4" x1="50.33" y1="600.48" x2="50.33" y2="750.56"/><line class="cls-4" x1="100.54" y1="600.48" x2="100.54" y2="750.56"/><polyline class="cls-4" points="150.75 600.48 0.13 600.48 0.13 750.56"/></g><g class="cls-3"><line class="cls-4" x1="150.75" y1="49.79" x2="301.38" y2="49.79"/><line class="cls-4" x1="150.75" y1="100" x2="301.38" y2="100"/><line class="cls-4" x1="200.96" y1="0.13" x2="200.96" y2="150.21"/><line class="cls-4" x1="251.17" y1="0.13" x2="251.17" y2="150.21"/><polyline class="cls-4" points="301.38 0.13 150.75 0.13 150.75 150.21"/><line class="cls-4" x1="150.75" y1="199.88" x2="301.38" y2="199.88"/><line class="cls-4" x1="150.75" y1="250.09" x2="301.38" y2="250.09"/><line class="cls-4" x1="200.96" y1="150.21" x2="200.96" y2="300.3"/><line class="cls-4" x1="251.17" y1="150.21" x2="251.17" y2="300.3"/><polyline class="cls-4" points="301.38 150.21 150.75 150.21 150.75 300.3"/><line class="cls-4" x1="150.75" y1="349.97" x2="301.38" y2="349.97"/><line class="cls-4" x1="150.75" y1="400.18" x2="301.38" y2="400.18"/><line class="cls-4" x1="200.96" y1="300.3" x2="200.96" y2="450.39"/><line class="cls-4" x1="251.17" y1="300.3" x2="251.17" y2="450.39"/><polyline class="cls-4" points="301.38 300.3 150.75 300.3 150.75 450.39"/><line class="cls-4" x1="150.75" y1="500.06" x2="301.38" y2="500.06"/><line class="cls-4" x1="150.75" y1="550.27" x2="301.38" y2="550.27"/><line class="cls-4" x1="200.96" y1="450.39" x2="200.96" y2="600.48"/><line class="cls-4" x1="251.17" y1="450.39" x2="251.17" y2="600.48"/><polyline class="cls-4" points="301.38 450.39 150.75 450.39 150.75 600.48"/><line class="cls-4" x1="150.75" y1="650.15" x2="301.38" y2="650.15"/><line class="cls-4" x1="150.75" y1="700.35" x2="301.38" y2="700.35"/><line class="cls-4" x1="200.96" y1="600.48" x2="200.96" y2="750.56"/><line class="cls-4" x1="251.17" y1="600.48" x2="251.17" y2="750.56"/><polyline class="cls-4" points="301.38 600.48 150.75 600.48 150.75 750.56"/></g><g class="cls-3"><line class="cls-4" x1="301.38" y1="49.79" x2="452" y2="49.79"/><line class="cls-4" x1="301.38" y1="100" x2="452" y2="100"/><line class="cls-4" x1="351.59" y1="0.13" x2="351.59" y2="150.21"/><line class="cls-4" x1="401.8" y1="0.13" x2="401.8" y2="150.21"/><polyline class="cls-4" points="452 0.13 301.38 0.13 301.38 150.21"/><line class="cls-4" x1="301.38" y1="199.88" x2="452" y2="199.88"/><line class="cls-4" x1="301.38" y1="250.09" x2="452" y2="250.09"/><line class="cls-4" x1="351.59" y1="150.21" x2="351.59" y2="300.3"/><line class="cls-4" x1="401.8" y1="150.21" x2="401.8" y2="300.3"/><polyline class="cls-4" points="452 150.21 301.38 150.21 301.38 300.3"/><line class="cls-4" x1="301.38" y1="349.97" x2="452" y2="349.97"/><line class="cls-4" x1="301.38" y1="400.18" x2="452" y2="400.18"/><line class="cls-4" x1="351.59" y1="300.3" x2="351.59" y2="450.39"/><line class="cls-4" x1="401.8" y1="300.3" x2="401.8" y2="450.39"/><polyline class="cls-4" points="452 300.3 301.38 300.3 301.38 450.39"/><line class="cls-4" x1="301.38" y1="500.06" x2="452" y2="500.06"/><line class="cls-4" x1="301.38" y1="550.27" x2="452" y2="550.27"/><line class="cls-4" x1="351.59" y1="450.39" x2="351.59" y2="600.48"/><line class="cls-4" x1="401.8" y1="450.39" x2="401.8" y2="600.48"/><polyline class="cls-4" points="452 450.39 301.38 450.39 301.38 600.48"/><line class="cls-4" x1="301.38" y1="650.15" x2="452" y2="650.15"/><line class="cls-4" x1="301.38" y1="700.35" x2="452" y2="700.35"/><line class="cls-4" x1="351.59" y1="600.48" x2="351.59" y2="750.56"/><line class="cls-4" x1="401.8" y1="600.48" x2="401.8" y2="750.56"/><polyline class="cls-4" points="452 600.48 301.38 600.48 301.38 750.56"/><line class="cls-4" x1="452" y1="49.79" x2="602.63" y2="49.79"/><line class="cls-4" x1="452" y1="100" x2="602.63" y2="100"/><line class="cls-4" x1="502.21" y1="0.13" x2="502.21" y2="150.21"/><line class="cls-4" x1="552.42" y1="0.13" x2="552.42" y2="150.21"/><polyline class="cls-4" points="602.63 0.13 452 0.13 452 150.21"/><line class="cls-4" x1="452" y1="199.88" x2="602.63" y2="199.88"/><line class="cls-4" x1="452" y1="250.09" x2="602.63" y2="250.09"/><line class="cls-4" x1="502.21" y1="150.21" x2="502.21" y2="300.3"/><line class="cls-4" x1="552.42" y1="150.21" x2="552.42" y2="300.3"/><polyline class="cls-4" points="602.63 150.21 452 150.21 452 300.3"/><line class="cls-4" x1="452" y1="349.97" x2="602.63" y2="349.97"/><line class="cls-4" x1="452" y1="400.18" x2="602.63" y2="400.18"/><line class="cls-4" x1="502.21" y1="300.3" x2="502.21" y2="450.39"/><line class="cls-4" x1="552.42" y1="300.3" x2="552.42" y2="450.39"/><polyline class="cls-4" points="602.63 300.3 452 300.3 452 450.39"/><line class="cls-4" x1="452" y1="500.06" x2="602.63" y2="500.06"/><line class="cls-4" x1="452" y1="550.27" x2="602.63" y2="550.27"/><line class="cls-4" x1="502.21" y1="450.39" x2="502.21" y2="600.48"/><line class="cls-4" x1="552.42" y1="450.39" x2="552.42" y2="600.48"/><polyline class="cls-4" points="602.63 450.39 452 450.39 452 600.48"/><line class="cls-4" x1="452" y1="650.15" x2="602.63" y2="650.15"/><line class="cls-4" x1="452" y1="700.35" x2="602.63" y2="700.35"/><line class="cls-4" x1="502.21" y1="600.48" x2="502.21" y2="750.56"/><line class="cls-4" x1="552.42" y1="600.48" x2="552.42" y2="750.56"/><polyline class="cls-4" points="602.63 600.48 452 600.48 452 750.56"/><line class="cls-4" x1="602.63" y1="49.79" x2="753.26" y2="49.79"/><line class="cls-4" x1="602.63" y1="100" x2="753.26" y2="100"/><line class="cls-4" x1="652.84" y1="0.13" x2="652.84" y2="150.21"/><line class="cls-4" x1="703.05" y1="0.13" x2="703.05" y2="150.21"/><polyline class="cls-4" points="753.26 0.13 602.63 0.13 602.63 150.21"/><line class="cls-4" x1="602.63" y1="199.88" x2="753.26" y2="199.88"/><line class="cls-4" x1="602.63" y1="250.09" x2="753.26" y2="250.09"/><line class="cls-4" x1="652.84" y1="150.21" x2="652.84" y2="300.3"/><line class="cls-4" x1="703.05" y1="150.21" x2="703.05" y2="300.3"/><polyline class="cls-4" points="753.26 150.21 602.63 150.21 602.63 300.3"/><line class="cls-4" x1="602.63" y1="349.97" x2="753.26" y2="349.97"/><line class="cls-4" x1="602.63" y1="400.18" x2="753.26" y2="400.18"/><line class="cls-4" x1="652.84" y1="300.3" x2="652.84" y2="450.39"/><line class="cls-4" x1="703.05" y1="300.3" x2="703.05" y2="450.39"/><polyline class="cls-4" points="753.26 300.3 602.63 300.3 602.63 450.39"/><line class="cls-4" x1="602.63" y1="500.06" x2="753.26" y2="500.06"/><line class="cls-4" x1="602.63" y1="550.27" x2="753.26" y2="550.27"/><line class="cls-4" x1="652.84" y1="450.39" x2="652.84" y2="600.48"/><line class="cls-4" x1="703.05" y1="450.39" x2="703.05" y2="600.48"/><polyline class="cls-4" points="753.26 450.39 602.63 450.39 602.63 600.48"/><line class="cls-4" x1="602.63" y1="650.15" x2="753.26" y2="650.15"/><line class="cls-4" x1="602.63" y1="700.35" x2="753.26" y2="700.35"/><line class="cls-4" x1="652.84" y1="600.48" x2="652.84" y2="750.56"/><line class="cls-4" x1="703.05" y1="600.48" x2="703.05" y2="750.56"/><polyline class="cls-4" points="753.26 600.48 602.63 600.48 602.63 750.56"/></g><g class="cls-3"><line class="cls-4" x1="753.26" y1="49.79" x2="903.88" y2="49.79"/><line class="cls-4" x1="753.26" y1="100" x2="903.88" y2="100"/><line class="cls-4" x1="803.47" y1="0.13" x2="803.47" y2="150.21"/><line class="cls-4" x1="853.68" y1="0.13" x2="853.68" y2="150.21"/><polyline class="cls-4" points="903.88 0.13 753.26 0.13 753.26 150.21"/><line class="cls-4" x1="753.26" y1="199.88" x2="903.88" y2="199.88"/><line class="cls-4" x1="753.26" y1="250.09" x2="903.88" y2="250.09"/><line class="cls-4" x1="803.47" y1="150.21" x2="803.47" y2="300.3"/><line class="cls-4" x1="853.68" y1="150.21" x2="853.68" y2="300.3"/><polyline class="cls-4" points="903.88 150.21 753.26 150.21 753.26 300.3"/><line class="cls-4" x1="753.26" y1="349.97" x2="903.88" y2="349.97"/><line class="cls-4" x1="753.26" y1="400.18" x2="903.88" y2="400.18"/><line class="cls-4" x1="803.47" y1="300.3" x2="803.47" y2="450.39"/><line class="cls-4" x1="853.68" y1="300.3" x2="853.68" y2="450.39"/><polyline class="cls-4" points="903.88 300.3 753.26 300.3 753.26 450.39"/><line class="cls-4" x1="753.26" y1="500.06" x2="903.88" y2="500.06"/><line class="cls-4" x1="753.26" y1="550.27" x2="903.88" y2="550.27"/><line class="cls-4" x1="803.47" y1="450.39" x2="803.47" y2="600.48"/><line class="cls-4" x1="853.68" y1="450.39" x2="853.68" y2="600.48"/><polyline class="cls-4" points="903.88 450.39 753.26 450.39 753.26 600.48"/><line class="cls-4" x1="753.26" y1="650.15" x2="903.88" y2="650.15"/><line class="cls-4" x1="753.26" y1="700.35" x2="903.88" y2="700.35"/><line class="cls-4" x1="803.47" y1="600.48" x2="803.47" y2="750.56"/><line class="cls-4" x1="853.68" y1="600.48" x2="853.68" y2="750.56"/><polyline class="cls-4" points="903.88 600.48 753.26 600.48 753.26 750.56"/><line class="cls-4" x1="903.88" y1="49.79" x2="1054.51" y2="49.79"/><line class="cls-4" x1="903.88" y1="100" x2="1054.51" y2="100"/><line class="cls-4" x1="954.09" y1="0.13" x2="954.09" y2="150.21"/><line class="cls-4" x1="1004.3" y1="0.13" x2="1004.3" y2="150.21"/><polyline class="cls-4" points="1054.51 0.13 903.88 0.13 903.88 150.21"/><line class="cls-4" x1="903.88" y1="199.88" x2="1054.51" y2="199.88"/><line class="cls-4" x1="903.88" y1="250.09" x2="1054.51" y2="250.09"/><line class="cls-4" x1="954.09" y1="150.21" x2="954.09" y2="300.3"/><line class="cls-4" x1="1004.3" y1="150.21" x2="1004.3" y2="300.3"/><polyline class="cls-4" points="1054.51 150.21 903.88 150.21 903.88 300.3"/><line class="cls-4" x1="903.88" y1="349.97" x2="1054.51" y2="349.97"/><line class="cls-4" x1="903.88" y1="400.18" x2="1054.51" y2="400.18"/><line class="cls-4" x1="954.09" y1="300.3" x2="954.09" y2="450.39"/><line class="cls-4" x1="1004.3" y1="300.3" x2="1004.3" y2="450.39"/><polyline class="cls-4" points="1054.51 300.3 903.88 300.3 903.88 450.39"/><line class="cls-4" x1="903.88" y1="500.06" x2="1054.51" y2="500.06"/><line class="cls-4" x1="903.88" y1="550.27" x2="1054.51" y2="550.27"/><line class="cls-4" x1="954.09" y1="450.39" x2="954.09" y2="600.48"/><line class="cls-4" x1="1004.3" y1="450.39" x2="1004.3" y2="600.48"/><polyline class="cls-4" points="1054.51 450.39 903.88 450.39 903.88 600.48"/><line class="cls-4" x1="903.88" y1="650.15" x2="1054.51" y2="650.15"/><line class="cls-4" x1="903.88" y1="700.35" x2="1054.51" y2="700.35"/><line class="cls-4" x1="954.09" y1="600.48" x2="954.09" y2="750.56"/><line class="cls-4" x1="1004.3" y1="600.48" x2="1004.3" y2="750.56"/><polyline class="cls-4" points="1054.51 600.48 903.88 600.48 903.88 750.56"/><line class="cls-4" x1="1054.51" y1="49.79" x2="1205.14" y2="49.79"/><line class="cls-4" x1="1054.51" y1="100" x2="1205.14" y2="100"/><line class="cls-4" x1="1104.72" y1="0.13" x2="1104.72" y2="150.21"/><line class="cls-4" x1="1154.93" y1="0.13" x2="1154.93" y2="150.21"/><polyline class="cls-4" points="1205.14 0.13 1054.51 0.13 1054.51 150.21"/><line class="cls-4" x1="1054.51" y1="199.88" x2="1205.14" y2="199.88"/><line class="cls-4" x1="1054.51" y1="250.09" x2="1205.14" y2="250.09"/><line class="cls-4" x1="1104.72" y1="150.21" x2="1104.72" y2="300.3"/><line class="cls-4" x1="1154.93" y1="150.21" x2="1154.93" y2="300.3"/><polyline class="cls-4" points="1205.14 150.21 1054.51 150.21 1054.51 300.3"/><line class="cls-4" x1="1054.51" y1="349.97" x2="1205.14" y2="349.97"/><line class="cls-4" x1="1054.51" y1="400.18" x2="1205.14" y2="400.18"/><line class="cls-4" x1="1104.72" y1="300.3" x2="1104.72" y2="450.39"/><line class="cls-4" x1="1154.93" y1="300.3" x2="1154.93" y2="450.39"/><polyline class="cls-4" points="1205.14 300.3 1054.51 300.3 1054.51 450.39"/><line class="cls-4" x1="1054.51" y1="500.06" x2="1205.14" y2="500.06"/><line class="cls-4" x1="1054.51" y1="550.27" x2="1205.14" y2="550.27"/><line class="cls-4" x1="1104.72" y1="450.39" x2="1104.72" y2="600.48"/><line class="cls-4" x1="1154.93" y1="450.39" x2="1154.93" y2="600.48"/><polyline class="cls-4" points="1205.14 450.39 1054.51 450.39 1054.51 600.48"/><line class="cls-4" x1="1054.51" y1="650.15" x2="1205.14" y2="650.15"/><line class="cls-4" x1="1054.51" y1="700.35" x2="1205.14" y2="700.35"/><line class="cls-4" x1="1104.72" y1="600.48" x2="1104.72" y2="750.56"/><line class="cls-4" x1="1154.93" y1="600.48" x2="1154.93" y2="750.56"/><polyline class="cls-4" points="1205.14 600.48 1054.51 600.48 1054.51 750.56"/></g><g class="cls-3"><line class="cls-4" x1="1205.14" y1="49.79" x2="1355.76" y2="49.79"/><line class="cls-4" x1="1205.14" y1="100" x2="1355.76" y2="100"/><line class="cls-4" x1="1255.35" y1="0.13" x2="1255.35" y2="150.21"/><line class="cls-4" x1="1305.56" y1="0.13" x2="1305.56" y2="150.21"/><polyline class="cls-4" points="1355.76 0.13 1205.14 0.13 1205.14 150.21"/><line class="cls-4" x1="1205.14" y1="199.88" x2="1355.76" y2="199.88"/><line class="cls-4" x1="1205.14" y1="250.09" x2="1355.76" y2="250.09"/><line class="cls-4" x1="1255.35" y1="150.21" x2="1255.35" y2="300.3"/><line class="cls-4" x1="1305.56" y1="150.21" x2="1305.56" y2="300.3"/><polyline class="cls-4" points="1355.76 150.21 1205.14 150.21 1205.14 300.3"/><line class="cls-4" x1="1205.14" y1="349.97" x2="1355.76" y2="349.97"/><line class="cls-4" x1="1205.14" y1="400.18" x2="1355.76" y2="400.18"/><line class="cls-4" x1="1255.35" y1="300.3" x2="1255.35" y2="450.39"/><line class="cls-4" x1="1305.56" y1="300.3" x2="1305.56" y2="450.39"/><polyline class="cls-4" points="1355.76 300.3 1205.14 300.3 1205.14 450.39"/><line class="cls-4" x1="1205.14" y1="500.06" x2="1355.76" y2="500.06"/><line class="cls-4" x1="1205.14" y1="550.27" x2="1355.76" y2="550.27"/><line class="cls-4" x1="1255.35" y1="450.39" x2="1255.35" y2="600.48"/><line class="cls-4" x1="1305.56" y1="450.39" x2="1305.56" y2="600.48"/><polyline class="cls-4" points="1355.76 450.39 1205.14 450.39 1205.14 600.48"/><line class="cls-4" x1="1205.14" y1="650.15" x2="1355.76" y2="650.15"/><line class="cls-4" x1="1205.14" y1="700.35" x2="1355.76" y2="700.35"/><line class="cls-4" x1="1255.35" y1="600.48" x2="1255.35" y2="750.56"/><line class="cls-4" x1="1305.56" y1="600.48" x2="1305.56" y2="750.56"/><polyline class="cls-4" points="1355.76 600.48 1205.14 600.48 1205.14 750.56"/><line class="cls-4" x1="1355.76" y1="49.79" x2="1506.39" y2="49.79"/><line class="cls-4" x1="1355.76" y1="100" x2="1506.39" y2="100"/><line class="cls-4" x1="1405.97" y1="0.13" x2="1405.97" y2="150.21"/><line class="cls-4" x1="1456.18" y1="0.13" x2="1456.18" y2="150.21"/><polyline class="cls-4" points="1506.39 0.13 1355.76 0.13 1355.76 150.21"/><line class="cls-4" x1="1355.76" y1="199.88" x2="1506.39" y2="199.88"/><line class="cls-4" x1="1355.76" y1="250.09" x2="1506.39" y2="250.09"/><line class="cls-4" x1="1405.97" y1="150.21" x2="1405.97" y2="300.3"/><line class="cls-4" x1="1456.18" y1="150.21" x2="1456.18" y2="300.3"/><polyline class="cls-4" points="1506.39 150.21 1355.76 150.21 1355.76 300.3"/><line class="cls-4" x1="1355.76" y1="349.97" x2="1506.39" y2="349.97"/><line class="cls-4" x1="1355.76" y1="400.18" x2="1506.39" y2="400.18"/><line class="cls-4" x1="1405.97" y1="300.3" x2="1405.97" y2="450.39"/><line class="cls-4" x1="1456.18" y1="300.3" x2="1456.18" y2="450.39"/><polyline class="cls-4" points="1506.39 300.3 1355.76 300.3 1355.76 450.39"/><line class="cls-4" x1="1355.76" y1="500.06" x2="1506.39" y2="500.06"/><line class="cls-4" x1="1355.76" y1="550.27" x2="1506.39" y2="550.27"/><line class="cls-4" x1="1405.97" y1="450.39" x2="1405.97" y2="600.48"/><line class="cls-4" x1="1456.18" y1="450.39" x2="1456.18" y2="600.48"/><polyline class="cls-4" points="1506.39 450.39 1355.76 450.39 1355.76 600.48"/><line class="cls-4" x1="1355.76" y1="650.15" x2="1506.39" y2="650.15"/><line class="cls-4" x1="1355.76" y1="700.35" x2="1506.39" y2="700.35"/><line class="cls-4" x1="1405.97" y1="600.48" x2="1405.97" y2="750.56"/><line class="cls-4" x1="1456.18" y1="600.48" x2="1456.18" y2="750.56"/><polyline class="cls-4" points="1506.39 600.48 1355.76 600.48 1355.76 750.56"/><line class="cls-4" x1="1506.39" y1="49.79" x2="1657.02" y2="49.79"/><line class="cls-4" x1="1506.39" y1="100" x2="1657.02" y2="100"/><line class="cls-4" x1="1556.6" y1="0.13" x2="1556.6" y2="150.21"/><line class="cls-4" x1="1606.81" y1="0.13" x2="1606.81" y2="150.21"/><polyline class="cls-4" points="1657.02 0.13 1506.39 0.13 1506.39 150.21"/><line class="cls-4" x1="1506.39" y1="199.88" x2="1657.02" y2="199.88"/><line class="cls-4" x1="1506.39" y1="250.09" x2="1657.02" y2="250.09"/><line class="cls-4" x1="1556.6" y1="150.21" x2="1556.6" y2="300.3"/><line class="cls-4" x1="1606.81" y1="150.21" x2="1606.81" y2="300.3"/><polyline class="cls-4" points="1657.02 150.21 1506.39 150.21 1506.39 300.3"/><line class="cls-4" x1="1506.39" y1="349.97" x2="1657.02" y2="349.97"/><line class="cls-4" x1="1506.39" y1="400.18" x2="1657.02" y2="400.18"/><line class="cls-4" x1="1556.6" y1="300.3" x2="1556.6" y2="450.39"/><line class="cls-4" x1="1606.81" y1="300.3" x2="1606.81" y2="450.39"/><polyline class="cls-4" points="1657.02 300.3 1506.39 300.3 1506.39 450.39"/><line class="cls-4" x1="1506.39" y1="500.06" x2="1657.02" y2="500.06"/><line class="cls-4" x1="1506.39" y1="550.27" x2="1657.02" y2="550.27"/><line class="cls-4" x1="1556.6" y1="450.39" x2="1556.6" y2="600.48"/><line class="cls-4" x1="1606.81" y1="450.39" x2="1606.81" y2="600.48"/><polyline class="cls-4" points="1657.02 450.39 1506.39 450.39 1506.39 600.48"/><line class="cls-4" x1="1506.39" y1="650.15" x2="1657.02" y2="650.15"/><line class="cls-4" x1="1506.39" y1="700.35" x2="1657.02" y2="700.35"/><line class="cls-4" x1="1556.6" y1="600.48" x2="1556.6" y2="750.56"/><line class="cls-4" x1="1606.81" y1="600.48" x2="1606.81" y2="750.56"/><polyline class="cls-4" points="1657.02 600.48 1506.39 600.48 1506.39 750.56"/></g><g class="cls-3"><line class="cls-4" x1="1657.02" y1="49.79" x2="1807.64" y2="49.79"/><line class="cls-4" x1="1657.02" y1="100" x2="1807.64" y2="100"/><line class="cls-4" x1="1707.23" y1="0.13" x2="1707.23" y2="150.21"/><line class="cls-4" x1="1757.43" y1="0.13" x2="1757.43" y2="150.21"/><polyline class="cls-4" points="1807.64 0.13 1657.02 0.13 1657.02 150.21"/><line class="cls-4" x1="1657.02" y1="199.88" x2="1807.64" y2="199.88"/><line class="cls-4" x1="1657.02" y1="250.09" x2="1807.64" y2="250.09"/><line class="cls-4" x1="1707.23" y1="150.21" x2="1707.23" y2="300.3"/><line class="cls-4" x1="1757.43" y1="150.21" x2="1757.43" y2="300.3"/><polyline class="cls-4" points="1807.64 150.21 1657.02 150.21 1657.02 300.3"/><line class="cls-4" x1="1657.02" y1="349.97" x2="1807.64" y2="349.97"/><line class="cls-4" x1="1657.02" y1="400.18" x2="1807.64" y2="400.18"/><line class="cls-4" x1="1707.23" y1="300.3" x2="1707.23" y2="450.39"/><line class="cls-4" x1="1757.43" y1="300.3" x2="1757.43" y2="450.39"/><polyline class="cls-4" points="1807.64 300.3 1657.02 300.3 1657.02 450.39"/><line class="cls-4" x1="1657.02" y1="500.06" x2="1807.64" y2="500.06"/><line class="cls-4" x1="1657.02" y1="550.27" x2="1807.64" y2="550.27"/><line class="cls-4" x1="1707.23" y1="450.39" x2="1707.23" y2="600.48"/><line class="cls-4" x1="1757.43" y1="450.39" x2="1757.43" y2="600.48"/><polyline class="cls-4" points="1807.64 450.39 1657.02 450.39 1657.02 600.48"/><line class="cls-4" x1="1657.02" y1="650.15" x2="1807.64" y2="650.15"/><line class="cls-4" x1="1657.02" y1="700.35" x2="1807.64" y2="700.35"/><line class="cls-4" x1="1707.23" y1="600.48" x2="1707.23" y2="750.56"/><line class="cls-4" x1="1757.43" y1="600.48" x2="1757.43" y2="750.56"/><polyline class="cls-4" points="1807.64 600.48 1657.02 600.48 1657.02 750.56"/></g><g class="cls-3"><line class="cls-4" x1="1807.64" y1="49.79" x2="1958.27" y2="49.79"/><line class="cls-4" x1="1807.64" y1="100" x2="1958.27" y2="100"/><line class="cls-4" x1="1857.85" y1="0.13" x2="1857.85" y2="150.21"/><line class="cls-4" x1="1908.06" y1="0.13" x2="1908.06" y2="150.21"/><polyline class="cls-4" points="1958.27 0.13 1807.64 0.13 1807.64 150.21"/><line class="cls-4" x1="1807.64" y1="199.88" x2="1958.27" y2="199.88"/><line class="cls-4" x1="1807.64" y1="250.09" x2="1958.27" y2="250.09"/><line class="cls-4" x1="1857.85" y1="150.21" x2="1857.85" y2="300.3"/><line class="cls-4" x1="1908.06" y1="150.21" x2="1908.06" y2="300.3"/><polyline class="cls-4" points="1958.27 150.21 1807.64 150.21 1807.64 300.3"/><line class="cls-4" x1="1807.64" y1="349.97" x2="1958.27" y2="349.97"/><line class="cls-4" x1="1807.64" y1="400.18" x2="1958.27" y2="400.18"/><line class="cls-4" x1="1857.85" y1="300.3" x2="1857.85" y2="450.39"/><line class="cls-4" x1="1908.06" y1="300.3" x2="1908.06" y2="450.39"/><polyline class="cls-4" points="1958.27 300.3 1807.64 300.3 1807.64 450.39"/><line class="cls-4" x1="1807.64" y1="500.06" x2="1958.27" y2="500.06"/><line class="cls-4" x1="1807.64" y1="550.27" x2="1958.27" y2="550.27"/><line class="cls-4" x1="1857.85" y1="450.39" x2="1857.85" y2="600.48"/><line class="cls-4" x1="1908.06" y1="450.39" x2="1908.06" y2="600.48"/><polyline class="cls-4" points="1958.27 450.39 1807.64 450.39 1807.64 600.48"/><line class="cls-4" x1="1807.64" y1="650.15" x2="1958.27" y2="650.15"/><line class="cls-4" x1="1807.64" y1="700.35" x2="1958.27" y2="700.35"/><line class="cls-4" x1="1857.85" y1="600.48" x2="1857.85" y2="750.56"/><line class="cls-4" x1="1908.06" y1="600.48" x2="1908.06" y2="750.56"/><polyline class="cls-4" points="1958.27 600.48 1807.64 600.48 1807.64 750.56"/></g></g></g></g></svg>