<svg xmlns="http://www.w3.org/2000/svg" viewBox="0 0 193.8 192.8"><defs><style>.cls-1{stroke:#000;stroke-miterlimit:10;}.cls-2{fill:#fff;}</style></defs><g id="Layer_2" data-name="Layer 2"><g id="Layer_1-2" data-name="Layer 1"><rect class="cls-1" x="0.5" y="0.5" width="192.8" height="191.8" rx="35.8"/><path class="cls-2" d="M123.59,87.25V81.56H70v5.9a12.1,12.1,0,0,0-9.36,11.78V145a12.1,12.1,0,0,0,12.1,12.1H122a12.1,12.1,0,0,0,12.1-12.1V99.24A12.09,12.09,0,0,0,123.59,87.25Z"/><path class="cls-1" d="M113.06,108.44A11.1,11.1,0,0,0,97.4,108a11.38,11.38,0,0,0-16.07,16.07l0,0L97.37,140.2l0,0,0,0,16.07-16.07,0,0A11.1,11.1,0,0,0,113.06,108.44Z"/><rect class="cls-2" x="67.57" y="64.63" width="59.6" height="11.35" rx="5.68"/><path class="cls-2" d="M91,55.62a12.74,12.74,0,0,1,12.12-12.71A14.34,14.34,0,1,0,89,59.69a14.76,14.76,0,0,0,2.59-.24A12.73,12.73,0,0,1,91,55.62Z"/><path class="cls-2" d="M114.42,61.24a10.5,10.5,0,1,0-18,0Z"/></g></g></svg>