<svg xmlns="http://www.w3.org/2000/svg" viewBox="0 0 115.12 33.66"><defs><style>.cls-1{fill:#2c363b;stroke:#fdfeff;stroke-miterlimit:10;}.cls-2{opacity:0.8;}.cls-3{fill:#fdfeff;}</style></defs><g id="Layer_2" data-name="Layer 2"><g id="Pinisi"><rect class="cls-1" x="0.5" y="0.5" width="114.12" height="32.66"/><g class="cls-2"><path class="cls-3" d="M22.65,17.15a.89.89,0,0,1-.55.08,3,3,0,0,1-1.64-.66,2.08,2.08,0,0,1-.6-1.31c0-.11,0-.21,0-.31s0-.21,0-.33,0-.23,0-.34l0-.32q-.06-.3-.12-.51a.34.34,0,0,0-.21-.26.87.87,0,0,0-.76.27,4.51,4.51,0,0,0-.9,1,13.76,13.76,0,0,0-.89,1.56,12.94,12.94,0,0,0-.73,1.85A8,8,0,0,0,15.69,21a3.65,3.65,0,0,0,.22,1.18,1,1,0,0,0,.53.6.84.84,0,0,0,.6-.05,2,2,0,0,0,.61-.47,5,5,0,0,0,.6-.77c.19-.31.37-.63.54-1a2.25,2.25,0,0,1-1.48-.34,2.54,2.54,0,0,1-.82-1.3.39.39,0,0,1,0-.32.57.57,0,0,1,.25-.2,2.06,2.06,0,0,1,.43-.11l.58-.09c.39-.08.81-.15,1.23-.2l1.11-.15a2.31,2.31,0,0,1,.88,0,1.25,1.25,0,0,1,.62.41,4.82,4.82,0,0,1,.36.43l.31.41a1.21,1.21,0,0,1,.28.66,2.1,2.1,0,0,1-.13.71,10.51,10.51,0,0,1-1.36,2.41,6.11,6.11,0,0,1-1.67,1.5,3.58,3.58,0,0,1-1.21.43,4.69,4.69,0,0,1-1.35,0,8.62,8.62,0,0,1-2.4-.68,3.54,3.54,0,0,1-.81-.59,3.17,3.17,0,0,1-.61-.83A5,5,0,0,1,12.42,21a9.19,9.19,0,0,1-.08-2.05,12.47,12.47,0,0,1,1.21-4.41,12.24,12.24,0,0,1,1.23-2,8.07,8.07,0,0,1,1.61-1.59,2.53,2.53,0,0,1,.62-.35,3.56,3.56,0,0,1,.68-.17,4,4,0,0,1,.68-.05,3.1,3.1,0,0,1,.63.05,6.6,6.6,0,0,1,.85.15l.84.27a5.87,5.87,0,0,1,.76.35,3.89,3.89,0,0,1,.65.44,2.47,2.47,0,0,1,.77.94,4.11,4.11,0,0,1,.3,1.16c0,.22,0,.47,0,.75a7.7,7.7,0,0,1-.05.83c0,.28-.05.54-.09.8s-.08.47-.12.64A.78.78,0,0,1,22.65,17.15Z"/><path class="cls-3" d="M28.08,24.11l-2,.4a3.28,3.28,0,0,1-.59.11,1.29,1.29,0,0,1-.41,0,1.05,1.05,0,0,1-.3-.1l-.23-.14c-.18-.12-.35-.24-.5-.36s-.34-.28-.59-.47A1.68,1.68,0,0,1,23,23a1.15,1.15,0,0,1-.08-.68c0-.41.09-.91.16-1.48s.17-1.19.28-1.85.22-1.34.35-2.05.27-1.42.41-2.12.31-1.38.46-2,.31-1.24.46-1.79a.8.8,0,0,1,.4-.55,1.28,1.28,0,0,1,.75.06,7.09,7.09,0,0,1,1.07.36,5,5,0,0,1,1,.52,1.57,1.57,0,0,1,.52.53.88.88,0,0,1,0,.63c-.21.64-.43,1.35-.65,2.12s-.44,1.55-.66,2.36-.42,1.62-.62,2.43-.38,1.57-.55,2.31c.49-.08.95-.15,1.37-.19l1.4-.11a1.72,1.72,0,0,1,.68.05.93.93,0,0,1,.42.4,3,3,0,0,1,.31.58,5.43,5.43,0,0,1,.19.57.7.7,0,0,1,.05.45c0,.07-.22.14-.55.2Z"/><path class="cls-3" d="M42.08,12.79A4.83,4.83,0,0,1,42.49,14a12.39,12.39,0,0,1,.08,2.54,14.24,14.24,0,0,1-.48,2.72,12.35,12.35,0,0,1-1,2.55,7.17,7.17,0,0,1-1.59,2,3.56,3.56,0,0,1-1.35.67,4.92,4.92,0,0,1-1.61.07,11.56,11.56,0,0,1-1.25-.2A4.62,4.62,0,0,1,34.1,24a4.86,4.86,0,0,1-.85-.57,2.94,2.94,0,0,1-.65-.81A6.25,6.25,0,0,1,32,21,8.85,8.85,0,0,1,31.85,19a11.27,11.27,0,0,1,.89-4.16A10.25,10.25,0,0,1,33.81,13a8.73,8.73,0,0,1,1.46-1.63,3.89,3.89,0,0,1,1.34-.65,3.44,3.44,0,0,1,1.48-.12,9.76,9.76,0,0,1,1.73.45,5,5,0,0,1,1.37.74A3.29,3.29,0,0,1,42.08,12.79Zm-4.22.83A5.51,5.51,0,0,0,37,14.68a11.68,11.68,0,0,0-.78,1.5,13.48,13.48,0,0,0-.58,1.59,8.8,8.8,0,0,0-.32,1.56,8.66,8.66,0,0,0-.06,1.5,3.72,3.72,0,0,0,.22,1.2.89.89,0,0,0,.56.6.75.75,0,0,0,.7-.14,3.11,3.11,0,0,0,.74-.78,7.21,7.21,0,0,0,.7-1.31,12,12,0,0,0,.56-1.69,13.67,13.67,0,0,0,.34-1.65,11.45,11.45,0,0,0,.13-1.69A5.46,5.46,0,0,0,39.09,14c-.11-.38-.26-.6-.48-.66S38.14,13.36,37.86,13.62Z"/><path class="cls-3" d="M42.92,21a3.39,3.39,0,0,1,.64,0,2.43,2.43,0,0,1,.61.1,1.91,1.91,0,0,1,.54.25,8.28,8.28,0,0,0,2.37,1.09,1.64,1.64,0,0,0,1.45-.13.21.21,0,0,0,.09-.31,1.51,1.51,0,0,0-.4-.42,7.36,7.36,0,0,0-.73-.53c-.3-.2-.61-.39-.94-.59l-1-.64q-.5-.33-.9-.66a4.66,4.66,0,0,1-.79-.81,3.61,3.61,0,0,1-.55-3.35,5,5,0,0,1,.49-1.22,9.4,9.4,0,0,1,.81-1.24,10,10,0,0,1,1-1.12,8.25,8.25,0,0,1,1.16-.88,3.16,3.16,0,0,1,.5-.29A2.67,2.67,0,0,1,48,10a3.19,3.19,0,0,1,.83,0,4,4,0,0,1,.93.16,11.33,11.33,0,0,1,1.44.64,6.42,6.42,0,0,1,1.23.83,2.85,2.85,0,0,1,.49.61,2.42,2.42,0,0,1,.25.59,2.37,2.37,0,0,1,.08.57c0,.19,0,.36,0,.52s-.1.6-.18.95-.16.71-.26,1.07-.21.71-.32,1a6.39,6.39,0,0,1-.34.83,1,1,0,0,1-.4.41.78.78,0,0,1-.6-.09c-1.46-.49-2.13-1.19-2-2.11a5.22,5.22,0,0,1,.12-.66c.06-.24.11-.49.17-.74s.11-.49.16-.71a2.26,2.26,0,0,0,0-.54c0-.13-.07-.21-.16-.24s-.24,0-.44.18a3,3,0,0,0-.6.44,5.89,5.89,0,0,0-.63.68,5.22,5.22,0,0,0-.52.8,3,3,0,0,0-.3.88,2.08,2.08,0,0,0,0,.86,1.47,1.47,0,0,0,.47.76,7.33,7.33,0,0,0,1,.84c.38.26.76.52,1.14.76s.74.49,1.07.73a4.79,4.79,0,0,1,.84.73,1.91,1.91,0,0,1,.41.8,1.3,1.3,0,0,1-.17.89,3.93,3.93,0,0,1-.44.73,3.61,3.61,0,0,1-.77.73,4.55,4.55,0,0,1-1.17.56,5.64,5.64,0,0,1-1.65.24,6.13,6.13,0,0,1-2.52-.47,8.52,8.52,0,0,1-2.52-1.71c-.47-.39-.71-.7-.73-.91a.43.43,0,0,1,.3-.46A2.05,2.05,0,0,1,42.92,21Z"/><path class="cls-3" d="M57.53,21.68a18.21,18.21,0,0,0-2.1.41c-.21.42-.4.8-.56,1.16s-.32.71-.46,1.05c-.09.18-.19.29-.32.32a1.12,1.12,0,0,1-.55-.08l-.45-.19a3.82,3.82,0,0,1-.51-.23l-.33-.21a.69.69,0,0,1-.23-.22.72.72,0,0,1-.09-.33,2.15,2.15,0,0,1,.09-.53c.26-.74.59-1.6,1-2.6s.86-2,1.33-3.07,1-2.1,1.46-3.13,1-1.94,1.41-2.74a2,2,0,0,1,.63-.7A1.7,1.7,0,0,1,59,10.38c.44,0,.83.06,1.17.1s.65.11.94.17a7.32,7.32,0,0,1,.78.21l.73.21a1,1,0,0,1,.63.46,1.44,1.44,0,0,1,.09.75c-.07.76-.12,1.63-.16,2.61s-.08,2-.1,3.07,0,2.14,0,3.21,0,2.07,0,3a.52.52,0,0,1-.12.4.82.82,0,0,1-.54.12c-.27,0-.53,0-.76,0a2.32,2.32,0,0,1-.72-.15,1,1,0,0,1-.54-.29,1.28,1.28,0,0,1-.22-.62c0-.31-.08-.65-.11-1s-.06-.77-.09-1.21Zm.79-2.76,1.46-.13c0-.87,0-1.74-.05-2.61s0-1.73,0-2.59c-.43.78-.89,1.64-1.38,2.59s-1,1.92-1.5,2.93Z"/><path class="cls-3" d="M67.23,22.51l-.36,1.76a.53.53,0,0,1-.22.33.68.68,0,0,1-.5,0c-.29-.07-.54-.13-.77-.17a2.45,2.45,0,0,1-.64-.23.92.92,0,0,1-.41-.42,1.25,1.25,0,0,1-.08-.67c0-.22,0-.54.08-1s.09-.91.14-1.45.11-1.12.18-1.73.15-1.24.23-1.86.17-1.22.26-1.8.2-1.11.31-1.57a6.36,6.36,0,0,1,.35-1.15,1.14,1.14,0,0,1,.4-.57c.66-.3,1.35-.59,2.07-.88a10.39,10.39,0,0,1,2.13-.61,5.76,5.76,0,0,1,2,0,3,3,0,0,1,1.64.84,10.93,10.93,0,0,1,1,1.31,5.65,5.65,0,0,1,.71,1.7,2.64,2.64,0,0,1-.16,1.76,5.74,5.74,0,0,1-1.85,2,17,17,0,0,1-3.08,1.73l.81.88q.44.46.9.93c.31.31.62.61.92.89s.59.54.86.76.31.32.29.43a.57.57,0,0,1-.27.33,1.44,1.44,0,0,1-.49.27l-.49.09a2.2,2.2,0,0,1-.78.05,2.36,2.36,0,0,1-1-.37c-.25-.17-.53-.39-.85-.64s-.65-.54-1-.85-.68-.63-1-1a9.65,9.65,0,0,1-.93-1C67.49,21.29,67.35,21.91,67.23,22.51Zm1.62-6.63c-.16.62-.34,1.28-.54,2a9.1,9.1,0,0,0,2-.91,8.22,8.22,0,0,0,1.43-1.09,3.85,3.85,0,0,0,.83-1,1,1,0,0,0,.16-.77c-.12-.3-.5-.45-1.13-.45a5.75,5.75,0,0,0-1,.11,5.43,5.43,0,0,0-1.18.42C69.18,14.68,69,15.26,68.85,15.88Z"/><path class="cls-3" d="M81.05,12.2a1.15,1.15,0,0,1,0,.66c-.15.48-.31,1-.49,1.65s-.35,1.27-.53,2-.35,1.39-.52,2.11S79.16,20,79,20.69s-.31,1.34-.44,1.95-.25,1.16-.35,1.64a.55.55,0,0,1-.21.35.84.84,0,0,1-.55,0l-.8-.22a5.56,5.56,0,0,1-.71-.29,1.09,1.09,0,0,1-.49-.41,1.17,1.17,0,0,1-.07-.65c0-.37.07-.86.14-1.45s.15-1.24.25-1.94.22-1.45.35-2.22.26-1.55.39-2.29.27-1.46.41-2.12.26-1.25.38-1.76a.87.87,0,0,1,.39-.56,1.16,1.16,0,0,1,.75,0,6.31,6.31,0,0,1,1.07.38,7.27,7.27,0,0,1,1,.54A1.43,1.43,0,0,1,81.05,12.2Z"/><path class="cls-3" d="M80.8,21.41a9,9,0,0,1-.15-1.7,17.18,17.18,0,0,1,.12-2c.09-.69.2-1.4.34-2.11s.3-1.44.47-2.15.36-1.43.55-2.11c.09-.31.21-.5.38-.56a1.2,1.2,0,0,1,.76.08,5.7,5.7,0,0,1,.92.37,6,6,0,0,1,.86.53,1.38,1.38,0,0,1,.59,1.6q-.26.82-.54,1.8c-.19.64-.36,1.3-.52,2s-.29,1.3-.41,1.93a13.13,13.13,0,0,0-.2,1.7A4.32,4.32,0,0,0,84.05,22a.71.71,0,0,0,.47.59c.29.07.57-.07.85-.42a6.25,6.25,0,0,0,.79-1.46,22.05,22.05,0,0,0,.72-2.17c.23-.82.44-1.67.64-2.54s.37-1.72.53-2.56.31-1.6.44-2.26c0-.32.13-.51.35-.58a1.46,1.46,0,0,1,.77,0,5.3,5.3,0,0,1,1,.38c.35.18.66.35,1,.52a1.82,1.82,0,0,1,.34.27.59.59,0,0,1,.17.24.53.53,0,0,1,0,.28c0,.11,0,.23-.07.36-.32,1.53-.64,2.93-1,4.21a33.81,33.81,0,0,1-1,3.38,12.86,12.86,0,0,1-1.18,2.46,4.27,4.27,0,0,1-1.43,1.44,4.36,4.36,0,0,1-1.12.38,4.79,4.79,0,0,1-1.28.05,5.56,5.56,0,0,1-2.36-.6,4.93,4.93,0,0,1-.76-.53,2.83,2.83,0,0,1-.6-.75A4,4,0,0,1,80.8,21.41Z"/><path class="cls-3" d="M94.77,18.73c-.13.73-.24,1.42-.35,2.1s-.2,1.3-.28,1.88S94,23.82,94,24.28a.61.61,0,0,1-.21.38.81.81,0,0,1-.53,0c-.24-.06-.49-.12-.74-.2a5.67,5.67,0,0,1-.7-.28,1.23,1.23,0,0,1-.54-.42,1,1,0,0,1-.11-.64c0-.42,0-.92.05-1.53s.09-1.25.16-2,.15-1.43.23-2.19.18-1.5.28-2.24.21-1.43.31-2.09.2-1.23.29-1.73a1,1,0,0,1,.41-.68,1.46,1.46,0,0,1,.82-.06,13.65,13.65,0,0,1,1.47.29c.4.11.8.23,1.21.38a2.86,2.86,0,0,1,.61.31,2,2,0,0,1,.35.37,1.7,1.7,0,0,1,.18.44c0,.16.08.34.12.55s0,.21,0,.34,0,.37.1.71.12.83.22,1.46.23,1.49.4,2.59q.26-.57.6-1.26c.23-.46.46-.93.71-1.41s.5-1,.76-1.44.51-.93.76-1.36.46-.89.64-1.21a3,3,0,0,1,.56-.72,1.15,1.15,0,0,1,.65-.28,2.62,2.62,0,0,1,.92.13c.43.12.9.25,1.38.42a10.86,10.86,0,0,1,1.43.56,1.09,1.09,0,0,1,.59.51,1.23,1.23,0,0,1-.06.83c-.16.5-.34,1.08-.54,1.73s-.41,1.33-.62,2-.42,1.44-.62,2.18-.41,1.44-.59,2.11-.36,1.29-.51,1.86-.27,1-.35,1.41a1,1,0,0,1-.26.41c-.09.09-.28.1-.56,0s-.49-.11-.75-.19a2.93,2.93,0,0,1-.67-.27,1,1,0,0,1-.49-.42,1,1,0,0,1,0-.64c0-.32.11-.73.21-1.24s.21-1.06.33-1.68.27-1.25.43-1.92.32-1.33.5-2c-.32.56-.66,1.16-1,1.81s-.71,1.29-1,1.92-.65,1.23-.93,1.79-.51,1-.68,1.4c-.06.11-.1.21-.14.28a.32.32,0,0,1-.13.15.46.46,0,0,1-.21.05.89.89,0,0,1-.34,0,10.15,10.15,0,0,1-1.12-.28,2.15,2.15,0,0,1-.3-.14.83.83,0,0,1-.23-.19,1.06,1.06,0,0,1-.16-.3,4.31,4.31,0,0,1-.16-.45c-.21-.76-.41-1.65-.61-2.65s-.38-2-.54-3.11C95,17.28,94.9,18,94.77,18.73Z"/></g></g></g></svg>