<svg xmlns="http://www.w3.org/2000/svg" viewBox="0 0 720 480"><defs><style>.cls-1{fill:#2c363b;}.cls-1,.cls-2{stroke:#2c363b;stroke-miterlimit:10;stroke-width:0.75px;}.cls-2,.cls-3{fill:none;}</style></defs><g id="Layer_2" data-name="Layer 2"><g id="Layer_1-2" data-name="Layer 1"><rect class="cls-1" x="305.13" y="364.26" width="19.22" height="25.89" transform="translate(629.47 754.4) rotate(-180)"/><rect class="cls-1" x="280.57" y="364.26" width="19.22" height="25.89" transform="translate(580.35 754.4) rotate(-180)"/><path class="cls-2" d="M91.8,412.05l1.13-9.92,153.63,6.72-3.31,6.69C194.1,415.42,142.39,414.45,91.8,412.05Z"/><polygon class="cls-1" points="100.97 384.65 100.97 405.47 229.13 408.09 229.13 392.12 100.97 384.65"/><path class="cls-1" d="M531,418.94s-11.87,1.7-14.19,1.66l.12-3.53v-3.89l171.13-44.36v3.58l-91.14,23.79,1.32,3.47-2.6.93-1.44-3.69-35.65,9.31,2.4,5.62-3,.84-2.2-5.74-27.71,7.23H531Z"/><path class="cls-1" d="M67,437.66c233.85,11,487.75,2,487.75,2h0l-10.46,6.87H74.68Z"/><path class="cls-1" d="M545.31,187.18l-2.19,5S345.65,93.37,148.77,37.2l1-2.19S320,79.92,545.31,187.18Z"/><polygon class="cls-1" points="216.28 190.54 214.27 193.08 470.71 388.2 472.73 385.66 471.47 384.7 470.87 385.6 216.28 190.54"/><path class="cls-1" d="M82.44,190.41l-.64,1.84s116.86,34.51,181.09,65.13c0,0,2.34-1.09.7-2.39C263.59,255,174.46,215.16,82.44,190.41Z"/><path class="cls-1" d="M77.59,280.69l.87,1.89c53.68,21.31,133,58,133,58l.17-1.83S90.21,284,77.59,280.69Z"/><path class="cls-2" d="M81,281.83s18.07-29.19,5.81-88.06c0,0,124.23,41.29,143.83,49.57s30.17,13.07,30.17,13.07-24,12.43-29.42,30.35-24.73,49.79-24.73,49.79Z"/><path class="cls-2" d="M470.87,385.6S498.76,282.48,501.45,269s16.58-72,37.94-81.27c0,0-209.48-100.21-339.34-135,0,0,77.58,97.54,24.5,144.12Z"/><polygon class="cls-1" points="81 342.53 82 344.62 413.07 344.34 406.64 339.45 81 342.53"/><polygon class="cls-1" points="393.35 400.71 386.38 400.71 383.59 351.69 391.16 351.69 393.35 400.71"/><polygon class="cls-1" points="374.82 106.11 378.61 106.11 389.36 353.28 384.78 353.28 374.82 106.11"/><polygon class="cls-1" points="380.55 150.68 383.74 162.75 383.74 162.75 450.29 400.26 446.18 400.26 381.07 162.75 377.91 150.68 380.55 150.68"/><rect class="cls-1" x="242.77" y="344.48" width="8.91" height="3.03"/><polygon class="cls-1" points="242.78 349.77 242.78 347.51 251.69 347.51 384.61 348.96 384.72 351.69 242.78 349.77"/><path class="cls-2" d="M31.36,376.44l15.08,3.13,4.93,43.32,3.14.3,35.55,4.19,6-52.59-63.79-9.52ZM52.79,383l36,4.93L86,410.64l-29.57-1.8Z"/><path class="cls-1" d="M91.8,412.05h0l-.7,6.16c203.47,9.6,424.93-3.66,424.93-3.66l1-6.16S295.35,421.68,91.8,412.05Z"/><polygon class="cls-1" points="88.79 387.94 85.95 410.64 71.91 409.79 71.91 409.79 71.91 405.57 78.19 405.57 78.19 386.49 88.79 387.94"/><polygon class="cls-1" points="71.91 409.79 67.88 409.54 67.88 385.08 71.91 385.63 71.91 409.79"/><polygon class="cls-1" points="73.56 348.95 73.56 362.03 71.84 361.85 71.84 350.97 61.83 350.97 61.83 360.8 68.37 361.49 59.53 360.56 59.53 350.97 49.45 350.97 49.45 359.5 59.08 360.51 47.15 359.26 47.15 350.97 37.14 350.97 37.14 358.21 40.3 358.55 35.39 358.03 35.39 348.95 73.56 348.95"/><path class="cls-2" d="M540.41,190.81s-16,156.42-69.7,197.39"/><polygon class="cls-1" points="515.79 396.5 518.82 396.5 521.71 391.23 459.27 392.92 458.43 394.51 515.79 394.51 515.79 396.5"/><path class="cls-2" d="M507.57,391.61S395.64,152.16,379.16,118.68"/><polyline class="cls-2" points="215.99 319.72 217.48 318.03 372.46 115.94 373.64 114.51"/><line class="cls-2" x1="202.75" y1="336.61" x2="199.16" y2="341.41"/><line class="cls-2" x1="196.67" y1="344.62" x2="182.75" y2="362.36"/><line class="cls-2" x1="194.47" y1="379.16" x2="218.38" y2="344.62"/><polyline class="cls-2" points="220.67 341.21 287.89 243.54 374.82 116.91 375.24 116.37"/><line class="cls-2" x1="347.06" y1="294.11" x2="297.75" y2="310.64"/><line class="cls-2" x1="306.92" y1="263.58" x2="297.75" y2="308.07"/><line class="cls-2" x1="324.48" y1="276.94" x2="298.67" y2="308.07"/><line class="cls-2" x1="296.72" y1="310.64" x2="255.95" y2="340.87"/><line class="cls-2" x1="203.94" y1="379.61" x2="243.77" y2="349.79"/><circle class="cls-1" cx="303.46" cy="301.99" r="1.43"/><circle class="cls-1" cx="298.01" cy="309.39" r="1.74"/><polyline class="cls-2" points="185.45 223.65 253.66 70.74 254.38 69.37"/><polyline class="cls-2" points="172.29 217.15 170.28 217.15 170.35 216.55 172.29 216.55 172.29 215.76 170.28 215.76 143.39 336.55"/><line class="cls-2" x1="115.05" y1="372.5" x2="128.15" y2="344.62"/><line class="cls-2" x1="129.3" y1="342.03" x2="143.99" y2="310.64"/><line class="cls-2" x1="159.29" y1="317.01" x2="115.7" y2="339.04"/><polyline class="cls-2" points="106.09 293.92 112.12 335.36 112.16 335.7"/><circle class="cls-1" cx="113.46" cy="338" r="2.59"/><polyline class="cls-2" points="99.58 364.75 109.56 344.62 109.56 342.26 110.15 342.25 110.15 344.6 110.87 344.6 110.87 342.03 112.12 340.21"/><line class="cls-2" x1="94.07" y1="288.9" x2="60.04" y2="348.95"/><line class="cls-2" x1="58.84" y1="350.97" x2="53.62" y2="359.94"/><rect class="cls-3" width="720" height="480" transform="translate(720 480) rotate(-180)"/><rect class="cls-1" x="329.68" y="364.26" width="19.22" height="25.89" transform="translate(678.58 754.4) rotate(-180)"/><path class="cls-1" d="M229.13,415.48h0l3.29,0Z"/><path class="cls-1" d="M458.43,394.51l-4.49,5.68-224.81,1.94v6l17.43.76-3.31,6.69c140,.34,259.22-6.29,272.54-7.06v-14Z"/><path class="cls-1" d="M243,415.54l-8.16,0Z"/><path class="cls-2" d="M516.83,420.6l.2-12.2-20.11.05-90.23.2-151.17.2h-9l.4-27.18-127.27-6.08-15.54-10.36-71.3-7.46-1.49,18.67,15.08,3.13,4.93,43.32,3.14.3L74.68,446.5H544.32S638,385,644.4,381.67C644.4,381.67,558.46,418.61,516.83,420.6ZM86,410.64l-29.57-1.8L52.79,383l36,4.93Z"/><polygon class="cls-2" points="382.09 400.81 382.09 358.86 246.96 358.86 246.96 401.98 382.09 400.81"/><polygon class="cls-1" points="143.16 376.71 146 336.55 141.45 336.55 138.98 376.51 143.16 376.71"/><polygon class="cls-1" points="181.84 378.56 172.14 214.7 170.28 214.7 177.08 378.33 181.84 378.56"/><polygon class="cls-1" points="183.5 378.64 181.93 344.58 174.31 344.58 175.71 378.26 183.5 378.64"/></g></g></svg>